<mxfile host="app.diagrams.net" modified="2022-01-20T09:23:25.271Z" agent="5.0 (X11; Linux x86_64) AppleWebKit/537.36 (KHTML, like Gecko) Chrome/97.0.4692.71 Safari/537.36" etag="yrwcCLAztaRveKhf7weD" version="16.3.0" type="github">
  <diagram id="hq73XGyAGvpOefcFGcN5" name="Page-1">
    <mxGraphModel dx="1136" dy="1684" grid="1" gridSize="10" guides="1" tooltips="1" connect="1" arrows="1" fold="1" page="1" pageScale="1" pageWidth="827" pageHeight="1169" math="0" shadow="0">
      <root>
        <mxCell id="0" />
        <mxCell id="1" parent="0" />
        <mxCell id="KeYMbjUNge5Vjj2mVOIy-2" value="" style="shape=image;verticalLabelPosition=bottom;labelBackgroundColor=default;verticalAlign=top;aspect=fixed;imageAspect=0;image=data:image/png,iVBORw0KGgoAAAANSUhEUgAAAawAAAFWCAIAAAC6oz6EAAAACXBIWXMAAA7EAAAOxAGVKw4bAAAgAElEQVR4nOy9d3hc1bX/vU6b3otmVEfFqpZsyRUk3G1sY2zTDDiQQAj48ly4CTflvgRI3tSbXLhJaCEkhJbEAUyzwQY33G1ZcpFsFcvqM2qj0fQ+c9rvjw1zFReNbNQM5/PMw4NHe87e55x9vmfttdbeG+N5HgQEBAS+ruCT3QABAQGByUQQQQEBga81gggKCAh8rRFEUEBA4GuNIIICYwPDMCzLTnYrBKYQPM9zHMcwzGQ3JAnk+B2aZVmaphmGwTAMxaAxDCNJkiRJgiDGsCKGYWiaTjyBIpFIJBJd9dFYlo3FYhiGicViHB+XlwRqMMMwHMcRBCGVSi++IDzP0zQdiURwHMdxXCQSURQ1msZzHIfj+CivcCwWY1mWoqjRHPxy8DwfiUSCwSBBEDKZjKZpnudRm0UiEYZhqBhN06g6giAkEglJXrrvxeNxmqbRlZHJZIl2MgwjFosv+St0ZI7jUI2jvGvxeBxdqEQLeZ5HLZRIJGPbRUeAZVl0yjzPEwRBkiS6aImTIggCnRTDMOhNg765ZCdnGAadAo7jFEUNv/4TD8uy4XA4GAzq9frJbcnIjJcIsixbV1e3e/fuuro6kiQ5juM4TqvVlpWV3XDDDfn5+QqFYqzqqqmp+eijj86dOycWi1mWve222+68886r1sHGxsa//vWvBoPh/vvvt1gsY9XI4Rw6dGjXrl3Hjx93Op0lJSU///nPS0pKLijjcDh2797905/+NCMjo6ioaM2aNbfcckvSIzc3N/f29hqNxjlz5oymJS+//HJ3d/eKFStuuummqzkTAJZlnU7niy++mJ+fr9FoTp48uXv3bqfTmZWVddttt911111GoxGV/Oyzz/70pz91dnZOmzbtsccemz9/vkQiueBo8Xj8/fff37lzp9VqLSsre+GFFwCAYZi//e1v+/fvf+CBB6qqqqRS6QW/2rFjx5tvvtnb27t+/fqNGzfm5eUlbXYwGPz000/T0tIKCgoSLfT7/a+++mpzc/P3v//9wsLCCdDBeDze0NDw9ttvHzlyJBQKZWVlVVZWfvOb3xSJRLt27dq8ebPVap02bdqGDRuysrKOHTtWW1vb0dGRm5u7cePGjRs3XnzAAwcOvP76683NzYWFhQsWLLj11lvT0tLG+ywuB8/zfX19v/jFLx544IE5c+ZotdrJasnIjIsIMgzz1ltvnT59WqPRbNq0SSKRYBjm8/nOnDnz4Ycfnjx58rHHHquoqBiTunp6ej777DObzfboo49KpdKjR4/qdLovc0AMw3AcJ0ly/F5c06dPpygqHA6/8sorg4ODt956q9lsvqDZXV1dH3/8cXd397Jly1auXDlKUWtubq6trS0qKhpleQzDkPVxNacBAAC9vb1///vfJRJJfn5+VlaWTqejafrll1+eP39+cXGxSqVKlCwqKlq+fPmbb755//33FxcXX9L2JEmysrLS7/d7PJ6hoSH0ZcKyoyjqkjdlzpw5drv9tddeCwQCNE2PptmhUGjr1q2zZ8/W6/UJEUxa0ZhDkmROTs43vvENm83W0tJSWVm5Zs0avV4fjUZ5no9Go7fffvt11103ffp0uVyuVCr1ev1zzz137NixrKyslStXarXa4e3kOO6zzz6rrq5OSUlZvXr19ddfP7m6Q5KkyWTasGHDBx98AACLFy/+MgOO8WPsRZBhmOrq6k8++USj0SxatKiyshIZZeFwWKPR9PX1nTp1yuv1jlV1drvdZrORJLlkyRKKovR6vUKh+DLv8NTU1HXr1snlco1GM1aNvACTyURRVGlpqclkCgaDR44cyc/PHy6CXq+3v7/f4/EAgMViKSkpycjIGM2RPR5PX19f4qlOSlVVVVlZWU5OzlWcBQD4/f7m5uYDBw489thjhYWFOp1Oo9EQBLFlyxaO4wBALBYnChMEYTAYqqqqbrjhBr1ef8kD4jhusVjQ1YhGo+hLDMPmzZtnNpvz8vIu+RRlZGSUlpaqVKrRKxdN01arNTMzM1ELAEgkkgULFhQXFxuNxokRQRzHdTqdTqdLS0vr7+8vKCgoLi6Ox+O1tbUDAwNr1qy5+eabc3JykPErl8uj0WhRUZHX621paTl+/PiKFSsSFyQajba2tnq9XpZltVrt9OnTCwoKJuAURgDDMLVavWTJkh07dpw5cyYzM7OoqGhym3RJxl4E4/H4Rx991NvbW1lZWVVVlbhJMpls+vTpd999dyQSkcvl6EuO4wYGBlwuF03TyCoxmUw6nU4kEoVCof7+fq/XSxCEQqEgSTIQCMRiMa1WazKZVCoVy7J2u725uXloaIgkyaamJgBISUmJRCInT54EgDlz5hAE4Xa77XZ7IBBQqVQWi0Umk3EcFw6HbTbbcO9VamqqQqFABohCoRjuEOQ4zuPx2O32WCzG8zyGYTqdzmw2SySSaDTqdDodDkc4HE5JSZHJZG63OxaLSaXStLS0kW1SuVyenZ1NEER9ff25c+dmzJiRkIyuri6n0zlt2rS9e/cO/wnLsj09PX6/n2VZ5GlNTU3VarVisZim6YGBgYGBAa/XOzAwUF9fDwBZWVnRaNTtdofDYZFIpNVqo9FoMBhkGEatVvM8z/O8Wq1GZ9rX14dORCQSmUwmg8Fgt9udTieO43q9Pj09/WIPw+DgYFNTE8MwCRGXyWSFhYUWi8VqtZ4/f37JkiWJy9jT09PV1bVw4UKKovr6+jweD/LK8TxvNBp1Ol3CA3gB3d3dsVjMbDZzHIecyzzPozsYCAQoipLL5U6nc/hPGIYJBAL9/f0Mw6BbJpVK09PTpVIpjuM+n6+5uTkUCjkcjvPnz+M4jv5qt9s5jjOZTAlzkud51A8DgQAA4Dgul8tTU1OVSiUAOJ3O/v7+SCSiUqlEIhHy4fI8n5aWptfrr8LqQefV2NhYW1srEonWr1+fn59/gYszOzvb5XKFQqE9e/ZUVlaq1Wqk136/f/fu3WazOTU19YLDxuNxr9fb19eH/ikWi7VardlsRj+MRCJOp3NoaAjdC4qiNBpNeno6hmEsy7rd7p6enmAwmJ6ejnym8XicZdmcnBy1Wo3GEAzD2Gy2YDDIcRw6ptls1mq1IpGIIAitVltcXGy1WhsbG78WIoju4q5du3Jyci5+b2s0mvnz5xMEkZubCwAsy/r9/rfeeuvQoUM+nw+FCNauXbt69eqsrCybzfbKK6/s37+foqiKioqUlJT6+vq+vr7rrrvurrvuWrhwYTgc3rFjx44dO06fPo3j+FNPPQUAt956a1tb29atW2OxWH19vVqtrqure+ONN44fPz5//vynnnqqqKgoHA43NDQ899xzwWAQAHAc12q1991335w5c2pqat59993a2lqj0fjcc8+Vl5fzPB8IBPbu3fvBBx84HA4kmtddd919992Xl5dnt9u3b9/+3nvv1dXV3XXXXWVlZQcPHuzt7TWbzd/+9rdXrVo13BS6GL1ev27duqeffrq+vv6GG25Al4XjuFOnTjkcjptuuunll19OFOY4LhgMvvrqq2fOnIlGoxRFRaPRDRs2rFy5Mjs72+v1vvvuu3v27LFarVartaOjAwC++93v9vT07N69u7GxUafTrVixwuFwnDlzxuVyzZ8/H8fxxsZGkiTXrl37+OOP79ixY8uWLWfPnjUYDPfdd9/69ev/9re/ffzxx3K5fO3atd/5znfMZvMF7bfZbK2trRUVFYm3GpKbhQsXfvjhhy0tLaFQCOkFz/M2m627u3vTpk0cx23ZsuXo0aNer1cikcRisRtvvHHFihUzZ868pP31z3/+89133+V5fuPGjQ8//LBGo4lGo01NTc8+++z58+f1en1RURFFUcNj016v9+TJk6+//joSL4Ig0tPTv/Od75SUlMhksqampqefftpqtQYCgfb29pSUlOzs7Iceemjz5s3vv/++SqX6wQ9+sG7dOpFIFI1Gz549+8YbbzQ3N6OA3rRp0zZu3IjGN9XV1X/961+bm5srKipycnK8Xm9HR0c0Gv3GN75x6623XixGI4PGv+fOnXvllVdmz559++23p6enX1xMLBbPnTvXarWiniaVSsViMcdxbrf7448/fvTRR9va2lwu1/DD2u32PXv2bN68GTl5DAbD9ddf/+1vfxu9Emw22/vvv79nzx6ZTMayrFKpnDdv3sMPPyyXyyORyLFjx/7whz/U1tZu2rSJJEm73T4wMODz+X784x8vXLjQaDQyDDM0NPTSSy+1tbXRNE0QBMuyGzZsWL58eWZmJmpDaWnpiRMnWltbr+iCTBhjLILRaNRms3m9Xr1ef0l/hEgkmj17NhJHq9X6/vvvb9u27aGHHlqwYAFN0ydPnnz66acZhrntttumTZv23e9+V6fTffDBByzLrlq1atOmTa2trc8888yePXtKS0t1Ot3GjRtTUlIkEolIJHrmmWcAQC6Xd3d3A8A777yDaqysrESRtYTnq7W19ZVXXsnKyrrzzjszMjI6Ojq2b99eW1ubn5+/ZMkSvV6vUqmam5tRYafTefz48Z/85CePPPLI0qVLlUpld3f3k08+iWHYnXfeOX369DvuuMNisTzxxBODg4OrV69+8cUXQ6HQD3/4w/3796enp4/sm1Or1evWrXv//ffPnj176NAhJII9PT2BQECtVl/g0mYYxu12t7a23n777cuWLeM4zmaz/exnPyMI4rbbbtPr9Q8++CDP80eOHCktLX300UfR8RmGycjIeOeddz766KNbbrnloYce4nn+zJkzx44de/TRR/fu3YusZgDYuHFjQUHBq6++2tDQMH36dLPZnJGRsX79+kWLFs2dOxdp2QUMDQ319vYuW7Zs+NuOoqilS5dWV1d3dHScPHlyyZIlAOBwOILBoFar1Wg0AwMDHR0dZWVlDzzwAEEQNpvtD3/4g8vlSktLS0lJubiWRx55RKFQ7NmzJ/FNdXX1e++9Z7PZnn322ZycHJvNtnXr1paWllmzZqECbrf71KlTJSUl6A3R2dm5bdu2559//nvf+96cOXNmz579zDPPPPzww/PmzbvllltKS0spilIqlf/5n/9JUdThw4cTFR0+fHjLli0+n+/ll1/WaDRWq3X79u2PP/74a6+9lpeXt2zZMrlc/vzzz9fU1Kxataqqqioaje7bt+/555+fPn260Wi8Imerx+Oprq7evHnzfffdt2DBgotfOQlmz56dlpZ26tSpLVu2PPjgg1lZWQ6H49y5c2VlZSaT6QKD3ePxfPLJJ//4xz8ef/zxwsJCsVi8f//+LVu2xGKxb33rW0ajsaenp6Wl5Uc/+lFxcbFIJDp69OjWrVvfeOONjRs36vX6FStWaLXae+65p6am5pFHHlm0aJHL5Xr55Ze3bNmi1+sXL17sdDpfeuklj8fz0EMPzZkzx+v17tq1q7GxsaSkJCGCJpMpEokMDAyEQqHE+3LqMMYiyDAM8kqgF9Qly6DvOY7r6Oh4++23KyoqysrKLBYL8iJlZWVVV1fn5ubedNNNGo1GoVBIpVKLxYKcPmq1WqFQOByOgYEBvV6vVCpVKpVUKhWJRIlOo1Qqhz+xUqlUrVYPb0wwGOzo6CBJUqlUmkwmlK4RiUSUSqVMJtNoNMPHZR0dHVu3btXr9eXl5QUFBRRFSSSS66+//ujRo0VFRaWlpQqFQqvVIg93WVmZ2WxmWTYrKysYDPb29o4sggRBaDSaxYsXb9u2raam5uabbzYYDDt37hSLxbNmzbrgESJJUqfTPfjgg/n5+WhsotPpVCpVT09Pd3e3Xq9HF0cikSgUiuGPkFqtlsvl6PVTUFCAYZjZbC4vL8/Pz6+pqUnol1KpnDVrltVqdTgcf/7zn71er9frLSgomDdvnlqtvmT7Q6GQ3+/XaDTDm0oQBPIz1tXVHT9+HIlgU1NTOByePXs2SZIajeauu+5SqVQZGRnIbWQwGNxu9/nz5y8pghqNJjHyAgCaps+cOVNXV7d48eKioiKDwaBWqzs7O4cLsdFoXL58uVwut1gsSqWSJMlZs2bt2LEDDXjFYrHRaETjaL1ebzKZ0K+0Wq1SqUwMP30+34kTJzo6Ou68887c3FzUN3p7e3fs2PH+++/ff//9mZmZGo1GLpebTKb8/PycnByapn0+39DQUF9fXzAYvCK3cm9v7+7du1F6lkwmG8GvrdVq9Xp9QUHBxx9/fOONN6alpXV2dh4/fvzOO+80mUwXWNOnT58+deqU0WisrKxUqVQ4jhcWFqampm7evHnt2rVGo7GgoODee++dO3cu+mt+fn5mZua+ffvWrl1rMBhkMpnBYCAIIi8vLycnJz09XS6Xz5079y9/+QtyQcRisfb29nA4TFGU0WjUarWrV6/u7OwcbggrlUqCIFBv+eqLIPLrAQDyN41QMhQK9fX1tbe333333egqEwSh1+vz8/Nra2uRNYdQqVRGoxE9hyqVSqlU0jT9ZUIrWq22pKTk7Nmzr7766owZMywWS3p6OlKQiwvb7fbTp0+XlJSYTCakpAqFory8fOfOncgPkuisZrMZ2W7oRAKBgN/vT9oYHMeXLl168uTJ8+fPHz58ePHixc3NzfPmzSsqKrJarReUVCgUKpXqxIkTBw4cQK4uh8OBPHcj10KSpMFgSE1NRS52s9l8SUNDpVJVVlb29fW99NJLPM8vW7asoqLicgoIAPF4PBwOi8Xi4Q8ehmHoCjc2NtbV1fn9foVC0dTUFI1GZ8+eDQAymUylUnV1ddXV1aGzsFqtYrF4YGAg6eUCAJ/P19fX5/f7y8rKpFIphmFKpRK54RL3QiaTpaenNzQ01NXVMQwTj8e7urqQwxR5bEdTkcPhsFqtDMPMnDkTmVcKhSI9PV2n0x0/fvyWW25Blg4aayMXGEmSyHfp8/mGh1xGg1KptFgsHR0dO3fu1Ol0VVVVl9MLNCpfsmTJM888U1tbq1Ao+vv74/F4RUXFxV2us7MT+T0/+ugj9I3dbvd4PP39/cFgkGVZlUql1+t3796NHJoOh6O7u7u9vT0Wiw0/jsVi0Wq1KP0wPT09EAigE5TJZOgF8+6773Z3d+fk5FgslhkzZgx3iCMPezweD4VCV3RNJoYxFkFkrYhEonA4PHIniEQiyMGv0WgS73AcxzUaTSgUQt46hEwmG27HURSFkksvd+Skcb309PS1a9cODAzU1NS0t7cjCw71uYvHLyiwMNzYQT5EDMMCgUAwGExohEQiSTxdIpEIZTuP3BJESUnJ9OnTUU6MQqFAcQk0+BpejKZpu93+2Wef9fT08DyPpMfr9YZCoaTPG0EQarV6NEHz7OzsqqqqN998s7a29uabbx45UxKlf17yT6WlpYcPH+7s7Gxra8vMzBwaGtJqtRaLBT1mhw8fPnfuHMp/xnF8aGhIp9NFIpGkzQOAYDAYCoVQV0mcEUVRiQgPAHi93lOnTu3atQtVgSpFgYt4PD5KEfT5fMFgEAUKEp0KDZwHBwfj8Tj6BsdxZGyi/0dyiaIHo6klQXp6+ooVK0wmU21trVKp1Gg05eXll0t3TU1Nvf766w0GQ3V1NcMwCoWiqKhIqVRerDKBQMDr9YpEIhQrAwCWZXU63eLFi6VSaTwe7+vrO3jwYF1dnUKhoCgqEAgMDg6iKMfw46CeCQAYhkkkksT0BKVSuWbNmq6urpaWlr6+PovFUlBQgJ6mRB4ohmEYhnEcNzXnFI2xCEokkoyMDKPR6HK5hntnERzH0TRN0zTKHMRxHF2aC8qgORKJb9AVvOBQI5uZqHyiDM/zw32CWq12+fLlixYtOnLkyO7du48cOfL3v//9rrvueuyxxy7Os0XtvLiRAIDaf7l2JrWFEyBXd319/ccff+xyue69995LBtE8Hs8///nP1157bdOmTffeey+yOh988EGSJBMVXfJaIUaZNoTszby8vJMnT3Z2dvb19Q3P9bu45TKZDEVgL/hTaWlpcXFxXV3dJ598UlZWJpPJsrKySJKMxWLbtm174403KioqnnzyyezsbAB46qmnuru7R3m5Et0jESyGL2ZoJco0NjY+9dRTaWlpTzzxRFVVVTweP336dHV1NXzRK7AvGKEidOvhos6GZnEM/+0F3TXRpNGcTgKRSJSTk7Nx48Ynnnhi586dkUjkxz/+McofuLiwVCrNzc1dsWLF3r1729ra1q1b99BDD13ysOidXV5e/uyzzw4/hVgsJpFIPB7Pnj17XnjhhW9/+9ubNm0ym83t7e3vvffeyy+/fEH7L3etUIros88+e/bs2X379h04cOAf//hHVVXV448/jjwhAIAmR4nF4ik4FobxmDsskUjWr1/v9Xrb29svMIX6+/s3b958zz33HD9+XKVSoXS5gYGBhAnAMEx/f79Go7lcHtloEIlEEokExanRgxGLxZxOZ+KmDg0NHTt2jKKohQsXPvnkk7/97W9vvPHG7du3OxyOi4+mUqmysrIGBgYSowOGYXp7e3meNxgMX6adw5k9e3ZlZSXHcYODg8XFxZcMLIbD4ZMnT+p0umnTpiXcWBcI0PCemph3dUUtaW9vr6urmzNnzk033XT69Ont27dfMCwajkQikcvlPp/v4je8wWDIz89XqVQ7duzYvn27Xq+fPn06ALAs29DQIBaL8/LyEsmPaLbfKFuo1+s1Gg3LsgMDA4l6Y7HY4OAg+mc0GnU4HDabDQUQ0Evi4hmsiWvFsmwkErn4FNAQOxKJ9Pf3Jy5yOBweGhpCLsJRNnj0EASRkpLy4x//eMmSJUePHn388cf7+vouN/dWp9Pdc889yIdjMBguNzPEaDQqFIpEfgwAxOPxtra2X/7yl3a7HaXZisXilStXorfdJa/VCAQCgf3794fD4bKysn/7t3/73//93x/96Eft7e3t7e2JAUowGESmzwgv1Elk7EVQLBbfeeedM2bMaGxs3LZtG8qtAwCn03n48OHNmzfPnj0bxbCys7NXr15dU1PT1dWFvEttbW11dXUVFRUzZ8686gYgHyKO4+fOnQuFQj6fr7u722q1Jh6zrq6uN998s6urC6Wqol6SGNFcQF5e3po1axobG1taWnw+H8MwTqdz9+7dZWVlJSUlX2aS8nC0Wu3ChQt/+MMfPvzww2lpaZd8+ZMkmZKSEggEPB5POBxmGMZut6M8j0QZpVKJXvI+n2/btm1vv/12Z2fn6JsRDAabmpq6u7u/8Y1v/Pu//3taWlpNTc2uXbsuVx49e/39/RcP/HEcz83NLS0tbWlpqaurU6lUyIOGYRiaEYGS3XieHxoaslqtF48bLodUKi0uLs7JydmzZ4/b7Ua5k/X19S6XCwkZinhIpVKr1Yr8KihYPNxpgOM4SjWNx+ONjY0///nPm5ubLxiP6/X6GTNm6PX6nTt3oqb29/c3NDT4/f5bb731kjGciwmFQlu2bPnpT3966NCh0ZRH/r5vfvOby5Ytq6+v/9WvftXc3HxJv4pUKi0tLb3//vsffvjhhQsXXs7SnzVrVllZWVdX1+HDh30+HwB0dHTs2LEjHo/zPI96fiwWa21tRY/q4OBgQ0PDaJqK8Hq977zzTk1NDXINpaSkaDQakUgkFosTbq7BwUGJRGIymaamJUj87Gc/G9sjolxiuVwej8d7eno6OjoaGxvr6+tPnz5ts9n0ev0dd9yRnZ2NLlNKSkp3d7fT6WxtbT19+nR9fb1EIlm3bt2MGTNCodDRo0f37dvX3t4OADqdTqvVvvfee2hqKrJBuru7Dx48eOLECY/Hg/Kr1Wq1VCqNRqMDAwNWq7W3t9dms3V1dfX09Ph8PhQpZlm2pqbGbrd3dHScPXu2vr5+aGho4cKFlZWVAwMDBw4cOHz4cG9vr0QiSUlJQT5vu92ObNv6+vqTJ0+6XK5169bNmzcPABobG3fv3l1dXY3iIVKp9Pjx47t27erq6uI4DmW6XJDv2t3dffTo0f3797e2tqLLhQLfOTk5xcXFWq3W6/WeOXPm008/3b9/P3JIoRCkWCzu7Oz0eDwoItzW1nb06NFQKIT8VmlpaQzDtLS09Pf3O53OgwcPZmRksCxbX19fXV2NzgjFjpGPde/evbt37z5//nwkEkFZ5QcPHty7d28gEFi5ciWGYTU1NXV1db29vSzLmkwmFIUYfiKRSMThcNTX1y9duvRio5ggCJ/Pt3PnzunTp994441oAgMaY/b29rpcrv7+fqvV2traWlNT43K5UFZ8b2/voUOHTpw44XK55HJ5WlrasWPHPvnkk5aWlng8LpfLUQgSpcc7nc62trb29vbOzs6enh4AkEgkOp1OoVDEYrHe3l6v12u1WpFhUldXJ5fLtVqtTqejKMrhcPT396PoXEdHx7x58xoaGnbu3Nne3k5RlEKhQBNgAKCtrW1gYKChoaG2tra3t7ekpGTDhg06na6jo2Pv3r1Hjhxxu91qtVomk3k8nq1bt+7duxc59ZC/ePPmzW1tbYWFhRd7OViW7evrO3DgwCeffNLX14c8pKmpqRkZGSqVKhKJ7N+/PxAIuFwup9Nps9n2799fX18fDAblcnlWVhZ6goqKitCNPnfu3MGDB/ft2zc0NCSTyUiSVKvVOp2OIAiPx9PW1tbV1dXU1NTY2BgIBJYsWTJt2jSZTBaJRAYHBzs7O10uV3t7e3NzMyqJEqrdbvcHH3xw8OBBsViMumJ/f//HH39cW1srlUp1Op1YLG5qakJJoOfOnaurq2tqaioqKlqyZEkiRWbXrl0+n6+8vLy8vHzMhGbsGHsRBAAMw7KysjQajdvtbmpqGhoastvtfr8/IyPjtttuKy4uRh5TmUyGkiSsVqvNZkO2ABIXrVbrcrlOnz7d399PUZRMJtPr9RaL5cMPP4xGoyi8qNFoXC4Xmk4gl8tpmlYoFJmZmeghVyqVTU1NPp8voUTRaFQkEqWnp1ssFoIgWltbh4aGBgYGgsFgZmbm3XffnZaW1tbW1tjY6CoisgAAACAASURBVPP5FAoFsmXy8/NRb+jq6rLZbHa7PRgMLly4EKUm+P3+tra2s2fPokai+U+nTp0aHBxEj7RKpSouLr7Axuzu7j579mxvby9KzSkuLjYYDFKpVKvVonrdbndzc/OZM2fQs4TkuKCgIDMzE4377HY7ml4qk8mkUqlEIjEYDAUFBWq12uPxeL1el8tFkuTNN98cjUbb29t9Pp9SqeR5Hs0oQC/kvXv39vb2olkQAIDjeEtLi8fjycrKKi4uDgaDQ0ND0WiUZVme58vKyoZHHhAkSfr9/v3798+fPz8lJeWC3Hh0l3t7e2+66abZs2ejcCF6yHme9/v9NpsNjUOlUqlSqUTSEwqFrFZrLBZDVm15eTnKFkD+R4VCkZubm52dbTAY0MV3u90ikUiv1xsMBp7npVJpRkbGtGnTUPacw+Fwu90oQ5hhGHQls7Ky1Gq1UqlEqb84jldUVJSXl586dcpms6FLqtPpMjIyLBaLXq/3+/0tLS1o3hFKL0Wuura2tjNnzoTDYblcjhJ94vH4wYMH0emkpKSgSt966638/Pzrrrvu4uRnJILV1dVut1ulUqHY2rRp03Q6ncFgyMzM7OjoCIVCaCmmcDjc2tqKrF29Xl9aWgoAGo1GpVKhzPnW1tazZ8+GQiF0KLVajZJ4UEoNehIdDgeO4zNmzFi9ejVKsEWZYe3t7SiEQhAESvMiCKKgoCASiRw6dEgikaAzkkqlgUDg1KlT6CoZjcbc3Fy9Xm+z2VC3dLlcFEVt2LBh+vTpKCQViUTefvtts9l8ySswFcCEjZYEvgytra1/+MMfUF5ncXHxOC0+do3idrsPHz785JNP/vrXv0aZ9pPdookmEom0tLT84he/uPfee9euXTtW7qOxReiyAl8Ki8Xyve99z+l0njhxAg1IBRJEIhGapn//+99XVVWN4dpx1wo0TXd3dz/99NP33HNPYiGVKYhgCQp8KXiej8fj7e3tOI6npKSMVbj8qwFKMpXL5V9yZaNrFDR/rKGhoaSkBPlhJ7tFl0YQQYGxIR6PYxg2ZTu6wMTD8zxyKE/xXjGOy+tPIm6361xro1g8mct5MxGcjU3R9cQFvp7wFOTl5V7p8jaX5HxHXTAY5LkkJhQGBEUoCwoKLl5FfOrw1bQEP/l023ceuj0njySISTs7x3mJu3+kdbQEBCYYXI396plfXW5uyRXxnf+Y337uDJdMBHFcJSFm/elPf0IrJE1NvpqWoFiOFZeSv/ujXK6YtMjP1v/K3v+3UeXTjidTwRT9Cr5lr1E8cudYpSsHA/w3viNZtDSJgNi6ZT/5rndqThlO8NUUQQwwsRgzpRJK2aSpgEoulsCoJuqPK9ik6iAvKOBUQoSN2ZZvHAtKNRhNSY7mDwFyC45JpePEV1MEBQQExhmeA+CSveS4qS1/CEEEBQQErhgeAw74pIteXBNDAUEEBQQErgqe5yCJs29K+wK/QBBBAQGBq4EBoJNNOWPhylZymxQEERQQELhieAAWIOm6g+yUyE9IgiCCAgICVwM/iuwn7hrQQEEEBQQErhwegMeATSaDSaeUTAUEERQQELgaWD75aJcdo7TEcUUQQQEBgSuGA54FLGlg5Ao2K5k8BBEUEBC4YjAeWMCYpNHha2A0LIiggIDAVcGPIhOaE6LDAgICX0n4z7NkkmjcNZAleA2JIMdx8Xg8Ho+jrfyEvSwEBCYVjAWcTTYc5q+FDTyugSYCAM/zVqv1xRdfXLBgwauvvtrf3z/ZLRIQ+LrDA3CAjfwRfIJjQygUQnsBu93u9vZ2r9fLMF826MQCBIeopk/1LANiGRsNkmI5U7zC43eI+xpkISelTKHdPeKUgkj23IDWFAeAgVaZyyoOe0g6Qgy2SCsftKfkRcbpHaKBWHp51Dg9FvXjPA/W7XL7hK/KJQa2oNJvqQyFXOT+180TXDtqQKoqmrkyzHLAxjC/lTrXoJ7gNqiATp8eNlXEoj6c56Fvu6wXZBPchhSIZiyOKMx0PIjzAM3b1QGY/NXqOQAG8Dgk2TglaeRkKnANNDESiQBAampqSUkJho3NUtgcB0EXFQ1ilIxVpdISFVP3rn7gnGKoUxJ0ijRpcVUqDQDWWqW1RsUBhPxEd60y4iXVqbTKFJdqGYIcL3cHDnz+jaGcxUGvlfJ1irLmRTJXRZRAj1N1l8MAMUUaY8yLZs0NTXDVAIABr4P49U8MxUOYv0ukNLPTbgwaIEpM4KokOPA5laGCmwI+K+XrpkzFMcutIdWE3gieAH7mQ15dbsxrFdFhIn9xML04Ip0a6xJwPM4CluSDXQMKcy00EcfLysrWrVs3d+7csdqyCwPASd4yJ1iw2Fe0yJu/wD9YLXVbxSTJp08Pla11FtzgTZ8ZivlwR4eEozFHm8x+XophvCEnmlIQKVnhkeuZcYp7yYHNnB+S6ZiGI+pzTSomhhkLI0ZjbHxquyykhvdZKe+ACJuM1ZBEwBnmxvIX+js+UTSdVnnaRQojbVkaJibQ1S4BNmNuSJ1Onz2sPtegingJXV7clBOZsAbgAHJgpi0IxAJ4Y7W6e5+MIPnU+REVxCesDZeDB+AAOMBH/iRfbGsKcA2IoE6ny8rKMplMY3hMEofUaZG8eQGdOc4BsAyGUTwlY3Ou9xUu9hIkxOO4t1dESTl1WiwWxc9/po758P5G2cm3DSe3GNw2yfhtopSSFiVFXNBFIa+zo1kiUXGmyol79hBWr9x9QsTFJyfFQQW0dlrcZxfFgeAB83VQgSEqd3GAmkBF1uMxkZwLDqEbgTlbxaSIS70uOmENIIFPKw3TMSzqJTnAaCD6zsiMeVFt8UQPCy4JBzgD2Mifa2IBhWtABMebgFPUfUKZvSKUWhSWqVmWxoY6pXuezqh/R6fLjhUt9XIs7u0XDbZIUwpjlQ8OzrjZtffXqZ3HVZHAuOwkK0tjcBzY6Oe9JxbCSREnVl4Lr9SxQwycWMHR4c/7J+PDWBpkOnYi+6sklyUonvnibceEMJwCiXoibwSvMLEcA2wcAwAOIBrCxAqOnAKdAeXHoADxSJ9rYTh8DQRGRkk0Gq2urq6urna73f2DHcHAqFb29gyKeuvljjbJgn+363NiOABQvMocL7/NpbdEB1pkTbt0M9a6SBGvyYqrUuIKTZyJYRI96+qWpE6PyJRjb6DFPDjPAyH6vPWUmGNpPD5eMZgpCg0YE8UI8edPO6HgcRJifnwiR+a0g+AYjKA+r5OQ8BwLdGjiTBsesIgPxwnASR4AMABKysejGBuZfPOKB2AwnOaTBkYmv6lJ+eo8WjiO63S6nJycgoKCjIx0kkh+9d19YtsppX9QZJkbNOSFI37C1qCwn5dJZWxGSSj3+kDYTfSckhMUbyqIiGUsAGCA4TgAx8O4zQx3d4hYGpOoWBx4ANDlxOMh3NMqGqfqpiYhoPx9lELPkMAB8LJMRqZi+8/KJvKh8vpJOopLNQwOPACvzqQ5GnO2Ttw2qhxgQyfFhIgXKVkMeBI4Y27M3ysKNkx+dBgA43iM4fGRPyx/DSjMV8cSFIlEM2fOnDlzJgDsO/RxQ/OrI8gUBxCPEC37NL31cpmeTpsetp5QYRg4u8QYDgTFExQfcFAkBVI1Q4q4rNmhwVZpYJBydEuDThIjQJselarHZXq4F0Rem1idETNDJA640kQPNEqHGiZ6C2MxsMp8RqplJEpOC7EAUDRgE7Z3XRgI10lxyEUa8mNUG6fNiQNA1xb5RIpgACiPTSTX06kQiQOuSqNDDspeM3GbiLMAbhD7+0VSDWeGqMLCyo10+z6ldwqkyMAXSYJJy0xMY74MXx0RvCJYBhvqEB99yRjuppTT6PM71HQIn7nRw/EQHKKGOiQyDeNsF5uKYsXLvRTJWyoC/U0yR4dkoEXGMpC3OGCZE1Rqx8U/zQDe8Lp62h2Bhb91RFxk0EXadsqdMHHPHiKFjObdGDQVRMUqbvbD7lMv67wgmrDRKAeYwy/e/z/mmfd4WBanw3hPnayHG5s9c0cJC3jLu0o2ji38H0fYTbIMZj0sHZrQG4ExgB37/w0F9wcW/NIR9RGOdon1oGyK5AnygCWdMSKI4NSFJHlzUeShra0cBzgBAMDzIJKxwAPH4RjGYzjPMThBcpT0c7dUxe1OlsaQnxHDeYliHHO1nCD2vUedeU+L6o5Phtein5EO/VFy9I9GHCAGeAxwbmL3co8A0XJS1XlSAaObpjoeeEB8ehvVsE2DbkTSlaPGgz5a6nhFQnyxtVs0WX7yhMGOIvg7JRIak/E1FUEMgCJ5jemS+VbsRf8DACCRshM2a4MFjJ3svs4Czv7rIzfBIsQDRo9ixbpxBd2IiU7R/FcYwKfgqnzYFz7BkYuxwr7DY0VDQ0NtbW1nZydN06dPnxaLxeXl5QsXLhSJvl7hAgGBKQLPAQt40llxk5/LMwqugdgNAAwODjY3NzscjsrKSpFI1NnZ2dnZybLXhK0tIPDVhIUkoWGGT66SU4FrwxJcvnz58uXLJ7sVAgICCTCOH83K0sJwWEBA4KsIWkeLT5Ytyyf+M4URRFBAQOBq4ABjuGSWIMqlmdoIIiggIHA1cKPIExSGwwICAl9NuNGlyHAoxfMyMAzj9/uHhoZisRjHcTzPEwRhNps1Gs3wxA+app1Op8Ph4DiO4ziVSmU0GjUaTaIAz/PhcLi3tzccDnMcJxKJNBpNenr6KDfhEERQQEDgiuEBaMDjyRZQiI9oCXo8ngMHDuzcudPlcjEMQ9M0SZK333778uXLMzMzsS8cjgMDA9u3b9++fTvLstFotLS0dN26dcuWLSPJz+UrGo02Njb+5S9/6enpoWlarVbPmzdv06ZNOp1uNDooiKCAgMDVwPFY0iS1kaeUdHd3//SnP7377rs3bdpksVgGBwe3b9/+xz/+0e/333333WazGQBisdhrr73W1ta2YcOGVatWBQKBF1988Z133sFxfMWKFeg4x48f/+c//xmPx3/3u9/pdLoDBw5s3779t7/97RNPPKHT6ZKeyDWQxSMgIDAF4fjk6wnyI4ogRVEGg2Hp0qWlpaVms7mwsHDt2rUAUF9f39bWBgAMw9TW1tbX16vV6uXLl6empubm5lZUVASDwR07dqCdNtxu96lTp86fP79mzZqcnJz09PRZs2YVFRVt3769vb0dbc4xMoIICggIXDE8AIthLI8n+YwYPk5LS3vkkUdKS0vlcjkASCQSi8Uik8ncbrfb7QYAhmFOnDjh9/tTU1PT09MBgCTJwsJCuVze0NAwODjIsqzNZmttbWUYprKyUiKRAEBGRkZxcXFfX9/Zs2d9Pl/ScxGGwwICAlcMz2MshzF8kjxBhgeappubmwOBAACIxWK9Xm80GpE7LyUl5e67704U5jguEomwLKtQKJAssizb0dGBlgpNePeMRqNKpfJ6vVarVavV9vX1ORwOmUyWlpaGDqtQKFJSUgiCaG1t9fv9aFg9AoIICggIXA0s4LFky3zEWSYQCDzzzDMo2ms2m1etWrVu3TqtVntx4XA43N7eHgwGi4uLCwsLAYDjOIfDgeM40kQEkshYLDYwMFBWVub1eiORiEKhSMRJMAwTiURKpdLhcESjyfeEEURQQEDgahjNUlpAEBqN5umnn87NzQUAgiBkMplMdum9m/v7+//2t79VVFTccMMNaWlp6MtYLIZ+mChGkiRBEBzHRaNRnufj8TjLsgkFROA4TlFULBYbzQoDgggKCAhcMTzgPI+xyYbDLI/hOG40GlNTU0cu2dXVtX//frfb/cADD8ycOTOhehRFRaNRjvu/9WhYluU4Dpl7AECSJI7jF4gdz/Msy1IU9fVNkWEjmL1Zuv1nFolo0lbla5NqmH+f6OWgL4B6KcZP+UlLEwAGJAETuir1xbAQ4afAfsFjCAPJF1AY5crSNpvtyJEjHR0dt95667x58xJ5LRiGabVav98/fFQbiUSi0ShFUXq9niAIpVIpFosjkQjHcUjyeJ6naTocDmu12tGstvfVFEE6jNvbJR8/k0ZO3kLk0R9Ldn5/kh+821+Ks4IIAuBAkaBJXm484YHjYErsFzxWoEkjI5cZzXrgbre7trb2/Pnz6enpd9xxB0EQHo+HIAiVSkUQRGZmZnd3t9/v53kepU97vd5gMKhQKDIyMkiSTElJ0Wg0VqvV5/Op1Wocx+PxuN/vj8ViWVlZw52Jl0NIkREQELhieADgMTbZhx9xXh0y2Q4ePLh7926j0fjggw8SBBEIBI4dO3b27FkAIAhi5syZGIYNDg4mjEGbzeb1ejMyMnJzc0mSzM3Nzc7OjkQizc3NNE0DgNPp7OrqEolEFRUVQrK0gIDAOIHFAYsCPvInNqLCeDyevXv3/vnPfzabzWVlZR0dHU1NTfX19QcOHDh37hwAUBS1aNGigoKCnp6eAwcOAEAgEKiuruY4bu3atcgwNBqNs2bNysjIeOutt1AiTlNTU01NzbJly1BGYdIz+WoOhwUEBMYVHoABbGSNA4CRZ4xYrdZf/vKX58+ft9lsBw4cIAgC2YYEQVgsFgDAMEytVm/cuPHAgQMffPDBwYMHw+Ewy7KrV69etmwZOghBEPPnz6dp+tNPP/31r3+N43g0Gs3IyFi/fr3BYMBGsT+4IIICAgJXA89jwCVbVHVEp6FOp1u9evXKlSsv+N5gMMydOxf9P47jFRUVMpmssbGRYRiGYdLT06dPnz48BdpsNi9atEgsFjudTpZl5XJ5dnb2nDlzKGpUIQFBBAUEBK4CjIHkM0ZGjg5bLJaf/OQnSWuSy+WzZs2aNWvW5QrgOG4ymdavX5/0UJdEEEEBAYGrgecxOtl6gpBMJacCgggKCAhcMRxADPBQMp+gKNn6+1MBQQQFBASuGB4whoOkw2F8dMnSk4sgggICAlcDC1g8mSWIC8NhAQGBrypxwETJNE4kWIICAgJfSXgAnodoMo0TATZps/dHjSCCAgICVwMLGJZMBFlBBAUEBL6acBDnMT+bxCco47Dkq7hMNoIICggIXDE8YHEeCybLE2SEFJkvCcdxfr/f6XSiPZXRWjopKSk6nQ7tqCIgIDBZBACHZMNhRgiMfEmi0eixY8d27txps9nQ3swsy958882rVq0qKCgY5fbyVw5PAODAYwA8ADeaNcSvsh4eWIA4AAcgAhBhwPIQA+CGleF4kGJAArAATOJLABKAAhjF5PCrBgee+OIiAAAD2MiT4ccBngAg0KJNn8/YnwCzgseBJ4BNzPfiAecAI4BNXAoMgPl8b42JuCA88CTwOPAYYLFRuOEmDLSa1shlku93OQWY0iLo9Xp///vfz5w583vf+15xcXEwGPzkk08+/PBDh8Px8MMPZ2VljUelCmCzZwXzVwbjIZyh8d4TkqaT47MeZwwsXcyMf0SJTm7oW+KjqyXg4Na+GCZ6OYgBAGBRHj/Jdb4jr5spyu9mCnbE0OADo8FfShxeI0m2y82XIkMUzv9GUG5gYiEiHsFOvqEPTGxvkQKXPT2YvzrI0MDGCVeH6OTu5GvDfUnEQGes9c64eWCwQyFV0QBYf4Oq6x195S87cRzoCE5KOImCPfJYdgCko1w2+UsiA7b0Jl/JGi8dxd/9QRY9rnd91PDwr2/ryxC7FvIEp/SIHcdxrVZbVVU1a9Yss9mcnZ29fv16hULR1NTU0NAwLjUCn5oTvu5hZ+PbqvrnNUwMy6oMp0IEH4/1mb1cah8XzSOwAJAhHgCAgngmbr9PYvuepOcRie8uMa/D/BocAlzWGUZ0jmtdI25dI8YjoD7JqnuS7yBzdWDAk8Dd8MuheASr+19tf63UMieYVR6S/58tOu7gwBtF0cX/n6Njj+Lsc9qoH7fMD6ZDmBzNk/clIIEFDvqb1W1bjQ3/SONYKFzi0M4KS+Rsz0lN09tma60OAGY+2a+A5NuYjQkGaQwAogFClUJPpccVA8CAS/JJmkMzFZhKV/UilErlt771rXnz5qnVagAgSdJisahUqkAgMDQ0NB41yoExzoipTHRfl6wPpD6rSKJic24JjosISjCPCfdbCD6x95YC71goOl4pOn29+FQBGdFh0Y1UhwEHADLAgYdvLyTbC0meAjzIEfx4rZtPAm+AmCE3GhqkekE6eEocCxEZ14dUE7g6vAxY4w0xTUZs4IykF6TudhFOQN7dQXKcdwuggXTukbe9ZRhqVTpaVHSMVBljgPMtn6X0fKhxtqs8ddJ4FNdlhsm08ZXjBOEI6T4nCg5NrUEbzwPwGPD4yJ9o0hUWpgBT68pegFwuX7t2beKfPM9Ho1GGYaRSqVKpHI8alcDIjGzIQ7KAAWCBXoKjMVNpFNs6DpVp8PMkNts7bOqRBGsvoQAAeL7IzqnPMX1LKVDgQPNxLS6VQWEzAwBYjGcNuFszXt1LDFzK9bF4hKADOA8YDZjHKtZZYrI0FvrHqc4LkQOjTKNDLpIBHAAL95ARP5FWFibfHt8RcRyoeJwCBwCACOIYxod8VPCkeAA0ABgAT+lZsZx1divo/gl6vF0gxrs4lp6CJhWWfJGYZAsOTgWmtAheAE3T7e3tXq83Ly+vvLz8kgXi8TjP8+FIBK7KZKBknEjK0REc/ZiN4gAgVbETfScZUA+xIht35nsiAAAWGygiZcVs8TNhDANOjYVKSRCPV6Mw4GV6hqWBZQBQMkQEFyk4Qj5Btg8AUMCJZBwd/eJGBDGWAYlmwh4pHgM+bZkfMOg+pQsAstV5EdDaaRGtOXLwP3KD8LXPT+AxSJ4BI4jgmBIIBF599dXU1NQlS5ag1beHEwqFdu7c+emnnzocjqGBIeaqHFjxMB4L4yLZ5w8bKeMAIOIhJnjHtqwuRublQ7M+vzsZXaylOk56uK2/UwDA6rejinq6SoMdXT0uzyEHWMhOEhQQFA8AOPBiGRsN4Gxg4oY2ccBjAUIk/+JGqHmChLB7gm4EAWzqDX5LldvZrmj7pwF9SQKTf++QqTC459f5IZBMeKx8asEjn2DyctfAVbpmRNBut+/bt6+np+f222+/4YYbLthwHgAkEsm8efMyMjKi0ejxQ8f/cPIPV1GLD6hAr0iZEieBjwGvzomTIq7riGKCRdDSwpBu7tQKEUqC0XpZwsdzChyMBADENTjVz4n849WoGOC9J6USBSvRchjwIuBSCmO2EzK/feJ6ix8oT7dIlUJTwGJAKnNpuYHpPKSgx196JBA3LfNbrvP01WmcB2UiYBXpgVCfqPABh0jKnd+R4q2Xpd3gdRxRxGHqz4YYb64BjUvKtSGCdrv9+PHjNTU1q1evrqysHL69QAK0RWlmZiYAhNwh7KpiPhEgBveJbQsUJat8USehzY57+8TW/fJxSRUM8vndjKGRwWy88hybfZ7uziWBwsDFirw8L8bc6Z/fHbuRMKaxinpm3sEYh4HYzjF63F4wXveOAcwPorZDSlU6PaPSK9GwdBSzfSYPTOAmzjHAh6rF7UeU+TcHQ/aoPj8WdpFdO+XjnSooAjpjrfe6b1kJkiclnKkkwLFYcFCssYRzZ7vCPpFYzmRWerUZ4eNN2XHPRIigEui0BdGUaTGVmc6/LtB1XBECYkqoD4dB8pWlhcDIWODz+err6+vq6rRa7R133CGXywOBAMuyWq12zOviARuixXWva7NXhBkTE3KR9lMSF4jHvCIAgDiv9PN4FPjpOI+D3sl15wAASMIQMRFxKYDo844+lE4MllLiIV7VzXI4cFIIZePnSsbv3mEsQP2zOsstQWNJLB7EO48q7P2S6ARmqPGAeUB04o8Gy41BmZ6NBfHBBolz/N1wBHBSfVyhjQ/ZZJq0CEHwAZc45BCn5geYKIkTYCoMAAfxKAn4BA0PJMCK1Vw0iLu6xNqceN9xNjQFUgV5AOBxSDZ3WAiMjAEMw9TU1OzatUsmkz3++OMymSwYDNbV1UUikdWrV49HjWEgWztUrR2q8Tj4v6DDT1eKoPJCayKaSRzL/NdeTmFNFVRTxcQZYgDQB9K+rdKJrPECokC09yjaX1VMZKUREDe8kdHwRsYF35/9W/pENmM4QyAZ2i6p3a6frAZcEozDgIdRGKSCCH45IpFITU3N66+/bjQaFy5c2NXVhWGYx+M5fPgwhmHjJIICAgKjYzQCJ4jgl8Pn873wwgvHjh2TyWT19fUEQQAATdMYhi1atGiyWycg8LUnafB3gkOKV8WUFkGpVLp48eKZM2fy/zo7QqPRlJWVTVarBAQEOEDJlIIIjjNqtfo//uM/JrsVAgICF/L5EjLJ0wCF4bCAgMBXFR5LHvyd8MlWV4EgggICAleNYAkKCAh8beGxa8LllxRBBAUEBK4YHi32nTwwIliCAgICX1lG4RMUZowICAh8ZeFGYehdAxooiKCAgMCVwwP2+e5PI5N0cvEUQBBBAQGBq+ZasPSSIYiggIDA1TEKn+C1oJKCCAoICFwxPADwvLDHiICAwNeZ0UybuwYQRFBAQOAq+GJz4ZFJvhPT5DNpImiz2UKhUHFx8fhVgQFxdYvsjwny39C37vZNVu0I/fNB0jBxW8RdDHcWt/9WlrzceDcDYjTaRnMy28BcEw6yK2A0Cyh8PYfDPM/39/czTJLN3o4dOxYMBsdPBDEAAGwSRZADlj81ybOKqOdZrnwyeyGh5uC3k1j/5/DAsRCZ3DZggMHk9caxhxvdjJFrgbEXQZqm9+zZ4/f7Ry524sQJlWr8l7AXEBCYREZnBrjd7oGBgVgslpeXp1Ao0PLJHMdFIpG2tjaWZdE3CJ1Op9fr5XL55zXwvMfjGRwcDIfDACCRSIxGo8FgwPHRvnLGXgQjkch///d/Dw4ODm/3xdA0vWrVqjGvXUBAYIIYzVJayTwAPM+HQqFDhw69+eab/f39v/vd78rLyxUKBQDE4/Gurq7vf//7sVhs+K5qS5cuXbVqVUlJCfpnMBg8dOjQe++919fXx/O8yWRavSA8tQAAIABJREFUvXr1LbfcotFoRnkeYy+CBEGUlpb+5je/mTNnzgjF3nvvvaGhoTGvXUBAYALgYQxWjaZp2uv1/uY3v/H7/S6Xi6bpCwqQJDlz5swlS5bMmzcv8aVUKpXJ/s/RvHXr1n379mVkZPzP//wPAGzevPmzzz7zer2PPfbYKJsx9iIoFovvv//+WbNmZWRcuGXXcFauXOnxeMa8dgEBgQkBAx6DpFG3ERdVZVk2FAotWLCAIIidO3dWV1dfXEYsFut0uktuNc7zvN1uP3LkSDgcXrp0aXp6OgBUVVV1dnbu27dvw4YNZrN55PEoYuxFkCTJqqoqpVKZ+CYWi3V1dblcLo1GU1xc3NfXJ5fLMzIy0EbpAgIC1yZfdjhMkqRKpaqqqorH46dOnbrS6lmWbW5u7uzszMrKmjFjBvqyqKjIbDYfO3bs7NmzOp1OKk2+bezYiyCGYXq9PtFKtE1wdXX1wMBAaWlpYWFhW1tbLBazWCy5ubljXruAgMAEMZpVZEYcMpMkqdPpAMDpdF6uTCwWs1qtarUahUe0Wq1er0fSxrJsa2ur3+9Xq9VGoxGV12q1Op0uHo83NzdXVlZOjggOx+/319fXf//733c6nSKRiOM4juOcTufbb79dVFT0rW99q6ioaFwbICAgMC7wowuM8MDzfDgcDgaDAIBhGEVRFEVhWPLcGgzDeJ4fHBzcsmXLBx98EIvFxGLxvHnzVq5cWVJSgvRkcHCQ53mZTJYY9uI4LpVKKYoaGBhgWXY0pzK+ItjR0fHaa6/dc889CxcuPHbs2NDQkEgkWrNmTVFR0d69e3fs2CGIoIDAVxmG83q9//Vf/yWRSAAgJSVl2bJlq1evHk3oFsMwsVickpIyd+7c66+/Hsfxjo6OX/3qV+fPn7/zzjtRbkk0GgWACxx/OI7jOB6NRi/YqvdyjK8IxmIxr9e7fPnyoqKic+fOud1uAJDL5QUFBbW1tT09PeNau4CAwDgyqhQZXC6X33fffShMKpFIzGZzIsVvZCiKMpvNDz74oMFgMBgMGIYpFIoFCxYcPHiwurp68eLFACASiQCA4/4lQMPzPMdx6E+jYXxFkGXZWCxmMpnQe+D/aiVJhmFQcqOAgMA1CTeKWXE8LhKJ5s6dW1BQcKWHxzBMJpOVlpYmvlGr1eXl5QcOHOjp6fF4PMj9h2FYLBbjOA5lR/M8H4vFWJbV6/WjCQ3DeIsgjuMEQbS2tgJAJBKhaToYDEaj0b6+PrvdTpLC8g0CAtckPGDw+We8iMViTqdTLpfL5XKKotCXMpkMmVDRaJQgiKysLIlEEgwGQ6EQykgJh8OBQADDsJycnFEqzPjKkFarLS4ufuGFFxYvXtzd3e3xeOrq6qxW644dOwDgpptuGtfaBQQExpekPrcvIZJDQ0Pvv/9+YWFhRUWFyWQCAJZl7XZ7LBZTqVTI0CsvLzeZTG63u7Ozc+bMmQDQ29trt9s1Gs3cuXPFYvFoKhpfEczLy3v00Uefe+65v/71rzabjeO43bt3Mwwzc+bMe+65Z+3ateNau4CAwHjBjW7GyJdYRSYcDjc1NTU0NMjlcqPRiBJLtm3bplAoZs6cqVQqMQzLysq67rrrjh8/vnPnTiSCR44csdvtCxYsyM7OTtiPIzO+IiiRSDIzMx966KEbbrjBarX6fD4cx1NTUwsLC4uKitRq9bjWLiAgMI6MZimtUfCXv/ylra2tpqZmYGDglVdeMZvNt91226xZszQazYIFC44ePfrWW29t374dw7BQKGQwGKqqqhYtWoSSbEiSvPnmm2Uy2alTp37wgx8AQDAYnD179sqVK0epgDAB6wlSFFVaWpqTk+Nyufx+P47jJpNJrVaPZrjOsuzQ0FBzc/PAwEA8HgeAWCyWnp5eVlaWnZ093i0XEBBIQtJpc6NQyYyMDJFIlJ6eHolEdDqdSCRSq9UYhqnV6oULFxqNRofDQdM0juMcx2VmZpaUlKSmpiZ+npeXh2GY0Wh0uVwAoNFoioqKEssrjIZxF0Ge5x0Oh91u93g80WgUwzCv15uSkmIymYZPrbsk8Xi8qalp165dbrdbJpOhNXMoivL9P/bePDqq68r/3ecONQ9SlUqz0CyBhEDMxgySGWODIR5IjDPZK0mnf/3rTN1Ju193kk56rfZb6fZ6nbx0fmm/9HIGz7GNh3gKGLANWAxCgBBIgOaxNNU83PGc90dhGWNbKiTdWxKcz9JywtWtOlt1b33vPmfvs3cwaLfbJ/alzK69JlDdIInAAAALRAQ2CDwB0LMiJg/YAqoJVAyIAESAEyCpONd0UAiKEvAiFAdcAOBGBBMkAQwCA4ABEALiAWIBxCAUJGgcCAJEAFjAToA0rT4WFogZVAsoBIAAkoEJQrLP9tnCANgEqhkSSbcoBlxMuwvxGbCA7aAYQFUAsUAIoDDwou5mfArJRIeTKOn7WbEBjuMKCwsLCwsnfznLsuXl5eXl5VOP9BloK4IY43A4/Morr7z44ovnz5+PRCIMw7jd7h07dnzhC19Yu3bt5C6rKIpnzpyRZfnee++96667VFUdGRn5zne+s2/fvvT09B07dmhhc15JbPv/PdB72goAafmSt9Vy5DdZoq7lMEkWCOVfDmcuFKI+jjPhC39ytrfbiTYqTOLAtID4B1Y6wdn+TSI7AQRAPUT5A6caCcIIANi7FahC2Ey4M0h+m0F2gkREeMKuxXgTQYwWhhELqBVbQ8W3R1SJwQT8PYajz3owgI5PI+IGsfyBcG5NPOrjGANpf8veetaB9S0QbQdl+TfGsyrj/h6TLUsmKpx7ytXRbtPofkgSAknuGJkHVVe1FcHOzs4//elPL7300oIFCx588EGHw5HY6XL69Gmfz+f3+3fv3j3Jyy0Wy/bt21mWTcSGWJbNzMzMzc3t6+ubZLPhDIl3cp0Njg9+kSkDWvvNUU95vGxtqLXBqdutzwFZ+p2ANUN+60e5CjC7H+1fsDEeaueHYepdkNOAHQUyhvhNqnyZRQQIANsLwqM8v15l1xFsAXQMxX9kNP9GYmOgNAJCwPxvDBjI/8vg91mmVCXFGlgFkFUgbPvHwac2F/vBuPSewII1keL3or2DFlnHC1H1UCh3Sey1v8uXAW36u+GC26O+s4YhbS7EZ2EEdfSCqf+otbfNwgB88bfdJZ8Lj/2XMQDJJgNrAkkuMJLi2upJoa0Ier3ew4cPf+Mb36ipqcnIyDAYDISQeDyeqHVz8uTJyUWQ5/nS0lKGYRIOY2JT9ODgYFZW1g3N+W+IcTCe/oU7DBwAsAbCGYng5fR86npANLtUKcqGgSOARjtNNo+cfbsw/IEm3z2cCUw1gW7E8FdvWBIF8QBn2KEQDxA7MGkkeowzj0gQBBJimHSSmAIjO6hdwF4CLUTQBoq7RlBlFAEuAqy/k8+s4kp3hQb/23x9zTnNSAfJ5pGlGBMCjgD4Oo2ZC4W8zfGhg7qKYAAMsQZOASQABwAcr3J8KvvGfIypCyjc8p6goiiiKG7evLmkpOTaSEhJSUlXV1d3d/fkL0+kjAOA1+s9f/782bNnu7u7MzIy6uvrZ7IEMPmYIrDjwLhBKNgSc+RKox3m0S7T1K+bPZxVEsvhaIRPKG/Yy6YVCPZ8zb77NoQzgOn/6GZFPLAVGKIIJIIEIAGkAoIwgBEQS0gIAcYIA4khdRSRUU3ucgsolkw1FuRVYACQ4OWkKPKUiqyOroU9W2FNRIywiQsRGeGya4hjgW4ifBUR2MQKIAfYDWLMz/u7TRquEScPTiYwoochM0TzFJns7Gyj0Xhdvf9EHbHk61+Hw+HOzs6TJ08Gg8GVK1d6PJ5PNhBQVXVsbGx0dFQUxfaOdjyDjx8BsaSrWYsFhoXoqO4L4QYgCPCHvQqxwiAEye3/mR1IOpjvUiAATA8QG6hDH1b8yCNsHlHbENsNBAEeR0TQ6jnPALAcIcqHzqkEhABj0NWvYI2AEOAPC5EQGRAClkvN15oF7ASp5P7w0AVz/+vmOSGCADBlhYJbVgQlSUrUb+A4Li8vr6enx2w2J5IbAYAQ0t/fL4piopRYMiSiPw899FBjY+Ojjz7a09ODELrjjjuuPUcQhEOHDr322mter9c/6ldginZ3n0oi8QkD6vVbe39hu+3e0cLbwoTAiec8ql4z4mgfCyrwRhWAACCjXVUkJh7QLzKDs4H5Xyq8wKiNCKwAEeABIw/gEsQwmDUR9XkG2QlgxC/EKJNosVYgAhJCDG9LLLwTPg1zPERGdZ0HxnsYLCPefHX1y+ggqoJi/hSoDwLiAKVoezR3SfzITzJHwYRAk4/9xiDJ7B3WxZKZMfsiKEnSM888k+g2F4/HAeCRRx4pLy8vKSlxOByJAmGNjY02m23yBcFPYjAYVq5cuWXLljfffPPll1++TgQtFsuuXbs2b96squo7bx78h2/8wzSMt4Li5CRzIe7osBGAmI+VJcaZpzAASVUmmw2842ZFZGwZCgtEBZS7OB4Z47xv67cOhRSAMYTvxIwJkTgwTWDeKYMTAAOxAqwiaCdGCNj/gwkPeJkmNoTA4L9kTMuRDKAi4Bzlsj1Lbn4xTdIxTD8KRinKZJTFExfCszCuimjwfV0XBBN4QCjeFbVmyu/8JAcDZEJcAWYcdF2l+RSS2Q1ya/YdliRp3759qqparVZCiKIoiU7EwWAwEd8QBEEQhEAg0NLSMuW7KYrCsmzChUzUF1uwYAHLsv39/ZFIJNGVKgFCKLHXGgDcLte0P/u0lVLV3UF3o0gw5NTExCDb+qxT0fGpKwJz6XVHwbroxodGxQCjYtR/2jJCNLvjxwnTDOphJJ9j5PcZLleBXIALCHUwkA6IBVDB/LcK8RCiIHQWKUdZbrFKMKBMwlQSnK7JRyMDGj5nOvmkp/abASHA2LOV0Q5T9wmbnhdCAubKGzZ1O9Q9PCIGWKMd95+yeEf0FkEnSGv+YaxyUzDs41yFksGsjnWYLr/oGE95m7JkPMH5gCbN1wVBWL169eSxi2PHjk1Z9zUUCj3//PPr1q0rLy+/NqMwUaE6+b6iySMBO37c1JWOw/08MCCGmGgvPzho1tOpJ4B6z1mjXZxzsSRHGV+7YbhFy4VwHsAD7Epi/4mEcgE5gZgBLQAEBMxAjABmwIuBGBHIgHKAW6yibAAC4CGQC4jXJnsRUAj4079yZa4SiApjbcboeT6sfW7/dTYMdFiE/8O51otSmPFdNoxeMMV1X4xTgBk4bRUjbMzHAQDLkvEOQ2hU77zxaXJrRod5nq+rq9u9e/e1hcA+icvl6u/vn/ytQqHQH/7wB1VV09PTc3JyEpXC+vr6ZFnOyspKpnvAjSIB4wWz960UTHmuJQxcOMTBB0nVnpwpDoQXAywGuJr7xQAAqQWo/dhZCACMgGsBanVa55GAGQbT8KlUTvqiwEWB6z1qmfpULW1oOuiCgyk04bOYnb3DKWf2RdBkMv3zP//zJ49fV+p6yZIlpaWlk78VwzAmk+nIkSO5ubl33HGHqqr9/f3Hjh0zGo1r165Npk0BhULRApQIF025Uj5nMhonQaf5RaLtXCwWm5DCt99+e2xsbPKcZ7vd/vDDDx86dOi3v/3tE088wXFcJBIpKip68MEHE8W1KRRKykhG4OaDq6itCMqyPD4+/swzzzQ3N4+PjyvKR2krg4ODifpfk2CxWDZv3lxdXR0OhwkhCCFVVV0uV25ubvI5hhQKRRNoikwyDA0N/eUvf+no6LBarUNDQ6FQaO3ataqq9vX1ud3uKZuvsyybnZ39qc3nKRRK6pkPGjclmovg/v37N23adNtttyXaozzyyCOKorS0tCT6w2s6OoVC0ZBkaijQNUFJkiKRyD333JOdnd3c3Ozz+RL1YPLy8vx+f1dXl6ajUygULblJSmlpm3/PMAzHcYkwrqqqkiQlCkQDQCAQGBkZ0XR0CoWiFfjDNiOT/+B5MGHWPDqsqur+/fvvuOMOu93u9/t//vOf19TUDA0NNTQ0eDwerUenUChagBJJglNK3DzQQI1F0OPxrFu3rre3d3x8vKSkpLCw8K233mpoaIhEIgUFBStXrtR0dAqFoiHJlNefD2g7Hc7Ozt6xY0dRUZHBYCgpKVm/fn1ZWZkgCE6n8/bbb1+/fr2mo1MoFG2ZcjpMPUGHw1FbW1tbe3UHVl1d3caNG8PhsNlsRgiRKYuRUSiUOcvNEh3Ws38QAABCyG638zx/4sSJ119/XefRKRTK7HA17jHVz3yIDs++JyjL8v79+6PR6OSnnTx50mAw3HPPPbNuAIVC0QOcRAGF+TDZ06Se4IsvviiKosk0Wf2P9vb2srKyWR+dQqHox3yY7U7J7IugqqqXL1/Oz893Op2TnGaxWFg9G2dQKBT9mQ8qOfsiyLJsdXX117/+9TVr1kxy2nPPPUd3jGgNiSAIpHJCQgSk96rzpzE3opRzYHVs1i/GHPhYZ87si6DFYnn00Uftdvvkp919992yrGn3QoSASemdh1J+j4xvt6T2m4fWovZTKa5QCwCFB2X2H6fTeGsWYcCIwJhaG4Cd1e87bb7+WSCEMjIypjwt0QxES9A1/71FEYFBKf0EuCFoLkz9okdehpJ6IwAxuidjXM/sjk8A1KlEbj5kU+vatIFCodwcoCQzYG5NT5BCodwqzIe4x5RQEaRQKNMimXjTfPAEU71IQaFQbmLmg6uokycoimI4HAaAjIwMVVUZhqG94iiU+Q2eH47elGgrgolG7O+//35zc3MgEKiurt6zZ88777wTj8crKysXLlxI86UplPkIgg/3Dk/OfFBJbUUwEolcvnz5lVdeOX/+vN/vDwaD9913X1dX15UrV/x+v81mKyws1NQACoWiCYlWc+pU87n5kCKj7Zpgd3f37373u0Ag8OCDD+7YscNmsxmNxr/+67/evHlzV1fXG2+8oenoFApFW26KeoLaimA4HO7t7f2nf/qnL33pSxUVFTzPAwDDMJs2bSoqKhodHdV0dAqFoiHJCBwNjCSaK2VkZDidTp7nJ4IhFouFEBKJRDQdnUKhaMt80Lgp0VYEE6rX3t5us9kmDmKM29ra+vv7aVSEQpnHEHJz5AlqK4I2m62oqOjQoUOBQKCzs3NoaKixsTEWix09enRkZGTJkiWajk6hUDQEA6hTnMJTESwpKXnooYe+973vPfnkk6IoMgxz+vTpkZERjuO+/OUv79y5U9PRKRSKhiQR92CTmy8riiJJEsbYbDZfN0EkhIiiqKpqoiURz/M8zzMM86kvBwCGYRLnJP93aCuCdru9trb297///YEDB5qamsbGxnier6ur27ZtW21tbWZmpqajUyiU1MIm4QlijI8ePfrcc895vd4f/ehHVVVVFosl8StCiNfrfe65506dOiUIAsb4jjvuuPPOOysqKiZeLknSBx988PLLL3d1dRFC8vPzt2/ffueddxqNyRYu03xN0GQylZWVWa3Wuro6URQRQjabLScnx263XyfnUyJJUktLy/PPP5+enr5jx46amhqNzKZQKDqgKEokEvn9738/ODh45cqVQCCQULrEbwkhwWDwV7/6VSQSqaurq6io8Pl8Tz75pCzLO3fuXLhwYeK0AwcOHDp0iGXZ73//+wBw+PDhgwcPxmKxBx98MEkz9Ng2x3FcQUFBQUHBtQebm5v9fn9dXV2Sb4Ix9vl8L7zwwksvvVRTU7N69WoNLJ2AMAC1W32sEQ++bhkArUsfXo8NFLdFdC6V5RBDAIYvGP261+PkQC3IimeuFoUAc+5IuqZjOQS8qBu7WlU2Co27ea+dcQi4dIjknFGEDMRFQHHCWCHbnH91omSTcEUfWfC2HKhleqq5rjStMr2soLhAct0mSVFEMBq7YBzT5UKwgF0g5N4bsWZJLb/xhMBoBSn79ghvx3KEMTpV0ccNHLfFgUtlvcgZb5tTVTUUCpnN5rKysqGhIZ/Pd+1vw+FwY2PjoUOHdu7cuW3btsLCwkAgcODAgZMnT3o8noULFxJC/H7/4cOH+/r67rvvvvr6egAQBOGFF1548803t23b5nK5kvG0tBXBUCj0WTX033jjjXA4nLwIhsPh1tbWS5cu6ZBYwwDxgFC7d4w3qIj1DLyqqwgiILnlscL6GGIh7mc9lQJvtkcbOQl0DaY7QS7YEl30uaAQYrUWwXwfSW9TrW8rqImkbea8digaJtmnFcsBlVnLGoYwqGCoIldFkJCiUZLbIPM/U9J+wAZzWUjTxCoEJDtbKLk7wnA45udcRZI5wxp+jxO1vxAmkDN3RCu3jJWsCvQddoTajI4FUulmvxjl4n7OvUAgBAiQ7uNpOEUiiAgwBPBUS36GSU9ACLEsu23bNoTQwMBAS0vLtb8NBALvv/9+NBotLS0tLCxkGMZms61bt+4Pf/hDS0tLLBYzGo2dnZ2tra1ut3v16tWJXJQlS5a89957+/fvb29vX7ZsWTKTYm1FsLm5+cc//vF1i5SEEFVVR0dHV65cmeT7EEI6OjpefvnlXbt29fb2amDpRyAgVlDX/suIKiExdgPLq7MFD7j6i0GjRX3hnxaowDzwbz35a2KBRkMfWPQ0I6NGDA0YRjtNDo+k9ViuQazyIC9lDE1Xw43ZF1XLCVWuZc7cy2ePkaLfifaXVbgXAMAkkdwziuk9TNYzRMvrwwGp3BPKrIw/9bfFCqAd3xnKWxHznTL0xDR/KDryZcSSzhNpRStCExsaImOGE7/JVYDJrwjXPDC68qvevuPOFCbq8QTUqaLDzKSuosFgyMvLA4CxsbFP/jYUCp05c8btdqelpSUcOoZhysvLeZ4fGBjo6+srKio6d+7c+Ph4WVnZxEQzJycnOzs7Go02NjZWVVUlI4La7hgRBGFkZGTRokUrV65cuXLlihUrli5dWlBQEI1G8/Pz165dm+T7DA4OtrS0BAKBO++8MycnR1ObHSBXfC44dN4y3mkSQynIZMw2CJwBR8d5FRAADLaYjU6ctU3Q2YzO8/bRdw2KoIej0VjD+hax2PzRWIoFiAUxAWLAYIhibEdqydXfbnhX4eIQ38Qip7bdEzwg8jYcGeUVQAAw0mbijSRvW0zDIT9kpN/S/5pdjrLkQ5Eb6bWc/k2OAgwAIAAVM5IwD9JsJxfByRFF0ev12my2iea9DMO4XC6TyRSJREZHRwkhQ0NDGGOr1cpx3MQ5ZrM5IZSKklRjGW09QY/Hs3Xr1i996UsOhyNxBGMsiuLAwEBra2uSydKqqjY0NLS0tOzdu9flck38tVpgBsVTLqQXiWf+221+WDU6p3rSaYBtkYJYkGMo8RUXAhxviltcevcJkoFRASFd8rwEIyMaybWl2gcrWD5EHE+pNc+LfCchFhRZw4JKVrUrhjEi5CHJzljemXL7/oywFKgcT+TY1XZdQpBheGLJ0OOWUIFRgLl2xU0FRgUGASDAWauinEE9/0KmmroFQUQIg2Hq20NWw+HwY489llAAl8u1cuXKtWvXTtmIDQBUVY1GoxzHXSsURqORZVlBEOLxOCEkFosBwHWawHEcwzDRaDSRVTMl2opgQUHB3r17lyxZcp1TunDhQr/fPzQ0lMybNDc3d3Z2ut3utWvXTqKAkiS1trZevHgxHA5fOHNBhemoRgYnZq+OGe2qp1Z0l4quBaIUZRYcjvSHrLotvmAZEIGJVpWIxSSJxZebDNcYMQxhtQykPAZbiOEKtlxUF6zjMhtVbpwYDYxpSIV+wloh86JSZYaL2bPvFmEZCAH04RsjFggBrK3wTgYBggBK1gaNTmXgjKOvwa5CKqtyMkmkASZW/QoLCz0eDwDY7Xa3252kH4MQYhiGEHKtlk38c2KC/MkXXntCMmgrgmlpabW1tQAgiuLEwYTAj42NjY+PT/5yQkg8Hj927JiiKOvWrUtLm2wBXFVVr9fb0tIyNjbW392Pp7WtkXUTVWb8vYa0Esnmli0O2e7hnEul/iMW3RrXhS/yWAGDhSAgBJAtQ1XibHQoBauTKST9omo6QQL3ss138CqGDf+PyP1ZNX0FgwJqGoMwcF4Mo4TJQIYRsEQ18VcjXlaVkNGmIiAEwOJWsIzCQ6npSEGAGAC7XPG8NWFfp3ngNRuT6i1pDJk6DZBDjMVi2bNnz7WZfUnCsqzdbpdlWb1m6TEejyuKYjQaLRZLIt8OISTLMiFkojSBoiiqqiafhKftFY1Go9fFMRIebFtbW3Nzs8vlmvzlsiy3t7efPXt26dKly5YtS8SFE/N8QRCi0WjCN0788Wazefv27du3bweAN19+88z+v5qGwd3Dtu4/2QAIA8RgU7Kr2d5G24UjusbgRsAkRjhLumICVQHGs1DwdRq8R0y6GZAAAWGBMDxhOOAAK4AIgFYJGSrhZEAyARlMIoBKGAFAJKoFGWWIsUBMAFYk8swbXzECg0Alt7Wq+eeIshgNrmdPF2uyOuYDY9zPpuWJJlBVYDLKRTHGDL6tTxtlwgJhecywmLVgBIQF7CmObvpJb/NrmX2v2U3pas7awKU33SmbERNgMPBTeRocnr5Sm0ymvLy80dFRQbi6II4xHh8fF0XR4/FkZmYyDJOXl8eybDQalWXZYDAAgCzLsVhMVdWCgoIkXU5tRbChoeGb3/zmdQcxxg6HY/Pmzffcc8/kLxcE4eTJkyMjI6+99tqxY8cSB8+ePUsIeeyxx1555ZU9e/YsX77c7XbPrtk8kPJVweINYU9RnDfjcDffesqpmw7KgJp/nVb2QOSunwzF/awYZXqPWEd0zxPMhXj1/woVr4qYXcr6r42e+UN6ELTyRld0qjknVONhjAeh5FmJv5cbWcV4COd6Rll2HrNBAgTiX+F60q6K8G2X1ex3ZDiCeT+T61FkA9Kiu7ECqPX/cypfYXb8y0DUz3Em3P2OfRj0eBqlgVD6Ff+iLT5Hprjsy8NqDPEutf7bvXlVofQCQfgay/EkNGxofzM+XJNiAAAgAElEQVRdTV2bIIZMHfeYyZqyw+FYsWLFU0895ff7McYMw6iqeunSJVmW8/PzCwoKWJZdtmxZRkbG+Ph4T09PeXk5AAwODg4NDdnt9tWrVye5aURbEWRZNj09/atf/epEYCSxhyQtLW3BggVTlpW2WCybNm1avHixJEkTnu3g4CAAfP7zn1+zZk1hYeG19WlmCxXQwClrtJs3eLDYzwRDBqLr8xYNxU2R33FmUFVABCAEvP73ug8M536T1rnfxhqJ/yIfA45otiIwkM2o65FjIcN/nURzmcEcRuEg6mTSa1jRBowMmIeIEwFzdfzBXEa5i3csZxUjCmUxY26N7ELDYIw9yVo+vBAR4BVdLkQUDB1Ppo+ctjY+lR1qNwS6zAjIoViRIU1VRYaogBBIQUZOaaM0JgmNQzNYy3a73du2bXv77bcvXLjQ2tq6aNGiYDB44MCBvLy8VatWJfy+4uLiFStWXLhw4fDhwwkRPHnypNfrXbVqVVlZWZI7iLUVQZfLtXbt2qqqqurq6oQOIoQMBoPBYEgqk5vjSkpKSkpKrj2Y8PsWL168Zs0ajczGgIJgCI4aIEVVX0VgdcjInZw4cHHghjs+OqLdc8BrZ7x2gKKP/cnDFoC8Tz+/18n0Ohm44VWmG0YCdhzYKZauNUAGNgDmwEUzXPzoYLTJoLshk4EwcFNpXDIi/eabb3Z3d587d87n87311lsXLlyoq6srKyszmUyVlZVf/OIXOzo6XnrppZycnFAoZDAYNm3atGrVqsRrrVbr9u3beZ5vbm5+/PHHAeDy5cuFhYX19fXJu0eae4I8z/f09FRVVTmdzpm8VSwW83q94XA4GAwCQEdHR3Z2diJzcpaMpVAoN8bUnmAS0+ErV650dnaaTKbq6uqRkZFwOFxVVVVSUsJxnNVq3bNnz+uvv97c3Dw8PIwx3rRpU319/bV7cFesWIEQ2r9/f1NTEwBkZWVt2LBh48aNyf8V2opgb2/v008//e1vfzvJrMVJGBgYePrpp8+ePZuItPzxj39saGj4+c9/7nK5aHFWCkVnEAFEgJkyRSYJEfzud7/7mS9HyOPxPPzww5O8nOf5NWvWzGReqK0IOp3OlStXfulLX1qwYMEM36qoqOi73/2uJEmSJMGHPqbb7b7RUjQUCmVWSCZZeiZrgrqheWXp0tJSQgj+RLLv4cOHh4aGki93w/N8erq22/gpFEryMATYqTJgZrJtTje0FUGDwWC1Wp966qmysrLMzEyTyTSR0HjgwAFRFJMXQQqFMteYFxo3JdqKoCiKQ0NDzc3N+fn5ubm5NpttYvZ68eLF6yoMUiiUeQTCU8926XQYhoeH33nnnSVLlrAsOzw8PDw8PPGrkZGR7OxsTUenUChakUz1hJklS+uG5j1Gli1b9u///u+fbCfy6quvjoyMaDo6hULRCJRc3ugtKoKKojQ2NgqCkJaWlpGR8dOf/rSiouKT+1d27NiRKINDoVDmKdzMiqrOEWZfBGVZ3rdvn91ur66urqmp+az8nURFWQqFMk9h8dR5gtOq5aQ3s59kpyhKU1OTKIo2my2xv49CodyEkKsp05P8zAtm3xNkGMbj8dx5553r1q2b5DRFUTDGVCUplPnL1MHf+aCDmmy3QEnUu33vvff+9Kc/aTE6hULRgWTSX6aeL88BZt8TxBiPjY0dPHhwYGBgktMaGhpo7QMKZf7CEGCmbLgyHzzB2RdBQsj4+PjBgwfPnj07yWm9vb2LFy+e9dEpFIo+oJslMKJJniDDMAaDYfKyrjzPJzNrplAoc5YpQx/zwRHUQARZli0rK/vbv/3byQMjzzzzTGdn56yPPgEBMvHfFMHMAY1P9U0Yg8Jgqm0AIBJKYRn6BAzA9Jp/zSazOj6ThCeopv7iT40mnmAyLt66desSjeg0g2CQU9iRi4UsBlJc9kaFHgLi1OdpZ8AIWl0updCABIGVtrefyE+tDRt/NeQ+40+tDaDOWvfqJNNfEE75c3hqUtM/EABycnKu7aSnDan9/FkEKU8ASnJ3k1YQgBQ2CP/IjAEGcvXuVHUdip1N/QrZ7I5PUv8HzQqaBEaCweC+ffu8Xu+SJUsS3U8+Cc0QpFDmNSi5oqpz3xOc/YUShmFKSkqGhoZaW1unbK9OoVDmIyixJqiSyX/mxaaR2fcELRbLr371q1l/WwqFMqcgiCRRT3AeqCBt0EGhUG6cJCqqwi1bSotCodwKJFNZel5ARZBCoUwTWl6fQqHcuiRTLIuKIIVCuXnBwEyVfP2JVrtzERoYoVAoNwwitMcIhUK5taGBEQqFckuTVN9h6glSKJSbGESmELl54SrOdRFUVVUURVVVr61Mw/M8z/MMQxc0KZSUwSQRGEHzwRWc0yIoiuLFixcff/zx3t5eh8MxcXz9+vV33XVXSUlJCm2jUG5pcHIlZKgnOEMIIaIoZmdnV1dXL1u2bOJ4ZmZmZmamRoOaQc3JjhfcEVMEpMhorNHU4bVpNNY1kMy7/FXbB8b6bCxHzDbJ12cdanDd9tdXWB4nHqc8j52Zsdd+tjx43KZpgSwWsA3UJXt9WEaKwvAmNebjWvc74ym4WwgDZMPXhm2Zck+DreWoS6txVAJxxdoYqbgcC2QbunZ5PvpVQObORTY8O374W5lQYwMMMCwtOhIIpvMMAVbBPekc3OYEXqt5iQHUsuXhovqoKjKHfp0lz52MDkyQPMUp82K2NqdFMEFGRsbixYvXr1+vw1gIiMcgrPrf453v22OjbP7auC0zGniC94EhuZSA6WNwyDan2H3Kg1iSdVvIniFIImswq+P9NkViWYOalhXNzA2zJs2frSwQG8gGGw70GqKDXMZidfkD474zxoFRi87fQBagfHm4cE3EaFNiAQ6OajaSSmBAygzKjsuiMaB27frweFwFr1jbHLV3B3NG0ocIgIQhKPMC9lpZbEHl3cL6/YGjxWbINIBBkw/HBZK9QHYXi9Y0hfm1Vs/+aUCjwzcnRsCZ9WLhqsgbP86LAOsokHOXxfPXxwJHea2Lg0Z6zVeOZ3U/lQ1AsspDuWUBo1258G5u/x8yFOAtJfG8rWNEZYQBgw51UlWA7rdto32mEPDFo+zmvx9MXyKNHDTpKYIsYCfIC9aHFREpssY3KiEg4a5MQ1Ym91EBPJXAmGwbkhTLNX81ArBwzStsUGoBG3cFQ/H/+OB+CdI5jUSQY0lkgA/0Gqxps1YXetaYMjqsixUzZB6IIMZYFMVoNEoIQQhxHKddVCQNJGeeFBoxyIAAkL/dkFklFK+PXjzq1LgKNgp84Ah8YEeAWVDMdhFjNHre6XvXCQAAJL02UlQ7fvqFYvGK5sVoJWC9YIE+AAAEhDERrCI5yGBdb2liA2XhF/1jrSbAyJGtcY1+Iws1duiIEQODxA+/2YLqbot6fPLZrekFL3ivHrRyUMIBmAEAVAIYCCAwMtp1lOlXLWIjKrg9qtH7TxuEydSVsuh0eFbo7u4+duzYk08+KUmSxWJZv359fX19WVmZFmMZDJi3YTl29YZWYwwAmNMVfb79HCh5XxpftqOH49XLjdn+d+2J4wxgi0s02WXfIbvWs/LrcIGYuVzoOObwNppEHe9oK6ieRYKrUDr6vMvoCGgugp9G5tEgALStS/vMj3xQLBqWgtutkG8C03z4us8uyeQJzj3n9ZPMaRFkGMZisdjt9tWrVy9fvhwA+vr63nnnnY6OjnvvvXfVqlXXniwIQkNDQ0NDg8/n67rSpcB0Pn5FQqrAsIarzzfGhAFAjLD6xPlVYEcanMcjZWXrhz0LwvkPjPY9lwUA7s+FLBli19kMou+DNR2kwi0xs0t57++ygtqvil6LyykUrI8gjlR+Pli0NuwuEixuefF636WjThlYzYdXCYSVjFHJGMW8SmwRFQEpbooOZXCwwAweAwBAv5DZGuMUcnJ3BphZuPX6xyIMaMr5kU5fnRkxp0WQZdmcnJytW7e6XK6KigqE0PDw8Llz586cOeNwOK4TQYZhXC5XcXFxRkaGHJWZaX1jw8BHR1ibW2GBABB7vsrwxHvepPWV5EA2LZYQT8JnbPFOs6s4UrpsNHthsA+yAEjmoqDFKbe8qGu/NBcIC+pjvAX3HLaOg9ECShxYSQcBAgCAWJAbOG4FACKj7MWcLcYIYS7SwesnxDy6WG0FEYORyRhTECDJwYKNAx6BTMArZrTFgJD2CjO4ORiTIJ3XaE1wbnL1MkzpCc6HnptzXQQ9Ho/H81G+Qm5u7rJly86ePXvu3DlFUTjuI/sNBsPSpUuXLl0KAG++/Oaf/vuFaYwYBW68zRgPclkuIerjHAskOcb0vmLVejnMUKK4l4acOUI3A8CA0ayIIivFOQAwpknWNAkrKHzaqqkNEyAgBsDVe4M5NbHRdhOOGUvWhEFCA2csuongOJjGz5sAiAXU/OGIPZuLjvHjQyatLoRKIK6CX+YCCiMSGJPAbYBaO2AAQR1DcQIQcbOQwYOZAb9c/W7A0S+NVBpHwAAXo8AgMDEaiaABVEeBYnMpRpvqBnEUTBIglPKQAwFGBTRVlRiE58Gy4JwWQUKIJEksy7IsO7FjJD093Wg0RiKRSCTidDqT6XGcPBjQ4CXLB/+dsfqHY1KUleNMX4OlHyyzOMSnjxtmrB5p0fpBV24EccSZIYz02tueyAOArDv9QowLDVh0C7UZAHsMwoa/8SKW5C6JLbt/HCE497J79IxJHwMmYIAUrQrnLIlmFItGCy7bHLpwME0TIVYJ9Ai156KmJomRSMWRwOXtLrBwIGHoFVa9FyTAZDbF2vJNUGyCXqHw6VEFeEuDUCIFcBrq3JvWVW6efasAAMADYvHnotlVcVuGsvyHvhP/4R4DzacmSUCAEJhyOszrYcoMmdMiGA6Hn3322aVLl1ZVVU3sGAkGg5Ikud1uh8MxuwqYIAJs6wfOjg/sBIAAKLo8yIRRw+Vf5HXuyyLDDDECYyXYiyTCA8DAs55BwHqux0nADEnmX29YhAAmxhWBkXR/pmNAV045e07ZOCAYkAiMVjk6PIJyy9kCE3w+AzCAmQEzCwyAiYFSy6mHjLDHA2YGTAzwDLj4N39fASwCBiDh6ZgYMGnlI3vBNP5b44nfuhkACZAILJ4jqSdqEoERGSDFDZ+nZk6LoCiKZ86cGRwcZBhm9erVGGOfz3fixAmWZVetWqVRlgwBJAHS/QuPFOCUXg4AQAQIffQLFVjQaxKagABSAQVT3zkeAJAMSI/kRITAgD59Pps47rzmCMeCWb8rogKjAgjX3ANzQgEBUBLBXzSpJxiNRru6up599llRFE2mj+YZ69atW7FiRWJXWCQSOXjw4Llz58LhMEKosrKyrq6utLR0Fh2gOS2CPM+Xl5e3t7e//vrr58+fBwC/3x+NRuvr67du3Zpq6yiUWxdEEp7gVPNyhUziCcqyPDY2NjIyUlBQsGDBgonjGRkZBoMBAERRfO2115qamkwmU3l5uSAI77//viAIW7ZsqaysnJ2/ZI6LoMVi2bJli9Fo7OrqOnPmDMMwkiQtW7asrq6uqqoq1dZRKLc2mIA4xSmTe4IJKisrt2zZUltbe91xRVG8Xu/zzz+fk5Ozc+fOurq6UCh08eLFI0eO2Gy2srIylp0df3xOi+C1AV8KhTKnQKq2NVODweAHH3xw4cKFzZs3r1ixAiFksVh27dr1n//5nydPnvz85z/vdDqnfpckmPPhawqFMm+ZOpv6swmFQo2NjQaDwePx2Gw2AGBZtrKy0m63Dw4OtrW1zZaRc9oTpFAocxakTJ0LrZqUcDj82GOPJbI7XC7XypUr165da7fbJ87p6el58skn9+3bhzG2Wq0rVqxYtmyZx+MRBKGvr89qtVoslkQYBCHk8XjMZrPX6/V6vZ856g1CRZBCodw4GEAGNNWWbgYjlmULCwsTWx7sdrvb7Z7Y48AwjMlkIoSkpaXl5eXJsjw+Pv7iiy8ODg7W19crihIKhQwGw8T5iRkxx3GCIEQikdn6U6gIUiiUaYEJKFN4ggxhLBbLnj17KioqPvlbnuczMjJqa2tXrFixePFiWZYvXLjw4x//2OfzOZ3O0tLSRF+Na7NhEv8khODZa2lMRZBCodwwKMnWw8xkKmk2m8vKyiYqQvE8X1NTs3Xr1ueee+7kyZPl5eUWiyUSiajqRyuLkiSpqsrzvNE4a0nYNDBCoVCmxVS19QEACTf2lgih7OxslmVDoZAsyzk5OdFoVBSvZuIQQnw+nyiKNpttFhtsUBGkUCjTAgMAmfxncldxeHj4qaee6ujoEISPxDIajWKMjUajx+Opra0VBGF8fDwejwOAqqodHR3hcDg7O7u8vHy2/g4qghQKZTogIFP+wKRbSvx+/1/+8peDBw8ODQ0BgKIo4+PjTU1NTqezrKzM7XbfdttteXl5nZ2dly9fBgBBEN59912z2VxTU3NtcakZQtcEKRTKjYNhSkcPAGCqEC5C6PTp0w6HIxAISJI0MDAwODhYW1u7bNkys9lcUVFxxx13DA4OHjt2TFGUcDh88eLFhQsXrl69OrGvblagIkihUKbNFNHhybeUZGdnf+1rX3vllVeefvppSZIQQhjjurq6e+65Z+HChQBgNpu//e1vP/300wcPHnzppZcAYNWqVffff/8n99jNBCqCFApFMybNpnY4HLfffnttba2iKIRcPdNkMlmt1kSNKISQ0+n86le/umfPnkROjNFotNlss1tBiooghUKZDkwyRb0mTeZjGMZsNpvNk9WjZRjG4XBMlBPVAiqCFArlhkEESCL0MflpU50wF7hpRRABQsAifcuRfhwZQ4p7xZIpG+FoDpoLGQj8EIEzs7bLanoYPbKpNNWXwzHrkjQPNG5KbmIRZBiwsKnrcaBCCMCXqtHnDAw7B8qrW0G+///qTa0Nhn8TB/4nhY9kAADyw1l+v5vDE0z9U5pCocxHkitvT0WQQqFQ5jY37XSYQqFoB/lob9xkzJGeUJNDRZBCodww6Op/p5ztzoPpMBVBCoUyPab2BMl8EEG6JkihUG6YJFss0ekwhUK5iUlmTXAeeIJUBCkUyjSZFxo3JVQEKRTK9LhJ1gSpCFIolGlACJAkNI6KIIVCuSkhgJKIe9DACIVCuWlBNDBCoVBueeiaIIVCuVUhSXiC84L5IYKyLMuynKivTQhhWdZgMHDc/DCeQrkJwYn1Pjod1oV4PP7ee+/t379/cHBQFMVoNLpw4cK7775769atqTaNQrllIQQwnQ7rAcb4mWee6e3tXbx48b333osxbmho6Orqamtr00gEHSAV3x2wuFRVQgjB6AVT5zknAOgW6bKCUroh7CoWIyO8JUORwmzXq9ZhmKwPw+zCAraBumSvD8tIURjepMZ8XOt+Z1yPu4WYQK2825+3LBwdN7z36/zE0XQQiu4NVm7xn346s/+YPa5XrVwe1KLl4dXfHIn5OUKA5Ykio9E2y4knM9XZ3nLKimAexY63VdQDwueY8XUsUsHoI+mHVCQBYQBUiK5lYgWMYgLLMLY3E2aIAABxgFCGAotTUrH1ZkiRmdN7hyVJamlpOX78OMuy9fX169ev37hx465du+rr6wsKCrQY0QhKzrro4rt80SFDqMfozBOLN4U8ENcz0m8B2ZyuYgUFu3l/h6FyW7BoV9QMim4GsEBsIBtsWAizwQ4eECx/YDzLI/DaF+tnANwL4haPnFkRLVgeShzkQTHny2kFUtHKgKtE5HT8XiVmc2KEGWk3j7RZFBnZXFpdCEOYmLoxRIF8AIZ+AgB8jLheV9h+ICbA6YDCYH9ONXsxJ4CllXCHseoGJRdxHWD9ABuC+ssNSe5nrjOnPcF4PH7kyJFoNFpSUlJSUpI4WFZWlp6erqqqFiPaQMmqjqXlCW370yRgnSXigmWhwnvDvn0mVS9PkADyvmeKB9kRMANA/Q+8GRWCGVRdHLGrqADdb9tG+0wh4ItH2c1/P5i+RBo5aJK1f2pyDhzoMYZHDGbn1UvMAZH62cCgIR7iiL7fKRWY4SbzB1eyh8JWDFBd789ZEu140o41uBmQSkAFpRLx9qvtJ9k4oH2Ad5PIKlZwoXQOM18E42ZCOGxoxzCIfBtZyYby2xXUDtZeLNXo6AySj/3PvGZOi6AgCMeOHbPb7RkZGbFYLBEYYVnW4/Gw7Kdcb1mWJUkihMTj8eldHFOGYrCpsQCXWPQVggxjILkrouf2ZWgiup/GGJjGgon/SxgAgkGNI0VHn10C1gsW6AMAQEAYE8EqkoOMFt/868CAelqcOcNRvI0FuPqRx4GPA286pcK3tB7/elRgQmAMhY0AwIPqyJMMZjwMVi3GimUxkpNxnlYMH97aSCH4CoAJqWZQTIhYQQHEjhGzCMwIkGICDDAISBYwfWBuIf4aLez6LAgAnqKlJkASJ6SeOS2Csix3d3cvXLjw+PHj+/fv7+vrYximurp6+/btK1euvE4Ho9Ho22+//dZbb42MjIwOjcogTeMxFRwzREZ5V4HIAkaAnPmyu1AY6UApSXw3Ai67LTzSYe47ZQmn6Eq5QMxcLnQcc3gbTeLcXjzRmgXVEQDoabDrNiIxILYeyAjw44QgwndgERgmDggTkACsiDAAANgILAImqJtdNxtzWgQxxoFA4L333tu0adOWLVt2794dCoXeeOONP/7xj6Ojozt37rz2ZJPJtHr16vz8fEEQjr9/4heNv5zGiDHgev5kt2Z4ln5lLB5k7ZlSeMQQ8/H6O/0WUPIq4mV3hM/83jXUZiap2ICUDlLhlpjZpbz3d1lBMKTEhrnDgg1hIcT1vm/TbUTJjmLfYEynseUUMTsJGkMIQE1HhAeOJ0j88K5UAACwJSVrgtQT1BhCiKqq8Xg8Jydnw4YNOTk50Wi0vb19//79+/fv37Rpk8VimTiZZdmCgoJEwCTqizLATCOei4EJisauQw6DlUhR5C4VgkPGvhMO3RYEE9hBzlkY9yyJd75vG24zIQALKDF9L5YLhAX1Md6Cew5bx8FoASUOrJTKPs4pAwFJA5G3YF8XF9GxiSvmQChASEZIRQgBihK+GAtuVnUAnw7oAoAKmAA7TkAGuVT/RxRJorH1PFg0nNMTHISQ0WjMzc0tKyvLzc1FCNlsttraWpPJdOnSJb/fTzRYJ+cB23Jl3wemwDlTzMf7eo19+216OkEGUAtvi1TvCWQtEgKNfF5trGBFJA0k3QxAQIygVu8NVmwLWjJkHEMla8J5y2Jm0GFdlBhBsVWIZqdssilpILCAAYgZFGeFaDCrNo9kS5d4PSz5CA5w8edDkRGD75xRu0wpJIHRj/lhwCFAY2AeI4xETAMEG5CYiWQX4DRg7wXFDfEcpOYjUMDWhdM6MfIjko4i5alKkZnfoWGY454gx3GZmZk8z1/r8aWlpdlsNr/fPzY2lp2d/akRkpngqhHW//VA31qHLDDBQWPPAUdA3/bh6SAte9BXcUdgvMe04KUIb8JdxxxnRlyJSIUOGAB7DMKGv/EiluQuiS27fxwhOPeye/SMSeuhGYCsimhJfdBVFDNa8LLvjpz6ZVYU+JzlkYV3jRtt6oIVodg4L/2RHdcxcZIHXLk5cOqJTK/XMvXZ08UUINYWwh0luBMxJ8FerPpvYw1dhDtGwALgRMQGY9/kBBcCHmJLGHsA25/HQAB7kLgBxTNT4AneHHmCc1oEDQbD0qVL29raYrHYxMFQKBSLxUwmU2ZmJsPMvifbd97+5O4qFRABhAH0DMsmGAXjy98p5KFgIhorA5J0jQ4zQ5L51xsWoasFkwAARGB0sAEDDFy2j/6btQHyAIgErAQsAehtcgw3WQ9CkQJIAkbnixID7tVvF0vAyqBhiExwI2k9wy9nuB8QzCPJAqoJjW9n2XrACIAFgkCxIswAAxDLY8R7EMgAAMACNuqugASSE0G6JjgzrFbrzp07L1++fOnSpcHBwdzcXFEUT548KQhCbW2t2+1GGtyTCjBhMMz62yYPBiaS0mUKAkgFFEzNh4BUQHFg4h8/qoCuSUKfAMWAB433DBEWVDNSzR8bR7Yh+eORmMSnoPKg8imPUyUTGKGe4MwwGo21tbVbt27t7e196qmn3G63JEnd3d0rV67csmWLwZBKqaJQbm2SXPWjIjgzGIZJT0/fvXv3oUOHTp8+3dvbizEuKiqqq6tbvnx5qq2jUG5paHl9/SgsLHz44YcffvjhVBtCoVA+hCREcIrpMJ4PIjinU2QoFMo8Zx6I4DzwBCkUypyErglSKJRblyQLKFARpFAoNyUYAHAS2+ZoniCFQrlpmTowMi/K69PACIVCuXFQkuo2D0SQeoIUCmV6zE6JhL6+vnfeeefKlSuEEELI7bffvmbNmqysrJm/c5JQEaRQKDcMwjDzvcOqqsZisaeffnp0dNTj8bhcrvHx8VdffVUUxfr6eo/HM3v2TgadDlMolOmAgRDAU/1MppKxWKy1tfXVV19NS0v7whe+8NBDD+3Zs8fr9b733nuXLl3S7Q+hIkihUG4YjBIKqE7+M7knODIy8txzzxFCampqSkpKDAZDXl7e+vXr29vbjx8/rtvfQkWQQqFoxeSeYCgUamhoyM7OTktLSxxhWbasrCwWi/X29kajUV1spCJIoVCmydTT4ckXDQVB6O7uttvtZvPVErkIoYyMDJ7ng8Hg2NiYLn/FTRoYQRwQHoflUXYGPTEEEDjguOl+RFPOBaYEAxZAMIGJSd2zSgFFAcUE064pzaAZ32MiSAww/Izeh6AZxDExEAEEAxi4GdxOqE1hnpr2q0FWFEVRjEYjM4MammPtfnGdOH0jriGrKHPo8lBECUx+mgKKoigvvfSS2+0GALvdXlFRUVVVlVA9RVECgYDBYOC4qxcXIWQ2mzmOEwQhEonMiqlTcnOKoCvTvfbu22ZYdfXMmTMejyc/P38WDbshIpHIyZMnV69ebXnQWusAABirSURBVLPp1+HsOvr7+0dHR6uWVaXKAAA4f/68zWYrLk7ZhRAE4dSpU4sWLcrIyJjRG52f/ku9Xm9fX1/VsooJvZgGGZ70hBjNnHVb13eUdEjSFK1vCCGyLHd1dXV3dwNARkaG3W4vLy9PiGCikxpC6NrvaeKfhJBEn3EduDlFcM2aNS+99NIM3+Rb3/pWfX393r17Z8WkaXD58uUHH3zwX/7lXyoqKlJlw7PPPvvuu+8+/vjjqTIAAH7wgx9UVFT81V/9VaoMGBoaevDBB7/zne/U1dWlyobXX3/92Wef/eUvf5nCJ+K1fO9735v5m7Asa7VaVVVV1Y86Z8myrKoqz/NGo069feiaIIVCSQ1GozE/Pz8ajYri1Uk6IcTv94uiaLPZMjMz9TGDiiCFQkkNdrt91apVIyMjoVAocURV1e7u7oQ46ubzUhH8TCorK/Xcu/NJLBbLihUrrm03qj9ZWVmVlZUpNAAASktLc3NzU2iAwWCora2dSONICW63e9GiRbPeYDa1uN3unTt3CoLQ3t4+MjKiqqrP52tsbMzLy1u6dOlMVj9vCPanP/2pPiPNRwoKCtLT01NogMlkqqio0G1x5FNJT08vKChIoQEIodzc3Nla0Z+eATzPl5WVpXA9DiHkcDiKioq0aDObKniez87ObmpqUhSFEBKJRFpbW48fP3777bfX19fr9tRBhMyDMg8UCuVmpa2t7cknn2xqasIYE0J279591113FRcX62YAFUEKhZJKZFmORCITsRGLxWKxWHSbCwMVQQqFcotzc+YJzhBBEJqbm0+dOlVaWrpy5cqZpsgmjSiKvb29Fy9eDIfDiqJgjBFCK1euLCwsdDgc+tgQiUQSNkSjUYxxImOrtLS0trY2VStig4ODDQ0NXq9348aNlZWVBoNBn3FHRkaampo6OjqsVuvEwczMzOXLl2dlZc0kDz9JCCGSJDU1NfX19UWjUVmWJUmqqKioqanJycnRevRbByqCH0NV1UAg0NraeuTIkd/97nd33XVXUVGRbiIYCoVee+21jo6OxEq8IAjj4+ODg4Nbtmypra3VJzwyOjra0NBw6NAhh8NhMBgEQYjFYqdOnTKZTFVVVfqHqlVVPX369P/8z/90d3enp6cXFxfrKYJHjx5tamq6Nlm9qKiovLw8MzNTBxEURbGpqeno0aMjIyOSJEUikZ6enurqarvdTkVwFqEi+DFisdiJEyd+85vfFBUVxePxaxPZdWBkZOQ//uM//v7v/37Xrl2VlZU+n++VV1559NFHA4GAx+MpKSnRwYahoaHLly+7XK5HHnkkkcj6zjvv/M3f/I3D4bBarYsWLdLBhgkIIYFAYP/+/c3Nzbr5wtdSVla2ePHiBx54QP+hVVUdHBz80Y9+tG3btq9//euLFi1KFBxtaGjw+Xz623MTQ0XwY0iSVFhY+MMf/tDhcOhZ0SyB2Wyura393Oc+l9C7tLS0+++///HHH798+XJLS4s+IlhWVrZ3716LxZKo62uxWLKzs7Ozs30+n26ljSYQRfGJJ57Iz8+vqanp6enRefTU0tvbe+DAAUVRNmzYUFZWBgBOp3Pnzp2LFi3Ky8tLtXU3FVQEP4bdbjcajXl5eaFQSM/4VILs7Oyf/exnpaWlPM8DAMMwDofDaDSKohiLxfSxIT093WazcRyXsGF0dLStrS0ajS5dulTn1PFE2eELFy7cd999Xq/3VhPBgYGBhoaG8vLyRGkpAOA4zu12m81m3RYEbhGoCH4Mg8FgMBgURZnYx6MnFotlzZo1E/9UVdXv98fj8cLCQt22TPA8n/jKtbW1nT17trW1dWRk5M4777z99tt1WxsFAIzx4ODgSy+9VFNTU1VV1dTUpNvQ1xIKhdra2hRFkWWZ47i8vLyKigp9Cgv5fL62trb6+vozZ86cPXs2FoslHs9LliyZIzUUbhqoCM5dYrFYY2Mjx3ELFy4sLy/XefSxsbHz589fuHDBZDLV19ebzWYdQgET+P3+tra2Cxcu/Ou//muqZn8sywqC0NvbK0mSoiiKotjt9oGBga1bt+oQHY5GowMDA0NDQwCgqmo8HscY8zwvSdLy5ctTuH/m5oOK4BwFY+z1ep944olVq1Zt3LhR/2jg+vXr169fPzAw8Oqrrz766KN+v/8LX/hCaWmpDkNjjBsbG48fP759+/bi4mKTadolXWeExWLJysqqq6v78pe/bLVa29vb/+u//uvXv/51OBz++te/rnWwXpbl4eHhF1988Wc/+9mePXsyMzPPnDnzwx/+sKen51vf+tadd96p6ei3FDfPPsSbjI6Ojj//+c/hcPgrX/nKihUrUmVGdnb2+vXr6+rq9u3bd/78DIqC3giDg4Pnzp0bHx/fu3dvCqd+eXl5991334MPPphIDCoqKqqrq8vKynr22WenLCY6cxiGMZvNixYtWrduXV5enslkKikp+eIXv9jR0dHS0qJb1eVbAeoJzkWuXLly8ODBrq6uRx55ZOHChXpm5yX2b05UK2FZNi0traSk5MiRI6Ojo4Ig6OCXtba2dnR0dHZ2PvbYY4lZ55EjR8bGxl544YVz585t3LhxxYoV2dnZWpvBcdy1EsxxXGZmZnp6+oULF4LBoMVi0bSmi9FozMjIyMnJcTgciRid2WxOeOJjY2OBQICuDM4WVATnHO3t7YcPHx4aGqqvr1+3bh3GuLu7GyFUWFiow+hnz569dOnS7t27r10EnKh1rk8Jk7y8vG3btvl8vkSIBgAuXLjA83xWVlZJSYnH49EnPNrc3MxxXGFh4cSOEUIIIQQhxLKs1muCaWlpZWVl11WZn3hE3WQ1tVILFcE5RKKe2oEDB1pbW8vLy+vq6gRBCAaDjY2NRqNRNxHct29fZWXlokWLzGZzYgtNV1dXWlpaenq6PupTVVVVVfWxriY9PT1tbW0bN27ctWuXbh7Q8ePHMcZ1dXWJFPHEIl0gEFiwYIHVatX6eZCVlbV8+fLDhw/7/X5Jkniej8fj7e3tRqMxMzMzJanjNyt0TfB6VFWNRqOxWAxjLMtyLBaLxWL6lJkIhUJvvfXWE088wbJseXl5S0vL6dOnT5w48f7771+4cEEHAwCA4zi/3//UU0/19/dHIhGv19vc3Hzs2LHVq1cXFRXpY8O1JHIkJUnCGIuiGI1GFUXRZ2iv13v06NH3338/HA5HIpH+/v6mpia/3797924dtjAWFxfv2LFjfHz8/PnzfX19wWCwp6fn7bffrqioqK6uvnY7M2WG0Coy19PU1PSLX/wiGAweO3bM5XKVl5cXFxf/5Cc/cbvdWs9BLl68uHXrVp/PZzQaLRZLYsKlqmpWVtbevXv/8R//UdPRE5w/fz6xN4thmETKJMdx1dXV999//0STMN0QRfHpp59ubGw8cuRIb29vdXV1bm7u97///dWrV0/MlLXj2LFj+/fvb2lpIYQkmkBmZmZu2LBh165daWlpWk+HCSHhcPjw4cN//vOfx8bGGIZhWTY7O/uBBx5YsmSJ3W7XdPRbCiqC15PIUJNlORwOcxxnMpksFktNTY3RaNT6vg+FQu++++4nr4jVai0sLNQnVTASiQwPDw8PDyuKkuh8mAgI5OXl6ayAAIAx7urq8vl8gUBAFEWz2Ww0GisrKzMyMnRIWgwGg8PDw+Pj47IsMwyDMbbb7YlNhPqkTGKME2sRibkIy7JOp7OwsNBms+mZs3nTQ0WQQqHc0tA1QQqFcktDRZBCodzSUBGkUCi3NFQEKRTKLQ0VQQqFcktDRZBCodzS0G1zc45Ej7HEHgmE0LXbs1iWNRqNs7thS5ZlURRVVU0UlGVZlhCiqqogCEajMcmc5MQuDub/b+/MYtq41jg+njFmxvsGxhizbzE4EKpGaZvSQFmipqFtEinQJAoRlfLS9i1SHyK1UtNGaisV5SFq0760UYnUJWlEIKRsTSk0YTVOzGoDXrCNPXi3GXs89n04qsUlN73c3N5cEub3NqPRnP8M+K9z5vvO98HwI2sDMmKxGJDx4H1isRhBEBRFgSzuzQhbW1sD2Y7gno+gKhKJhMPheDyOomhSUhKdnfdUQpvglsNqtV69erW9vX15eVkkEslkMhiGCYKAYVitVjc3N2dlZf2N+yX6+/svXbo0Nzf3+uuvNzY2qlQqj8czOjr6xRdfnDhx4sCBA/92LJIkb9++DcNwXl7eI29wBjKMRuNrr73W1NT0YOHChYWF1tbWyclJ0AWlrq7ur2+4trb26aefDg0N8Xi8AwcONDc3/6eSAoHAtWvX2tra3G7322+/XV1d/djqe9M8Tujl8JZDLBbX1dVVVlZGo9HCwsKTJ0++++6777zzTn19/a1bty5evPj37iNWq9UNDQ0IggQCAVAmD1RJicfjm5zZARP87bffzGbzfymDwWD4/X6SJB+8IC0trampSalUgi6g//aGLBbrjTfeKCkpgSDo0ZoloCi6d+/euro6n88XCAQe255lmscMPRPccmAYVlRUVFxczOFwMjMzd+/enZaWFo1G09PTr1+/3tPT8/zzz6vV6r9rI7NcLt+5c6dAIEj4HYZh+fn5J06cUKlUmxklFovZbDYmk/nfVPoEMvh8/sOWnFwud9euXenp6TiOb+aGCIKo1eqsrKzV1dVHk8RkMnNyckpKSujGRk83tAk+GTCZTJFIVFxcPDk56Xa7V1dXHQ6Hz+cTCAQoisZisUAgEAgE0tLS5HI5iqI+n89sNoNSdCwWi8/nKxQKYHPxeJwgCKPR6Pf7EQThcDgOhyMxUDgcXl1dxXFcKpWiKAoKKEAQFIlE7Ha72+2ORqPAGYVCoVQqhWF4ZmbG7XbDMLywsKDRaBAEKSoqYrFYJEl6PB6r1ZqQIRQK5XJ5QkYoFDKZTH6/Pykpic1mr5exSdbW1mw2WyAQoCgKfD+Vy+VCoXDDEj4YDBoMhlAoRBAEi8WSSqXp6ekJtw2FQjabDcwWGQwG6DLK4/HoL4DbBNoEnwzi8Xg0Gg2FQqAZ5szMzMWLFwcHBysqKvLz8ymKmp6eHh8fb2xsbGlpkcvlv//++1dffQVCKyKRSK1Wnz59WiQSIQgSDof1ev0nn3wyOzvL4/GKi4t5PF6izbzD4eju7v7uu+9GRkbef//9U6dOicViiqIsFktbW9vQ0NDa2hqKoiRJ7tmz5+DBgwKB4PPPP5+YmKAoymQydXZ2crncCxcupKamOhyOX3/99fLlyyCaIRKJnn322ebmZpFIBMNwOBzW6XStra2zs7MSiaSgoGC9jM0Ays1+88039+/fB0PAMNzY2FhdXb2+JQtFUQaD4csvv1xYWDCbzSKRqL6+vqWlhcvlwjBMkuTs7Oy3334LSqgiCJKdnX3kyJEXXnjhMdTLotkK0Cb4ZOD3+6emprq6usrKyrKzs3fv3s3n88+fPz8xMfHMM88cPHiQzWbfunULTHZ6e3svXbp07NixyspKLpfb29vb3t5+7ty5M2fOKBSKiYmJK1eu6HS68+fPq1Qqu91+48YNnU5XVlYGQVB6enpDQ4NarT5+/DgYOh6P+3y+c+fOkSTZ1NRUU1NDkmR3d3d/f//IyMjp06c/+uijs2fPIgiyf//+qqoqGIYlEkkoFOro6Pjpp5+ampoqKyuTk5N7e3s7OjpwHD9z5oxYLJ6YmLh8+bLJZGptbc3JybHZbDdu3JiZmamoqNjkO6EoamZmhsFgHDt2rKqqiiRJMEQ4HD516lRiHre4uMjn8998882CgoJwOHzlypXu7m4EQU6ePCkQCMbGxq5evbq0tPTxxx9nZGSsrKx0dna+9957X3/9dX5+/uNsbEDz/4I2wa1LIBDo6+vzer0YhkUikbW1tf379x86dKi0tBRFUbFYjGGYVCotLCwsKipKSko6dOgQQRB6vX54eBiCoFdeeSU1NTUpKamkpGR6erqtre348eNisVin0w0NDVVWVu7YsSMjI0MkElmt1kT+B4IgXC43JSUl0Xve6/UODAyMjo4ePnz4xRdflMvlsVistrY2FAqB+4OFM1iwJ1p/aDSasbGxpKSkuro6mUyGIEhJSYlGo2lvb29ubsYwTKfTTUxM7Nu3r7i4WCqVCoVCIGPz7wdBkNLSUqVSCcpbxWKx6urqa9euzc/Pu1yuRFNKUIhs165dAoEgHo9XVFTodLrr1683NDSw2eyxsbHJycna2tr8/HyxWCwWixcXF3/44Yeurq4jR47k5ub+nX9Rmi0JbYJbFwRBxGJxdnY2n88HqWpZWVkbem/LZLLU1FQwYQFNwf/444/5+XmPx9Pd3Q2uwXEcfPNyuVxOp9NqtbpcrvLyclCWjsvlpqenr3e9Dfj9fo1GEwgElEolaAEMw3BGRkZNTc1feJbBYFhcXPT7/b/88ktCht1uBzIwDLNarT6fT61Wg2YmQMZ/VLmWwWDIZDKn0zk4OBgKhRgMBkVRZrM5LS3N4/EkTFAgECgUCpFIBA4VCoVMJrt79+7KygqLxTIajQaDobCw8McffwTrX71ejyCIXq/3+/2bVELzREOb4NYFw7Dy8vKjR4/+RWc1Ho+3wYm8Xq/P5yMIQqPRgDOxWCw5Obm+vp7L5YL4CQRBIpEo4XpMJlMgEDzMfSKRiNPpBB0gE2PBMAw6bzwMr9fr9/uDweB6GVwu9+WXX05OTgYyYBgWCoWJcYGMzadbx2IxvV7f09NjNpsT6dM+ny8SiRAEkbgMRdH1xejBIUmSbrebzWYHAgEQGAHlYyEIIkmyoqIiNzeXLmG/TaBN8MkGhuENQUwYhkEp7NbW1sRJsN0CRVGr1QpcBvQtS1wA+qj9yyESaYPr255Bf+4SYTKZjD/ZIIPL5e7YsWODjHA4jKKo2Wz+lzI2DPHXEARx4cKF2dnZxsbGt956C3iW0WgEj/OwR1vfOQ+gVCpbWlpeeuklMKEGMSjwaJsXQ/PkQidLP22kpaXx+XyHwxGJRMCPPx6PLy8vnz171mQyCYVCsVgMziRykiORiM1me1gyMJvNzsvLoyjK6/UmspRJkuzv779z5w44TDggcNtoNAoW6U6nMzFKPB7X6/Uffvihw+EQiUQg6Gyz2RIR4UgksrKysvkAMUVR9+7dk8lkeXl5wL+i0eiDVu73+10uV+LQ5/O53W4MwxQKRWZmpkQiIUnSYrEkHh/Ex2/evLmysrJJJTRPNLQJPm1UVFRUVFR4PJ6ff/7Z6/VCEGQwGLq7u8FPGsOwgoIClUp18+ZNp9NJUZTVah0fH8dx/GEmKBQK9+3bl52dff/+fbC2JUlyYGDg7t27NpsNgiAGg8Hj8WKxWCQSMZlMn3322dDQUHZ2dmlpqdPp7OjoANZpMBj6+/txHAe5eKCDVXd3t8vlSshYXV3dvAkyGAyJROLxeFwuVywWoyhqbGzswdRoHMenp6f1ej3Ynjw1NWWxWKqqqiQSCYfD2blzZ25ubk9Pj81mS1zw/fffc7lcOkd6m4B88MEH/28NNP+E1+sdHh7u6OiYnJyEICgYDKIouv4THgRBFoulp6ent7fX5XKBNkAymQx8FONwOEwmMxgMzszMWCyWqakprVbrdDqfe+45tVrNZrNZLBaKolqt1uVyGQwGvV6/sLCwtLQEChNAEGS327u6um7fvs1kMvl8vkQiAWl3OI4vLS0ZDAatVjs5OZmSklJWViaXy+PxuMfjMRqNy8vLJpNpbGxs7969YHYWDAZnZ2dNJpNOp9NqtV6vd8+ePSqVKjk5mcViMRgMnU6H4/j8/Pz8/DyQAUEQeF6xWLz+teA43tnZ2dfXB5wXw7DMzEyCIOx2O4j2gFDM4OBgMBgUCARcLvfOnTt9fX12u53H4yEIMjU1NTAwoNFohELh0aNH8/PzWSwWm81GEMRgMKysrMzNzWm1WoPBwOFwampq2Gy2Vqttb28fHR1lMpkYhgmFQrrh79MHbYJbDq/XOz4+Pjc3x2azORwOQRByuVypVK6fmFgsluHhYZ/Px+Fw4vE4j8crLCxEURSCIARBQKqKXq+3Wq0Oh4PBYOTm5h4+fBiEgwUCgUwmCwQCi4uLOI4jCCKVSlNTUxkMBoqiGIYRBDEyMsJisTgcjlAoVCqVMpksOzubIAiz2Ww0Gt1uN4/H27dvH9i9B2K7TqfTbreHw+GcnJz6+nqJRCKRSMRisV6vt1gsQEZxcXFDQwMIBwsEAolE4vP5QEYLkCGRSOLxOIZhGRkZG6oV4Dje19fn9/uBSB6PV15erlAoCIJwOBx2u50gCIlEEg6Hk5KS+Hx+SkrKvXv3cBzPyspSqVQURS0uLhoMBoFAUF1dXVtbC2LBQEY0Gp2fn3c6nS6XSygUvvrqq/n5+fF4fHJyUqPRYBgGHFChUKSkpDzm/wea/zV0tzkaGpptDf1NkIaGZltDmyANDc22hjZBGhqabQ1tgjQ0NNsa2gRpaGi2Nf8AA+3QUbam+poAAAAASUVORK5CYII=;" vertex="1" parent="1">
          <mxGeometry x="130" y="211.5" width="496.83" height="397" as="geometry" />
        </mxCell>
        <mxCell id="KeYMbjUNge5Vjj2mVOIy-3" value="" style="shape=image;verticalLabelPosition=bottom;labelBackgroundColor=default;verticalAlign=top;aspect=fixed;imageAspect=0;image=data:image/png,iVBORw0KGgoAAAANSUhEUgAAAZYAAAFXCAIAAAAOLv/QAAAACXBIWXMAAA7EAAAOxAGVKw4bAAAgAElEQVR4nOy9eXgc1ZX3f25VdXX1vndr3xdLXmXL+4ptzG7MCzYm8QMZAoRJJhOG7BMe8k7yhpkkw0zIL5kASeYxDCaAjbfYeN+NN8nWvkvWrm6p1epu9d613N8fZYTiRS1sqVse6vM0z4Olq7qnqqu+de65556LMMYgISEhcXdCJNoACQkJidtHkjAJCYm7GEnCJCQk7mIkCZOQkLiLkSRMQkLiLkaSMInEIwgCy7KJtuJLB8aYZdm7PSeBSrQBN4fneZZlOY5DCImXGCFEURRFUQRBIIQmsKNoNMrzvPhPmUwml8tv+2iCIITDYYQQTdMkSU6QjX+DeGVYlhUEgSRJhmEo6iZfIsdxoVAIY0ySJEVR4zkpQRAEQQCAmx7wpl1EIhGKomiavpNvJBKJBAIBlmX1ev1oIcMYC4Iw+uvGGMvlcpqmb68jnufFA36hryYajbIsK94hJEnSNE1RlKi50WgUAAiCkMvlBEGEw2HxGooX/KaXMRKJRKNR8XsRDzWBN/MXJRqNut1upVKpUChkMlmizLhDpqKE8TxfV1d38ODBsrIy8XYRBEGj0ZSUlCxbtiwnJ0en001UX5WVlTt37qyurpbL5YIg3H///V/72tdu+yHp6+t77bXXzGbz448/Pnv27IkycjTl5eXHjx8/depUU1NTcXHx97///VWrVl3XJhAIlJeXv/rqq+FwODc3d8WKFS+++GLMI3d3d7e1tQmCsHbt2vFYcvr06a1bt65aterBBx9MSkq6jXMRTd2xY4fD4ViyZInT6fzoo4/8fr9areZ53uPx9Pb2Wq3WkYM7nc4XX3xx48aNt9dXbW1tX19fUlLSrFmzxqlifr9/z549R44cqamp4Xl+1qxZGzZsWLlyZU9Pz6FDh/bu3RsOh9PT07/xjW8kJyf/9re/bW1t7e/vX758+TPPPLNs2bIbD/jWW2/t379/cHBw7ty5jz/++KJFi/R6/e2dzp0TiURaW1s/+uijJ554YsGCBQzDJMqSO2HKSRjHcbt27Tp//rxCoXjhhRcYhkEI+Xy++vr6Xbt2lZeXv/DCC0uXLp2Qvvr6+k6cOFFXV/etb31LoVBUVVWZTKY7OSBCCCFEkiRBTNYIPS8vT3R8jh075vF4rly5UlBQkJKSMrqN2+3+4IMP6uvrFy1atHr16pUrV47nyN3d3adPn+Z5fpwSBp+5xnfiR+zcubOnp2fatGlpaWldXV0pKSnTpk0rLi72+XwXL17cunXr7NmzRzTrF7/4hc/nu+2+amtrr1y5Mnv27OnTp49TwhiGWbp0KUKos7MzGAxu3Lhx9uzZGo1mxPl9/vnnc3Nzp0+frlAovvKVr+zYsaOtre3MmTOZmZniH44ciuf5wcHB06dPl5WVzZgx47nnnsvIyFCpVLd9OneOUqnMysqaNm3aqVOnMMbjvE+mGlNLwjiOO3/+/IEDBwDggQceWLlypegQhcNhq9V69erVy5cvu1yuiequv7+/q6sLY7x69WqZTJaWlvZFRxnXodVqN2zYoFKpbtsriYnJZJLL5R6PJz093e/3X758+ToJCwaDvb29TqeT47ikpKRp06bl5+eP58h+v9/hcHAcN05L8vLyNm3alJWVpdFobuNEotGow+E4depUcXHx/PnzDQZDUlJSaWnpnDlziouLh4aG3G63QqHIyckZcWcWL16cnJx8G32JuN3u3t7e9PR0cbw8HiiKysrK8ng8ZrN5eHi4pKQkJSXFbrdXVFQEg8Gnn3760UcfNZlMopzNmzevrKxs+vTpbW1t5eXlLS0teXl5Iy+zcDh8/PhxnueVSqXJZFq4cOFtn8hEQVGUzWZbvXr1G2+8UV5eXlRUZLVaE23UF2ZqSVg0Gt27d+/Vq1fXrVu3atWqkfE5wzAFBQWbN28OhUIjD4wgCP39/S6XKxKJiO6PzWYTn/BwONzT0+PxeBBCarWapunh4eFoNKrT6axWq16vxxgPDAw0Njba7fZIJFJfXw8ARqOR5/nLly+HQqHS0lKVSuX1evv6+txut06nS0tL0+l0GONoNNrZ2SlGmkSfKzk5WavVBoNBh8Oh0WjkcvloHfR4PP39/YFAQLRZfFZVKhXHcS6Xq7+/3+fz6fV6s9nsdDrD4bBcLrdarVardQzvRhRckiQ7OjouXbq0Zs0ahUIh/ko8r5kzZ3766aej/0QQBKfTOTg4GIlECILAGBsMBovFIjoCDoejr6/P5XLxPF9ZWQkAFotFLpe7XC632y2XyzUaDUEQw8PDgUBAp9ORJBmJRCwWi3imQ0NDdrvd4/EIgmCz2axWazQa7erqikajBoMhJSXlxrF/MBgUX0hJSUkZGRnRaDQnJ8dqtVosllud9cqVK5OTk71er91uDwQCBEEQBKHVam02m1KpBACO49xut8PhEENXBEFoNBqLxaJWqzs6OkQLe3t7q6uraZpOTU0do6+bIgjC4ODgxYsX6+rqzGbzpk2bdDrddV/TrFmzIpFIX1/fyZMnMzMzxSikIAher/fkyZNpaWn9/f3XHTYcDg8MDAwODoq3McMwVqvVYDCIRw4EAn19fX6/X4wLy+Vyi8ViNpsRQuFw2OVyORyOQCAgvoCHh4dZlqVpOj09XavVil90MBgUr5gYVqZp2maz6XQ6iqJkMllhYaFSqezq6mppaZEk7I4Qr/WhQ4dSU1MLCgquiy9qNJqFCxeSJJmTkwOf3RMff/zxiRMnnE6nTCZDCK1fv/7BBx/Mycmx2+1//OMfT548KQjCzJkzMzMzr1y5YrfbxVHJvffey7Ls8ePHd+7ceenSJY7jXnnlFQBYs2aN1+vdvn17fX19ZWXl7Nmza2tr//znPx85cmThwoUvvfTSsmXLQqFQV1fXG2+80d3djTEWvbZnnnlm6dKlLS0t27ZtO3r0qNVqfeWVV+6//34A4Dju7Nmzu3btamtrIwgiFAotXrx48+bNJSUlgUDg5MmT27Ztu3DhwpIlS5544okDBw50dnbq9frHHnvsK1/5yogq3RSCIB555JHdu3dXVFS0trbOnDlTvIZtbW0XL158+eWXP/zww9Htg8HgwYMH9+/fPzQ0xDBMJBJZvHjxww8/PH/+fITQkSNH9u/fX15ejjEWr8bDDz+cmpp66NChw4cPm0ym0tJSrVZbWVlZU1Mzd+5co9Fot9s7OzsXLFjwox/9qLOz87333jt+/LjH43n66ac3bdrkcDh+/etfu93utWvXPvvss4sXL77Ofp/Pd/LkyZFQF03T2dnZY98hK1euDAaD586d27ZtW3t7u0KhIEly5syZTzzxxOzZsymKGhoaOnLkyEcffSROBIm/3bBhQ0lJyQcffHD48OG+vr7u7u66ujqCIF544YX169eP796EkVvu7NmzR44cue+++9avXy/q5nXk5uZyHFdWVrZz586NGzeKcx3hcNhutw8ODi5atKinp2d0e57nOzo6Pvzww5MnT4p6l5KS8vDDDz/wwANiFKW1tfX3v//91atXZTKZIAhWq/X+++9/7LHHFAqFw+E4dOjQu+++W1ZW9o//+I86na6iomJgYECr1X77299esWKFSqWKRqP19fXbtm1rbm4WNVGtVm/evHnZsmWigiOE8vLyKisrq6urJypEE0+mkISFw+Guri6PxzNjxgyz2XxjA5qm582bJzrtdrv9/fffP3DgwMaNG9etW4cxrqmp+dWvfhUKhZ566qn09PSXXnrJbDZ//PHH4XB41apVzz//fFtb229+85v9+/eXlJRYLJb169frdDqlUun1et98800AUCgUfX19JEm++uqrYo+lpaUURQUCgZFIZ1dX17/+67+azeaXX365uLi4p6dn+/btDQ0N+fn5paWlJpNJqVSKPh0ABIPB6urqf/u3f1u9evU3v/lNm83m9Xr/+Z//edu2bZFIZOnSpQ8//LDJZPL7/UNDQ5FI5D//8z8DgcAvf/nL06dPZ2ZmxoxJrVy5srm5+fLly7t37xYlrL+/f2BgQIxxXDcp4fV6Ozo6srOz//3f/52m6e7u7q1bt7777rsZGRlJSUmPPfYYwzBqtZrjuNdffx0AVCoVSZL5+fkMw+zdu5dl2XXr1n3961+vrKwsKytbvHgxQRDbtm0TD75ixQoxjPXTn/40MzMzIyMDAObPn79mzZrS0tLU1NSbft21tbWzZs1Sq9XjvEMAQJRalUr19ttvazSaurq6v/71r9///vffeeed5OTko0ePnjlzZsGCBVu2bJHL5SdPnqyvry8vL585c6Y4oXHhwoV58+Y9/fTTcrlcq9WOv18A6O3t3bFjR1NT03PPPTd//vwxXjAlJSUEQezYsePcuXPLli3T6XTd3d2HDx/esGHDjRkMTU1NO3fuPHny5C9/+cvk5GS/33/kyJHXXntNo9HMmzfPYDD09/fX19f/5je/sdls0Wj01KlTb7/9dnp6+qxZs9LS0h577LHk5OQtW7Y0NTV97Wtfe/7553t7e7/3ve8dO3bMYDAsWrTI4/H87Gc/mzFjxne/+93p06cPDQ29+eabnZ2d+fn5I06o2WwOBoNXr179QhdkijCFJIzjOI/Hw/O8XC6/VRLAiFve3d39wQcfzJw5c9asWVlZWRhjhmGysrKuXLmSl5f3+OOPGwwGjUajVCrT0tJmz56t1+u1Wq1erx8cHOzt7RUHUFqtVqFQRCKRkdCVz+cbfWfL5XKdTjf6Zg2FQuLbjGEYm82mUqkef/zxcDhsNpvlcrler1er1SPhj6GhoXfffZeiqBkzZhQXF4sDhIULF546der8+fNLlixRqVR6vV4cGpSWllqtVkEQMjMz6+rqWltbY0qYVqsV3+onT5587rnnLBbLxYsXHQ7HmjVrboyy63S6hx56CADS09MRQlqtNjk5ubm5ub6+PikpSa1WazQahUIhRtBG/ko8I7lcnp+fL0ay9Xp9cXGx2WxubGwc+ZoUCkV+fv66detOnDhx5swZhJDBYEhOTl69erVOp7vphD3Lsv39/XK5fPwTYR6P58KFC3a7/Wtf+5o4RlMoFI2Njfv27Tt58uQDDzwwMDDQ3d1tMplMJpNarV6yZElGRoboKYsnwjCMRqOx2Wy3MfvW09Pz8ccfi/eMUqkcY5ifk5Mjl8v379//0Ucf5eXlKZVKu93e2Nj45JNP1tbWXte4oqKivLy8pKSkoKBAp9NxHNfd3a1Sqf76178mJycbjcaioqLvfve7RUVFSqVSEISenh69Xn/p0qW0tDTxpEwmE0IoPz+/oKAgKSmJJMnCwkKn0+lwOMTr3NzcbLPZaJpOSkrS6XSibzjaSxDDGh6P54tek6nAFJIw0fMHAIzx2Ol2oVCor6+vtbV1/fr1NptN/Cuj0Zibm3vmzJnW1taRlmq12mKxiPPWarVarVYHAgG3233bRorj2erq6vfff7+pqSk7Ozs1NVWv1980z8Pv9586daqoqCglJUXUQZqmi4uLDx061N7e7na7R24jk8kkDpAJgtDr9RRFjWfWAiG0cOHClpaW7du3Hzp06J577mltbeU4rrS09MbGSqVSo9E0NTXV1taKUbyGhgav19vb2xuzI71eb7PZxMtoNBqNRuONbRiGyc/Pf+GFF37/+9/v27dv2bJl69atu6k3LcLz/PDw8BeaP3E4HB0dHV1dXbW1tV6vV3xVNDc3UxR19erVYDCYmZmp1+vPnz//29/+tqCgICsrSwwJTUiOnlarzc3Nra2tFd3AmTNn3uqwarW6sLBwwYIFn376aVNTUyAQ6OrqysnJEd8Zo1tyHNfZ2VlfX69Wq3fs2CGOMDo7O8WAgN/vBwCVSmUwGHbv3i2moXZ2dnq93qtXr4rR1RHS09NFr4qiqOTk5IaGBrGBXC4X33N/+ctfWltbc3JykpKSTCbT6Fe1TCbjeT4YDN75VYo/U0jCKIoyGo00TYfD4VAoNEbLcDjs9Xp5ntfpdCPDJYSQTqcLh8Oj590VCsXo963oDogZiTclZn6A1WrduHGjx+Opq6vr7OzMzc0tLCxcunSpQqG4MZuM4ziHw1FaWjr6V2IYNRAIeL3ekSecpumR8VRMI0eTm5s7e/bsTz755OOPPxYvXUpKyk2j1E6n89KlSxcvXoxGowzDEATR19eHEBrPjSvOUcRsptVqH3rood27d586dSo/P18c294KjDHHcaKYxjyyiNvtDgaDgUCgo6NjaGhI/EOWZZcvX56SkkLT9Jw5c+x2+549ew4cOFBTU1NYWDh37tySkhKNRnPnGaTp6eniV3/o0CGtVqtSqfLy8m512JSUlHvvvfeTTz4pKytrbGzkOE6c9b6uGcuyfr/f7XY7nc7q6mpRlDmOKygo0Ov1Go0mGAy2tLQcOnTI6XTSNC2TyQYHB71er9/vv27uWKlUit8RQkgul/M8LzYQI187d+5saGjo7u7Ozs6eMWPGwoULRycJixMFIwnedxdTSMIYhklLS7NYLB6PZ3Bw8LrfilOBLMvK5XKEkJi0fd3suPg8jL6rrvvnSLMxzBDbj7QRn7SRTGuNRrNgwYKSkpLLly8fOXLk2LFjb7311pNPPvkP//APN/o+ol95XXcjiw1G547daOc4l33QNF1YWLhkyZI///nPfr//iSeeuDFwLnLgwIH33nvPbDb/4he/yM3NBYDf/e53Z8+eHenoptdKZJwrIsQ0sdTUVJVK1d/f39jYeNP0ThGSJEVHYPxPjjgFWVxc/IMf/KCgoEB0ggRB4DhO9OYwxl//+tefeOKJkydPHjx48P3339+zZ88TTzzx3e9+VwyN34mQabXaxYsXZ2ZmvvLKK3/5y1+Gh4d/9KMf3UocLRbLypUrs7Kyjh49SlHUkiVLlixZclOvjSCIlJSUJ554QozQAYCoJmKWf0NDw44dO7Zt2/bWW28tXrzYbDZfuXLlt7/9Ldxwh1z3HY0MZRQKxb333rt06dLq6uojR44cOnTonXfe2bx587PPPjuS2MHzvEwmG3v6aMoytdZIMgzz6KOPRqPRxsbG6xbNDQwMbNu27atf/eqxY8fUanVSUpJMJhsYGBhxpwVBsNvtGo3mTiaGR77IUCgkvsTEkM2IMW63++jRoyzLzp8//5/+6Z9ef/31LVu2XLp0qb29/cajyeXywsJCt9s92ucX0ziMRuNE5Y7l5OQ8+OCDBEEMDQ2lpqaK8nQj9fX1LMvm5uZmZmaKPxEE4Tr5GHkGOI6LRqPjzxET8Xg8O3bsMJlMa9asQQj94Q9/CIVCt0rCoijKZDJFo9Fx+psAII7Z/X5/b2/vyGE7Ojp27tx57ty54eHhpqampqYms9n80EMP/fKXv/zxj3+cnJy8b9++kS5GTlDsd/wJYiI0TZeWln7/+9/PyMjYvXv3r371q1v5sOKY4KmnnvJ4PGq1WpxMv7EZwzAmk4lhmJ6enhFjxJDfX/7yl56enr6+vs7OTrPZvGDBAnH8Lr5Tx29zKBQ6efJkMBgsLS196aWX3n777UcffbSpqamurm6kTTAYFBNQvsC1mDJMLQmTy+WbNm2aN2+euO4hEomIb5KhoaELFy5s27Zt3rx5aWlpMpksPT39gQceqK6ubm1tjUQi4XC4tbW1srKysLBw/vz5t22AWq22Wq0KheLq1asej8fn83V0dLS2to48A319fX/4wx/q6+t5nhfzqsRA+E0j1gaDYcuWLXa7vb6+3uVyCYLg8/lOnz6dnJxcWlo6Ues5VCrVrFmzfvjDH37rW9+aMWPGrRa7GQwGQRBcLpc40B4cHOzq6hrt7SqVSplMJj6TJ0+e3L59+/nz58dvRiQS6erqOnjwYElJyfPPP79s2bKWlpatW7eKQeUbYRimuLg4GAyOP+HeYrGUlJQolcrDhw/7fD4xy6G8vHzPnj1iSOHTTz/dt2+fw+FQKpUWi8VgMKjVapVKJSrX6BPctm3b7t27u7q63G73v/zLv/zud78b/UjfCnGMtmTJkq9+9atz5szZtWvX73//++uSJEZQKpXr16/fsmXL5s2bb5XIihCaNWtWcXHxmTNnxDQ6juOam5s/+OADcQWlSqVSq9V+v7+vry8UCkWj0f7+/qampvG7rsPDw2+88UZVVRUAiDmJSqVSnKIZaTM4OMgwzMi77e6C/L//9/8m2obPQQgZjUaVSsXzfHd399WrV2tra6uqqq5cuXL16lWj0fjEE0+I0z0ymcxsNtvtdqfT2draWlFRUVZWRpLk/fffX1paGo1Gz507d+zYscbGRp7n9Xp9SkrK/v37P/nkE7vdzjCMVqvt7Ow8e/bsxYsXxbQyn8+nUqk0Gg3Lsk6n0+l0dnd3d3d3d3Z2dnV1BYNBiqIMBgNFURcvXnS5XFevXq2rq6uoqGhvb1+4cOHSpUvD4fCpU6eOHz/e1dUlnkhGRobNZuvv7x8aGhLP5fz58729vStXrhRzdtra2g4dOnT27NlwOKzRaNLS0i5dunTkyJGGhoZgMCg6m9cFoXp7e69cuXL06NGysjKGYYxGo8FgUKlUGRkZM2bMsFqtkUikubn5k08+OXDgAM/z4mqktLQ0hJDL5bLb7Xa7vaurq7m5uby8vLe3V8wOtVgsBEE4HI66urpoNHrixAnxtdze3n748OGuri5BEGQymZiGAgBVVVXiItahoSGFQhEMBmtqavbt23f58uV77rknKSmpvb391KlTzc3N4XBYTNy9btGVGD+uqanJzs4uKioaPQgS80JPnz5dVVUlRglFJaIoimEYjuNaW1t7e3sbGxurqqr6+vrEFHOVStXQ0NDQ0NDV1dXa2nrlypWamhqaplesWCEmx/h8PofD0dTUNDw8fPbsWavVWlxcHIlEfv7zn2u12uLi4uvWaQFANBqtqKg4ceLEp59+6na7tVqtmBeanJwspoNeuHDB7/eLuallZWWnTp1yOByRSEShUIgJveICieTk5Gg0evbs2ePHj1+5csXr9ep0OoZhlEqlGBvt7u622+0tLS3V1dVNTU0AcO+999psNnHGvLOzc2BgoKurq62traamRgzVq1QqmUzW39+/b9++Tz/9VKfTiW5aZWWlOF8kZi8bjcYDBw6IL+OampqKiorOzs7S0tLFixeL4wCM8a5du3ieX7Zs2a1c+KnM1JIwAEAIpaenm0wmr9dbU1PjdDrtdrvX67VYLBs3biwqKhIHemLgjCTJnp6e9vb2wcHBaDT60EMPifEC8eXc29tLkqSYuFBUVHTgwIHBwUHxtWYymYaGhjo6OkKhkFqtDofDKpUqJSVFr9eL92hbW9vg4KA4Y5CVlcWyrJiFn5ubq1KpOjs7HQ6Hw+Hwer0mk+nxxx/Pz8/v6+u7cuWK2IU4K1RcXCw+vQMDA21tbQ6Hw263L1y4cO3atXl5edFotL29vaKiguM4tVotk8nmzJlTXl4uJs2K78ni4uLrltH19fXV19c3NTXRNI0xzsnJSUlJkcvlJpNJdAb9fn9ra+vp06fFTAJRr4uLi202G0VRHo9HPGuO42ia1mg0JEnqdLq8vDyTySQIgnheGOMFCxakpaU1Njb29fWJZ6RUKsUpPwCorq6urq7mOE6lUomTA/39/c3NzVarddasWTKZzO12+3w+0VnIzs7OzMy8biRFEIRKpTp9+rTRaMzPzx8diOnr6ysrK7Pb7SqVSnQZ0tPTxWx1cX7Z6/U2NjYODQ0NDw9nZGQ88sgjycnJJEkihEKhUGtrq8vlEmdaS0pKHn74YTGHnmEYlmVFz8toNC5dujQ9Pb2trW379u333Xff3Llzb5xWjkQiVVVVYlhDXJOQlJSUlJRkNpvNZrNGoxEHAaKwtrW1iZPdNE2bTCZxdZHZbBaz5MPh8KefftrZ2QkAYkfp6elms9loNIpLSmprawcHB51Op1KpXLNmzZw5c8RMPZ1Ox/N8a2ur3+8XR3w2mw0AVCqVTqcLhUKXL1/WaDRqtdpms6nV6tbW1u7ubjHjxGg0zpgxAyHkdDp7e3v7+/udTmdqauqDDz5YVFREURTP8wMDA/v377fZbPfee+8EFlCIG+hurxYkcVfz+uuv+3y+pUuXrl69epLKE41BXV3dxx9/fPbs2ddee23u3LmTtzh/aoIx9nq9+/btq6ysXLFixRdaqzB1+HJ9ZxJTjS1btthstrKysrq6uvhP6otDrddff724uPjLpl8A4PP5qqurz507d8899yxfvjzR5twmkhcmkUh4nu/p6RkeHjYajcnJyXHWEZ/PNzg4KOaUJbD0YKIIhUJioYTMzEyj0XiXirgkYRKJRyxFe5eW3Lt7EWvP3u3yfddLWEtr08BQPylL5Hcg+BDm7+KbQOJ/ITLIyMxIT0+/8yN1dNe7h1y8EFMokIzQZGfnfNH183fIXS9hL37n67sPv6e1JbLy9/A5hmfvSidc4n8rpAZ979Xvf+9737vzQ73yiyfPntzD8zGEAgEtp+f97Kf/eqv1IZPEFFpgdHsoDMS8jcblz91yOXEcqMy3eeH2Nw2RkJhwvNTQRGXbB/343ofpxzfH2FAiGJS98h1f/HeiuusljCAQoyL0Kbe5YceEoOSYCEhxHIkpRAjJJirCJQhYoQKLLcbRAkEAIkaNmcngrpcwCQmJyQYDCBBDmwSI1WJykCRMQkJiLDAABhxzQTxGOCEiJkmYhIREDDDGAsRIPOYTJCaShElISIwN5hCwsVbycAlKbpAkTEJCYiwEAAwoZokyPjGhMEnCJCQkYoEhtoeVqKrVkoRJSEjEQBiHkyVAYhaoSBImISExFviahMVQKAFLSRUSEhJTEcwBETOczyZorbgkYRISEmOBEWAMXMwZSUBfbDOVCUKSMAkJiTERYDxJq4mqFyFJmISERAzGEwuL2WCSmIoSJm5iKAiCQqGIfz11CQmJvwUJmOBjDSSFBFWxn3JVrgRBOHv27Msvv7xly5aKiopIJJJoiyQkvtTga5OSaFg90koAACAASURBVOxPrHpik8UU8sI4jnO5XFu3bnW5XC0tLR6PJxwOT/iihXAr8pfLOC+iFMD5kKKQ06zkEAn+C4T7oJJO4oyPR2hb/L6NJAil3xtijBwbIDBAzT59MBFfShKEUlaF1Uls1J8YM2gQrBBOfyRIyXE0jAIDVMMlbcw3/8SiAD45KZR+T5ALI45F7ga6uS2uBUgBQAts6vSgrSQS9hIYQ+8+ZQ8o42zDjfCAohBjPMQCSoiITSEvjOd5v9+vUqny8vJSUlK+6Gbx40EI40CFzH2YkafyshQ+0kP5LtGRRsQ6QAgSw1dk/ioa33yH+ckAk4DnfWdIk8J6Omg2SE5b50tOCTPxznO+ZoYxJ+Lp/NwMRRzNQIC1wC75uZOSY0+HjFbhgrV+G0RoiN8cFwJsocPzv+UKDlKedlqfzuXc5zdBBMUx24kAnL0kUPCgz9sp83bIbEWRzMcCWoh3EcHrwAACEDygsT8xpywniSkkYeJmpQ899NC6detycnImowshisLtVLhdpruP067hKBPPDpGRPlLwIzqTp808IuJ3v5IAauDyV/mG7bK6i7qO40pawaetDGrie8uOmBHxEbXnPzdDC9G42UABNuRFpq31OC4oast1jnKF0shlPuqXx1FG5SBYV0Uy5/sbjmjrKrXDPZQ2mU1bFiTiKGEK4NPmB3SpbPUZXUONNuQhjblRW3YobgbcCgGBAMTYH4y/9F4YTdOpqanZ2dlqtXqSukAyIJQCojHrBMGHcZggVAKTyzEFWJGPZfq45rXIQEifG4j4ybCHEACxQHZXqGwzgpqkmCtqJ8kMarQZhqL4KakKOMuMSMBJh3sIDCjYRrp7ZFlLAvH0BPUQ1aVGhwdoFhAAcrfSYS+VvSwQzyfEoo3QKsHvlPFAAKDBZjlFC8mLwnE04eYIgLhYH2mBUTwg5KBZEmUHyavf0dNWnvMR+mVhmRVDIq4+AViVxHEc4AgCAAEg4iMYrUBpBHAkwAw+eoMZ8YICgdEJkfC1b4EH4KNIZeSoOHpANC3I1AIb/MyGICFgUBm4eN4ZikyOlOHoZ7LJBRAhA0aXkIzRz8FitD5maquUnT9+urq6zp8/X1ZWBgDnKy+ZV473RucGUbBaxvYTad8eRko0fIYO91LeM7TxoQSEGwRAYQ9JEoBkAAAIgFJgNkgIcX3xf24GQeHRZvCh+N2RPKBoAMnoa98jAUBSEPGT8QwKclHEhwlyxAZGQAgifjKeg6OoixQ4RMqu9UkyWOCBDSR+fz8eEyyOEc7nAOHEuAJ3IQzDJCUlFRQUFBQU6Aw6YtypY5wbIt0UjiL1MkE1j2cyOSFIRNoTk3rGA+o/x9BKnlYLCDAFgjU/PNRBB/rias/nZmj40Wb4a+K3r10YKG8HrdRzsiQBAWZsgtrC9tUqInF8xfpAFhgg1SaOBAyANWk8rRQcNUw8JczdJ2PDhELPEYABsC6dFVg02JzgzbEEcSCJiVifeM58fM5d6YVZrVar1bpy5UoAaHKUd8hax/uXJJAqAdFE5CoCCnF+glQLlEnAHLADwHpIzALrQKQRE2oYvzLeHiwgF8iH++RKK2uDsCaTV5m46o/0PojrnpgjZij0QhKE1Z+Z4YmjGWEgBsvl3n65vjBqc5DGGRGCxl1HleE4vmIDQLka5SEvZTOGA0OUNiMqsKhrtyqeIR4vyNxdtMrEJkMoCoQ2hQ0MyBwXE785Fh5HqEvKzo8H8hysmhuNdJP9f1aRahyxE+pZUd0alvdh9yfyUAsFHPKeZoAKK6YLk5+Og1hAp39uLXzSu/xnA5Fhsrda0VGm8sf7S7lmRu5jvuU/Hwh7r5kRTyXFgIaAPvxKUtGG4ZxVvkiA7Lmi7OhUx6yOMIEIgPqalOfeNC/4/mA0QLIhoqs83jlZPBCN2zV8FK345UBwiOI51HlG4ZwC+/vx44iF8ePIC2NZlmXZkXwpkiRlMhlF/c0Nz/N8JBIR2xAEQVEUTY+1xeKXS8IQAs1CXjnLjwAwAYhHSIaRChBC5k0R40NRDEAqADGA4rUvZfegwv57hri2SBbF0++43ow/MuS1jWoSYEYUiPYWdc+vleizXHA27m91P5AN53Rt5zRiPjqXCLfCDfIre2Q1e67NjsdTxMcAA4pdL2wcl+vEiRMHDx5sa2tjGCYSiRQWFj700ENLly4dWUcYCoXq6+v/9Kc/OZ3OaDSanp6+dOnSJ598coyFhl86CUMKIBQjP/j8tUFqERnvTGwAABaIBGcuAsAUMAMDYgEl9onFgKKAogm1gQfEAzmlVtVhQBgDh2N5YWP6YBzHXbp06f3339fpdM8++6zJZAqHw3v37t23b18oFLrvvvvEZqdOnfrkk08oinr22Wflcvm5c+cOHz4MAOvXr79VrtXUkjCWZffv39/X11dVVTU0NHTgwIGGhobly5fn5eVd521KSEjEDR6IcdQLgzFmJHmer6ys7OzsvP/++9euXatSqXiev3LlSllZ2blz50QJs9vtZ8+era6ufumll1atWiV6ah0dHdu2bVu6dKlSqSSIm9gwJdzUEXieb2xsbGpqYhhm+vTpAwMDtbW1TqdzMhYbSUhIjAcMIODYM5JsLDeNZVmZTEbTtKhEGGOGYUKh0MDAgNigpaWlubkZIbRixQqGYQiCyM/PLygouHjxYnd3dzh88xTfqeXaMAzzox/9KNFWSEhIjAaNxwvjAeDWa1opilq0aNHRo0fb2toaGxtzc3NdLldFRYXX650zZ47Yprm52ePxWCwWo9Eo/sRisWRmZobD4ZqampycHKXyJrMrU0vCJCQkpiACAI6VfD/2dCRJknPmzPmHf/iHHTt2vPDCCxqNpq+vTxCE9evXb9q0SWzjcrk4jtPpdCN/pVQq9Xq9IAh2uz0UuvlaUUnCJCQkYoABcUKsWJiAfX7/H//4x7/+9a8AIJPJFi9evHjxYovFAgA8z7e2tu7btw8h9Pzzz+fk5AwMDNTU1EyfPt1ms4lHCIfDgiCMTqEYyagIBoM8f/PFGpKESUhIjAW+llQRM5wvkCSVmpqam5sLABRFWSyWET1iWXbPnj1NTU2rV6/esGGD1WoNBoM0TV+9evX48eObN29GCCGEAOC6EoHiP9GtfUBJwiQkJGLAYxQzqUJASKFQPPjgg+KymetgWfbo0aNKpbKwsNBqtQKAUqnU6XS1tbXl5eUPP/ywWq1WKpUkSY4u1MyybDgcRghpNBqZ7Oa51lNrRlJCQmKqgQE4IKKYjPkZI29AEIT+/n6GYVQq1cgP9Xo9x3EdHR3d3d0cx1ksFplM5vV6RxyxQCDg8XgIgkhJSVEoFDc9siRhEhISY4MEsQLSmB8BjxXvJwjCbDZHIpFg8POyyMPDw8FgkCAIhmEQQoWFhUajcWBgwOVyiXlUAwMDHR0dDMPMnj3bYDDc/MgTe64SEhL/+xDrhcX6IHTr1FaKolatWjU0NFRXV+dyuQAgFAqdP3/e6XTm5OTYbDaSJKdNmzZr1iyZTLZnz55AIMDzfG1tbV1d3QMPPJCamnqrlZJSLExCQmIsMAbAiI+9wAiPMZCkafqRRx7x+/09PT1bt241GAx+v7+lpaWkpGTVqlXi6FKv169atYrn+UuXLoXDYZIk29vbrVbr+vXrjUbjrSL6koRJSEjEgBcQN+Y4EWIt8yZJct68edFo9MyZM62trTKZLBQKZWVlrVixYsGCBSPN5syZo1Kptm/f3tDQwLJsUlLSsmXLVq1addOlRSKShElISIwFxogFIhJrEzYca8NEhNCSJUuWLFkyRhuGYWbOnDlz5szxmydJmISERAyEcVQ0TNBOuJKESUhIxAID4mMNJLEASEhAhbW7XsK4IcJTLe9yT9a+beNh3o8H4rlp6434eukzW1MSaMDUAQFFQMKLzUdxovevnUDwtU3YYoTzcYIegbtewngX6TyhbjhhSaANj1ZeSp3tS6ABvVUaScJEEFAkqGK3m2T4/0USBgAYo7HTvgDEvXITwF0vYRISEpMNP46BpJCgYJgkYRISEmOBAXHj2E6BkCRMQkJiasIBisSSMBJwQrbClSRMQkIiBhgjiDXbmKjgnyRhEhISY4Exwjh2dn7sXSQnB0nCJCQkYiAAirm7B4qRnD9ZSBImISERgwigQKxYGCUkZk5SkjAJCYmxwDCugSQGBFI4X0JCYgoijGOTcxnGMRaCTw6ShElISMSAB2BjeWEEEITkhUlISEw1MKAooPA45Onm+3NMMpKESUhIxARxsSQs5i5tk4QkYRISEjGI8MjPx1AonYC1iZiSlCRMQkJiLMQ1kv5YeWGMgL/UM5LhcNjtdrtcLp7nxQK2DMMkJydrNJoxymZLSEjEAXYcCRNuQNnxseZvmSoS1t3dffjw4WPHjvE8z7Isx3EpKSmbN29etmyZSqUaYzvyOwEBJuHziRYe0NhbGEwUPAcCjzAGhABjgqJ5IEAQkBAlEBIwBoJEhEyIp3ITn10KcSjAAYr7kl1MAIzYgAG4BOQZYQKAGFW677MaWPEzI1H35NiEMUCsGcmYlakniakiYefPn9+1a9emTZvWrl2rVCobGxv37Nnz8ssv/+53v5s7d65er5+MTq0Qzt3gtxVFgh4KY6h9U9cHN98xeGJpP2PoKtNEfJRCy3l75DM3Os35gYFmVe12qzE7FHLJzIXBwvtdakv8Vs6m0cHsjQF9WjQ8TGEM5980++J7b8hBSE8P5T0yTDGYDZHDdrJstylmCHlikQFvzA5N+z8uLIAhMxQJUBW/TXb2q+JZyc8I0Zx7A2kLA6EhUsBE2x51W18iKxIDjLsYK07MKsmpMkZTKBQ5OTkPPPBAZmZmUlLS3LlzFy9e3N/ff/bsWbvdPgkdYhKE2S94jDnRK/9uqP6DzpAWyXgkoIfIJPT1N4R9ZNMhY9Apm71xoOjhQTZI9l5RV31oq3rflrXck7vWnVLq8/bRFX+xTbYln4EpEJb93EnJcMWvDB3HlZml/ow5AQ1w8TIAEGADRNf83O5qYar+wzDUTmfOD2ZYgnLg42YDADZlh+Z+vb/lr8b6/7ZUfWBrPmAK9VPxfCxJEAoe9WUv91W8bqz+L4NcyWesCZghHEcTbgUBAorxieWmTZplU4PZs2dv3rw5PT2dJEkA0Gq1KSkpJEn29vYGAoEJ7w4BGCBqzotgDnWxSjso/AMyU27Ekj3pEoYF5OujBQFZpgVtRUEA4KPIfZXp+1SVNs9nmxZMmu6PBsjWgzfffn3CkQE2Q8ScEw55iG6sHGhigm4qbXFAD9H4GAAADAiW0og5K+yqoXtA4aqQYwGy1/sVcSzHzgBnnhNMnjasTGW1MyOEHIcGqCDEVcJ0wJrzIpQcd4WUfcAM98m0KWzywgRLGLqmUETsTyKYKgPJgoKCgoKCkX9yHBeJRADAYDDI5RO/mwMBYMiOIgThYVIM+gx10mklAV0+B+0T3tvfQDKCLjPC+Ym+K2rGwLNhpLKy0QCFeUDENeMiXmqolhEfnsl+tZGArYsj0RAZ9ZEYEAeEs40xZYXV01mom+S+P4MBTpfJBj0U6yAwoHA/4RuUJReH5MDHLV9SLYsaMkMqA2vMDfMcUhrY4KBsuFnOAxk3FTMksZRCCHopMf7l7ZEZcyOm/AhcjJcFt2IcsTDA8Y+fAkwdCbsOt9vd2dkpCMKyZctSUq7f2EIQBJZlWZYFgCjL3tYdhhmzAAAce+2ic0GCZDCtnPSRi4wW8le7Gw8Yj/+/TJWVxRxSWVhChs0lTF+lmlFznm7G20XzwwgLn4naZEIAVpo4ngWeQwCAAaJ+RKsFShk//4MELNcIbORaMEUA4FlgdBwZx80J5bm8IT2sSwo1/ck4DPK5X3NkL/RgQFX/Y4tboFpu40kSR8LXvnU2hAgS5Jp4jqZvBYKY00tSsZ3RVFdXnzt37vHHH587d67BcP2QqqWl5eDBg8eOHQOAhsv1MqC/eA8o5KAAgKSvXXeZSuBCRNQ36StVXe2K2j0mlYn7P39qpGTo/B9SOk7rk2b6F3+zt+mQydcnJ2gsUwnKHDYO+gUAAqCAgyJlQNEYAAgAuQaHfQQbiN8blQMU8hIyxbUXPQlAyXBwiIrnJBfnIwJueqhHGQEKA/K0ywN5VOocb/X/WONmQ6ib5HlEya/dk7QKCzyEhxP8kGKAcQ0GEhQLm4oSVllZefHiRYVC8dxzz5nN5hvzwlJSUu6///45c+YAwBv/743mvpYv2oUAMNAtxxiUBo4AQQDCOi0cGKQGyyZ9C8LgoIwLUHRaVJfEAoDKzIZcVDRIqkzcnKcGKErw9DIBF6VJjsbnjmAB9ZQrGDXP6HgCMAV86qxA+zm1t/42Xgy3SRAoV71cY2bl6QLqxspMXpfKdl5ShSB+tQ98vbSnh6Hk16JvtFIgKBzyxO8iAIBzSB71E8aMKAkCD8iYG+XDhKOciacNtybm/ShJGADP801NTSdOnIhGow8++ODMmTNvmteq0WgKCwsLCwsBYPufPmqF1i/aEQbwA9V5XqVNZ2cv90aGCZmS7zyvGhyedAlT26K6jEjYQzUdNpJy7O2W67PDjIbvq9KQNFYYWH8/rU8LZy+b9IkFER7QMNAtpzWMnpu5xEOpMM8SXcdUntvxbW8TFghXk7zpmC55SVDRwRmyo2EP1b5DE46jhIWBGqhU9dbq8jcOhd2kdYafjZCthwzx9ASDQPWWqSg5nr3SE/GQahM72Cq3N8Uj0ScGGMWO1uPx519MJFNlRhIAWJa12+3Hjh3r7++fPn36mjVreJ4fGBgIhUKT0BsSADXt0gzUKizTI5biiL1O0XtK4Z98TddnhtPmDyvM7GCr0t3BkAqcOtdvyg2Gh6n+eqW7g2EDhDErnLHAM9mWfAbiAVX+xjjskFmnR1Qmru2M2tHHxNMDwoCGQXbhZ2aCAGtxGADaP1UNgDxmjaoJRADCVamo2W0xZIRMBUEQUH+DuuuSLp4hagFQx6eqqyfV1uKweUZkqIvu3qUaTkwBiM/B4n88EeMjxDFyOYqp4oUJgtDf379v375jx4793d/93bp16zDGg4ODhw8fXrRo0bRp0yaj00FgBo8zcHwyjn1LCICi+11F97uu+3l6aUL3AwdF775Evu2jQHSyqs6/JHIj7iDQzUfNzUfNCbTBAzLPRX3NxUnJ5b5NsLhMIvaM5Jd6jWRXV9f+/fvfeeedF1980WQytbS0iE7Z4cOH09PTJ0nCJCQkJo4vdyzs0qVLb731Vnt7+5tvvqlQKAiCEDMnaJoWkyckJCQSxriS77/cEpaVlbVx40ZB+Jt4IEEQKSkpeXl5ibJKQkLiWoQrdmrrlzsWtmDBggULFiTaCgkJiZuBx+GFxdrue5KYKhImISExNbm2u1pMhYprdajPkSRMQkJiPEixMAkJibsUjMYT6PpSx8IkJCSmLsI4wvnCuGRuwpEkTEJCYiyuLfOOGQv7kqe2SkhITF3GUy9MioVJSEhMVcaRVMEnpna+JGESEhIxGc8gUfLCJCQkph5YEAvpjCcWFgOWZVtbWxsbG71eL8/zkUjEZrNNmzZt+vTpYoNQKNTb23v+/HmO4ziOs1gs+fn5I7+9KZKESUhIxGKCNihqbm6+cOFCY2OjWDi+q6vLaDR6vV5RpDDG7e3tp0+fPn36tF6vZ1mWoqj29naTyWSxWMSNgW5EkjAJCYlxMI7tP8b+fTgc/vOf/8yy7OOPP75q1SoAOHjw4PHjxzs7O8UGwWBw7969n3zyyTPPPLNp0yaSJP/rv/5r7969crl8y5YtWq32poeVJExCQmJsEOBxJFWMGc5nWfbw4cMOh2Pp0qWLFi0Sf7ho0aKUlJSRUjRlZWVVVVUKheKxxx5TqVQIoTlz5jQ3N2/dunX9+vUJkzCe5ysqKnJycoxG46R1glBCy8/ufLpAYYnfxrE3EjLQQ28rE2gAABiOsejDxJdFwhBlIW4Fb2/FVNhzaGIZx0ByTJljWfb06dMMw6SnpzPMtd0AtFptXl7eSH2ahoYGr9ebkpJiMBgQQgCQmpqakZGxe/fu9vZ2o9GoVN7kJr8jCfP5fENDQ2O3iUQiu3fvfvLJJydTwiBRsyEizdUJrrFJAnH6jQRvErHWg9VTQsIEiOMmvl8GrhWevrNYGM/zdXV1qampDodj165dHo8HAJKTk4uKijIyMsQ2vb290WjUYrGI+gUAOp3OYrGEQqHu7u5p06ZNvIS1tbWdPn167DbRaPTgwYOrVq2aOXPmnfQlISGRGMaZ7sVjjuNaWlrUajUAEARhsVgsFou4lTXG2OFwEATR0NDQ3t7u9/s5jqMoamBgYMWKFVlZWQAwPDzM87xK9XnxcblcrlQqMcZDQ0PR6M3fTHckYWfOnPnhD3+oUMSouR4KhSZnCw8JCYm4IIwjFgbI7/f/8Y9/FH0lmqbXr1+/fv369PR0AMAY+/3+48ePW63Wb3/72yUlJYODg6+++ur//M//dHV1/eQnP0EIsSyLMR4980gQBEVRGONIJHJdPdQR7kjCrFbrV77ylVdffXWMNoFA4Mc//rFOp7uTjiQkJKY8hFar/eHfv7x48WIAQAgplcrRLhVJkpmZmQsWLJgxYwZCyGQyrVu3rru7+9SpU9/85jf1ej1N0wghjvs8rMzzPMdxCCGGYSYlqWLOnDlmszkzM3OMNizLfv3rX8/JybmTjiQkJBIJRrH3iMSACMJkMiUnJ9/4S4SQwWCQy+VGo5GmafisrLxarR4YGHA4HBqNxmg0UhTl832+lVcoFBoeHiYIwmq1igPSG7kjCcvIyLDZbCP/5Hne7Xa3trZGo9Hp06fLZDKfz6fX65csWXKrCVEJCYkpDwIYR3b+mA1IkszLy3O5XDz/+XStIAgYY4SQTCYDgMzMzPLycofDIQiCuAe22+3u7+/XaDRZWVmjHbrR3FEugkKh0OuvTcZFIpG2trbDhw9/8MEHH374YW9vr8vlqqysvHDhgngCd9KRhIREIhGz82N+bg1FUQsWLCAIwuVyiZFxQRB6e3vD4bDVajWbzSRJFhUVmc1mp9PZ09PDcZwgCN3d3d3d3UVFRampqSOpGNcxYelUXV1d77333g9+8IOdO3cePXrU6XQGg8HLly+/8sor586d83q9E9WRhIREPLmWVCFG9Mf4jClhMpls/fr1SqWyqampsbHR5/O5XK7z588DwPLlyw0GA0EQJSUlJSUlGOM9e/Y4nU6n01lVVdXT0/PMM8+MMYybsNTWvXv3+v3+X//61yUlJT/5yU/kcnlBQcHzzz+/ZMmSjz76KCUlZZLzwiQkJKYuBEGkpqZ+5zvfOXDgwE9/+lOZTMbzvMVieeqpp1avXi22oWl6w4YNVqv1gw8+OHXqlLgIfNOmTWKy/q2OPGES5vV6k5KS1q5dq1Qq5XK5OL61Wq0EQfz3f//3rXI6JCQk7gLGU6mCR2MXDKMoatasWSaTyel0AgDGWKPRpKSkmM3mkTbJycmrV6/OyMjgeV4QBI1GY7PZxESzWx52/GcxNtFolKZpi8USCARGfkgQhEwmCwQC0o7cEhJ3M+PZhA3hWItkNBrNtGnTpk2bdqsGot9jtVrHb9mESRhFUR6Pp7m5WaVScRwXDoe9Xq/H42lpaeF5XpxfkJCQuOv4zLVK5Bq+MZgwCcvLyzt79ux//Md/rFmzxuPxtLa2hsPhqqqqAwcOzJs3z2QyTVRHEhIS8UYYxzKjBEnchEnYo48+qlKp3n333e985zvDw8NVVVUURWm12uXLl3/jG9+QUlslJO5WYia1Xmt2lxee1uv1K1assNlsjY2Ndrud4zitVpuRkVFUVJSdnX2rzFoJCYm7gFhpXwAJ2gh3AiUMIWSz2Uwm08yZM/v7+zmO02g0ZrN5jNnQ0fj9/q6urrq6ukAggDHmeV4mk+Xm5paWlt4qpU1CQiJ+xPTF7nYvDAACgUB/f39/f7/P5xMEQS6Xu91um81mtVpjZuc7nc7z58+fOHFCq9XKZLJwOBwMBsvKyvR6fU5Ozk3rBN05CLAKOC2wMgPucyvYRNRNZIBXAUcCFgABgAdkXHzMCGPwCdYQkBi0ftyURAAFEMKZfuxjkCaMOw0E6BGQcbovCcDipQAADIgDwgtUzBmuiYUEQQmCEjgMIACKAOEDWTwNAAAaBAZ4BYjLcFAQqCBMgZUtE7T9x2QwYRLGsmxtbe2HH364Z8+ewcFBse5PYWHhxo0bN2/ebDKZxp6UtNvtzc3NKSkpP/zhD00mUyAQOHr06De/+U2r1bpx48aioqKJsnM0CuAL1g2XbhlMLgq9Ob+wH2JUDZpoMABkFftz1/oZgxANEDKFcOLnVg/Qk/voYgwA2d18ZhWr7BaIKNAXePM35BwD+lZe3sqzaYS8RcheLTu5igZdfO5LLAchb7E/Z4UfyTDPosAgdfbPlggQcYwSYzXwhQ94s5cGIn4SAPob5Rd3mwWAeNpggkj+Zl/KzFBgiCJo3HpA01CpFRI+GzieYjsYjzdqNqFMmITt379/165dDQ0Na9assVqt4orzzs7Ot99+2+VybdmyJS8vb4w/z8vLe+qpp9RqtViWR6lUJiUlJSUlDQwMjE40m1hMsggG6CpXJRcloJwZApABvudHA1U79TW/1euAXf9eb/Y9gZYTk//yF2DGe2HvPPKTv2OAg8KHBbeGWPTfIcKNz7ysdBnQvXsiqkZ+JRE99Ug8RvEEgBkiD/68Z98P0jqvqLMX+2dvcufM9HfUqEPx8kFIgPS5wWUvOt97NCsIstItQ2lzQvbjwa5hZdweTApw8deGU2YF976cxgJa/XJ/+pLAUCVtj/fL9W8Y7w63d/tAsqysTK1W//jHP87Pz2cYhiAIlmWHhobq6up27dq1du3asSXMYDCo1WqKoiiKAgCn09nY2BgIBEpLS0cXw5hYBlm5cBh0SSxKxMWnACcrMsRE/AAAIABJREFUQwSNg4OUDygCYKBFnjo3NHCCmVwJi0JmJ0c5sKZBWEayBIexDAan02gYAweuFAJkyJ9CWCs4dbw2h1ECb14ZAQB/q8wHpLdKFlhL5azxD9QwcZMwLUT1eREuinxAh4BwX6WNGdGcx/y97yji5gSZIKK2sNEgMQwUBhi6KrdOC6euCdmPJVLCAMZXePpuD+eHQqHU1NT77rtvdNyK5/mMjIyPP/44Zna+TCYTl03V1dXV1NQ0NDQMDAw88MADixcvHr3+YGIJARUEQUjY2wObFkS5MOKCBAASAHl65baioCJTgM7J7DgKqV0CahFQBhHREbIgNp9jC2QcCmEgEPgxGJDMLxB9mFTG6a6UA69JZkPDFD+MAFA0SIQ9pLkgLIvjyEQFvNIohIYpceQYchJsBJmyw3EzAAC02SzJ4IifFCMJ/gEqaSbWZkyNlS2JGCSOhwmTMKPRqNfrrwvbI4TkcrnFYhnnrCLG2Ol01tTU1NXVMQyzatUqcbnldc0CgcDg4ODg4CAAOF2DOFH6f2cgAJLBWAAsAABgAJ4DksQgm+SbRcAyP4YmgX0KyubLGJdw376IoYbDCiTo0Nwmrj6DVDgwGp5cK0aDAAgaC58VksIAggAUFdd3CwIgCAF/ZoPAERiAkMc1Rk0ygBB8fh1YQAhIKuG3NwJ8LYQ6FnejFyaWhRX/32QyiZvxZmRkiJF7jHEwGGxtbTUYDOOUMIqiVq1atWrVqt7e3j179rz22mvhcPiRRx7Jzc0d3ayrq2vv3r0HDx4EgPa6q0oYaxXolIUH8HWRFI0JueimY4WOD3lIdmiSh04EimoQLiVYAwk0hOUoNJNU1gre5VTISKScZs0mjmABp4BgiNPzywIRGiJppagXmAIsY7B/UMbFMYwdASIaIOlrjiemtTxJ4IAzrjOSwUZSYJFMgUU9kGsxz6GgewrMSI4nnD/mPpKTxx1JWE1NzcgORi6Xq6mpafv27fPmzRPD+X6/v729vaKiYtGiRWKEa/wkJSUtW7Zs5cqV77zzTlZW1nUSlpeX9+KLLz799NMA8JNv/6Ts48t3chaJggWiu17FaHiFgSMA5CBklgaqduuHhyY5BMXAxWJqQxiICAYMNIvlfcBZEU9DZzZxYZ4CCHTP4TAmyOGCOAXDAkAOljNaa1SezaF2UBVyxoxo7T5dKI5bNbuB9nbTuqSIDIQoEMa8qELPV3+k5+MoowOYiQYIc16IBMwDskwL8RHUdzrRgbBxcjeG8xsaGrZv3y6WyuZ5fnh4OBKJiJssiWX8A4EASZIXL1588sknxz6UWIJ2ZBxKkqSYEXbkyBGn0xkOh0f7cTKZTKfTXZu7VChu+8rpIZq91pe12K80RGf9vbvyDzAITNxykQSAEJCX3jPrs6LLvzqAAHn6ZF0fqyZ9OpICwUT4n6RlbuHebWHAQLiE3o20ZkCYsz86Q0dE9Ug+IHgLqfOz4qQgHKBBh/zs27ase4PJw2G5Vhhsp9uPqEJxzNTjAPUeZ6qmGxc95wp7CF0a29/CdFWp4rmrbQSIlv1q/j5Y+XcDEQ8p1wg9ZUrHwBSQsPHs5p0g7uge5ThOpVI99NBDY7SJRCJbt27FsQbSlZWVTU1NGzZsYBhmJPiFMRZ3XpqkQhccoKEqeZNS19+ksFcoovHOIUQCQP12rTk/IjcKfBA5KhknyCc9wxYhoOHyGjrTztNBDCSEzbLy6VShUbCoBZ6CqBr5zURdJgnmuCkICgBZ8Ue9dXaEkGM+hEK9lAfoeOZDYUBDQFf8fwbrkggfRq4Gua9O5o+jGyja0NumDP8XZVwWifqIoWbaWRe/Odk75W5Mbc3Kynr00UefeeaZMdqEQqGOjo6YJVsrKyt37tw5ffr0adOm0TTN87zH42lvbzebzQaDQdzyZMLxg8zvlHXsTWQobQjkQy0JWEDqyiRdmX/zbDQZyabp8TfkGhwQg8AMViVyMVkUSDso7OcS6fUEgAoA1XV2Upaj3BHjUqgEqNgdvWaXL1/+93//9zf+HI+CoqjHHntM3A5zDCiKcrvdH3zwQX9/v9/vdzgc1dXVn3766cqVK8WdfiUkJBKDWGmHj/XB406CnVAm2E/GGLMs6/F4+P+/vTcPb6s88/7vs2nfZcmyvO92Yjub4yxkhQBJTCALNLQJLVOYzsw70L7Q6XQfeH/DO/yGTmfaHwMXLXRggKaUthAuIAvZV8eJ4zjG8b7F+yLL2qWz//44IDwJsZTYPrLJ87l0XaDjk/PcOpK+up/7uZ/75nlp8hgOh1966aW//du/nbxk2KJFizZt2nTu3Lm///u/pyhKala+e/fuXbt2ZWRkTK+RCATi5ognz2cuhvMnEggEzp8/v2/fvo6ODpqmo8EvKVs1Zjg/OztbagTAsiyO45L7Zrfb09PTUaEeBCLRxLNHUhZDrmPaJKy6uvrcuXM+ny8lJeXYsWMLFixISUkJBALd3d35+fl6vX7yf67T6XQ63TXJEwgEYlYgxqFQc13Czp8/Pz4+ft999xUWFg4MDOzatau8vHxsbKy2tvbKlStSAgQCgZirJHyPwA2YNgnz+/0ZGRn3339/MBhUq9VmszklJSUlJSU7O/v06dOhUGi6BkIgEHIjxBHqmuuxMIIgpMRUURQ5jmMYhud5giAEQejr60MShkDMUTAxvolkgvaBT5uE4Tje2dl56tSpBQsWOJ3Offv2tba2Wq3W5ubmQCBw/VZtBAIxR8A+2+k9OXPdCyspKWltbe3o6Jg/f/769ev/8pe/1NbWUhQVCATuuOMOh8MxXQMhEAi5iafwNCTGEZs2CVu2bJnZbA6HwwRBrF69uqOjIxgMer3enJycrVu3pqamTtdACAQiAXzlVyQzMjIm5qB+//vff+KJJ1iW1el0NE1TlNxtFBAIxLQRTyvcBMXCZnAfr1Kp1Gq1NE2//vrrHR0dMzcQAoGYWURpUXLSBz8HY2FtbW2XLl2a/Byapj/88MOSkpL8/PypjIVAIBKDAABxtMJNEFOSsMbGxj179kxehYLjOKmRx1QGQiAQiUSIY54oinEsW04/U5KwsbGx3t7e7OzsSc5hWVahUKCkCgTiK85cDOfbbLZNmzY999xzk5wTDAafeuoptMFohhHBm+AOMwpe1ICcJU6/HA4wJhFd2b/6fCU3GN11112rVq2a/ByNRvMv//IvMbd53zoiBkBAQitbYiAktosSD+L2ed4EGgAA5d9077ya+EWbmncd7/wgJ9FW8OIsUPPbhClJmEajmdg18kvBMGzmGkF+MUpCO7bPht8nIdFWKGnOlpGApujXoLezif0wwOz4PEwzAgAf62XxX4mShwgE4qtJzBXJub7BCIFAfGURxDhWJOUw5HqQhCEQiDiYrdNjtHaDQCCmgwRp3DRLmCAIgUCgv78/HA6LosjzaF0GgZj7iHE85nq9MJ7nOzo6zp0719zcjOP4rl27KIq6fPmyQqFYu3atXq9H2a0IxFwEi1Oh5nosbGBg4MyZM3v37u3q6uI4bv369QaDob6+3uPxWK3WkpISg8EwXWMhEAhZEbDYu7gTtCI5bRPJAwcOnD59OiMj4+c//3lmZiZFUeXl5Y8//nhWVtaePXs6OzunayAEApEA4plLJsIRmzYJ6+vrKyoq+qd/+qd169YZjUaCIDAMczqdDz/8sMfjQbXzEYivOHN9IskwjEKhsNlswWAQxz9TRoIg9Hq93+9nWXa6BkIgEHITTyws7nC+x+P59NNPf/e7361atequu+6K1okYHx8/c+bMhQsXGIZhGGbevHmrVq0qLCyc/GrT2f7D4/F0d3fbbDbpiCiKXq+3pqaG4zgUy0cg5jDxVG2Nzwvjeb6rq2vPnj3vv/++0WgsLy+XjnMct3///kuXLhEEkZ+fHwwGa2pqAoEAAEyuYtMmYampqR0dHfv27SsuLna73S0tLQRB9PX1HTt2LD09HVWqQCDmKlIRg5j5UfF5YaOjo01NTe3t7RNnZoIgDA4OfvjhhxqN5pFHHlm3bl0wGHzmmWfOnTunUqlkkrDKysq33377l7/8JYZhgUCgp6dHEAS/32+1Wn/961/n5CS8eAACgZgC0+GFCYJQXV396aefPvjgg5cvX44e5zjuyJEj3d3dW7ZskYrfaLXaVatW/fd///f+/fsfe+wxkryhUk2nF/b4448vW7Zs//79nZ2dgiCYzebS0tLNmzdnZmaq1erpGgiBQMxG4pCwjo6O5uZmiqIqKyuff/756HGO42pra1Uqlc1mi6pVRkaGXq9vbW1ta2vLy8u7UQuhaZMwkiRtNltFRUVaWlowGBQEQaFQmM1mp9M5iYLeiOHh4VOnTv35z3/++te/vmzZMtSGEoGY7YhiIBB49dVXP/zwQwCgKGrFihUrVqyIBsc5jvvoo484jtu4caNOp5sYHxcEoa+vT6FQ6HS66EGz2azVasPhcF9fX1ZW1oxLGADgOG4wGK5JYWVZdu/eveXl5WlpaXFeh+O4hoaGd955Z//+/UuXLp0/f/40Gvk5ohr41KKQOpmjvYTSyLMBYuCi2geKGRhrMsxAJ+XRKpPAhnEA6LqipRNRvtEMdFImq7JzbEgmM+gI1t+gi3hJAMAwoDR8VoWPwMHdp+q5pPMNUaWb3YYUhsRlWqtXAG8G2rkxFOhTUAYBePBUUwOglWf0KFrgLMBYljNMEBMFzHVF6QKlzDZcDy6AEMf7QBBEampqbm4ufO7TKBSffaE4jjt79uzIyEhJSUlZWdk1Ww9FUfT5fBRFTdQplUpFURTHcV6vVxBuGGmbNgnr7u72er+kcGg4HP6v//ovq9Uav4QNDAw0Nzf39vZOl23XgwFogEtfE9CYeHevUmtmrdkRkU8K1ZGcfFvfRQygYLPflM5yLC4IYC+IeH9CjYJSRhu+MMOYxgoCxnOYZIYLlOyMmcEJ4O1XXX4vSW3mVHou7CW5CGZOY1QG1t2vbDpg7NivSy0Naq0cqZJpm60SeNvqSN56X+9FncrAmdNpzwKl67cqBnCQq4YiBqLDEcnZEsBJITROWrIYdZLWf4JMyK/atcSK1mMiplarN2/evHbt2mv+xPO8x+M5cOBASkpKWVmZTqe7XisEQcAwbKJrJj2NudV62iTstddeq6qqIogv7rUoioIgsCzb3d0dfwcjnuePHDnicrk2bNjQ0NAwXeZdAwZAAT9Yq/HWKAZBAwB//35D+ir/cJ3KI9ePHgagBOGOvxk984rtwn6LBdiH/9Cd9UAg8gE+LuMPb9SMi+9YT/0hKWoG+wHmAtUMDRr2Ur2XtQ3vGHb/qTN7ib/puKnqd/bW40ZbXlip5a3ZTI9O7kRJEsTQMFn/rrX9ooEHrPIfe/NWe1t/axwEjWz7lykQCh/y2QvDbz+RzQFW+d3B1CUh9wXF1ZDczuA1KATgYv2UkDfOHfP7/Y2NjRcvXvze976XlZUVCAQCgYAoiizLhsPhUCjEcZxKpRIEYaJasSzL8zxBEBqNZpKsrGmTMLfbrVQqFy5cKD2VSlb09fW1trbefffdTqcznovwPN/Q0NDa2up0OvPy8n71q19Nl3nXIACMgnqsRh295xgGAosJMtYsVoCQnheMBImwhxQAYwC/WqNLKYsMHNKMh+STsC/McP8PM1x1StfVmZIwOkAEXKQ+iyMUIgAotKJKz3ed12ZV+JNywoOfxqhmPhN4QeFvpbDPkwcwDEQRY+StpZwMNKUTAqMUBxgAjDSr0paEUu8JXd2bYAmLB+LGSu9yuc6cORMKhV5++eU333wTAFiWdblcR44c6ezsnD9//r333muxWIaGhiZu4/H5fKFQSKlUpqamyrEiWVZWtnDhwqgPKYoix3E+n6+rq6u+vj6e1FZRFAOBwBtvvJGRkbFmzRqPxzNdtn0ZGA+Y9GFVAefMC7l7VMNX1EEZa0ASAKZsjotgfBgDwETAQmOkMy2kSOahSzYrvjCDo/+HGUqrAFdnalClntcnc76rFBPEeYCIHx/rUqqMPABQpIhTCdirIsAXP2ApEOR5GPhU6wWlnKZoCjmSEtnQZ1PXiBfHKVGTlOCKVdJNIWPdCMWNT3A4HNu2bZOyJSQpCAQCVVVVZWVllZWVZWVlNpttyZIlf/nLX8bGxiTPCwD6+/v9fr/NZsvNzZVDwtatW6dUKq/pKcnzfF5e3unTpyORSMwreDye06dPh0KhoqKi/Pz8Cxcu3OjMkZGRpqamlpYWAGhqb4qjJu4NUQOXnB7Oq/Q17Tf1n9bxMgahRACexTAcsM/HxEgQBABB1jqUNzJDnMn+8iod5ygOF23zuTrUHI27OlSUSlDqBVyu4P2NwEE0AZO1MzDerRw8pWHkDUIJDIgiYJ+PiREgiiDM5BsRJ6QAeKwvGS7e8Muj0+mKioqKioqiR7xer1KpdDqdCxcuXLhwIc/za9euPX78eE9PT3Nz8/z582marq2txTBs+fLlkyfGT5uE5ebmCoJA03T0iCiKDMP4fL7BwcGYEsaybE9Pz8GDBysqKgoLCydvjBQMBru7uy9evAgArjHXLQuYEnirIWKvCAsc1rVfHwaCBEG2UDoP2HgjRSkFQiUCiDiI+mQ2MEJFrsoqYVEzSBU/0Yzw8Ax+eylStKRHFm93jXaq3b1KJkjoU9ikPJrSJtLjIEDQA5d+T0Ch469+oh8YViuBp2UM5we6KJ7BlDoeA1EE0Fg5gcX8g7OiOjwxTT8uHo9ndHR0eHiYYZjR0dGWlhadTpednV1SUlJRUdHT03P06FGapgOBQEdHR1ZW1oYNGya/4LTdncHBQb/fP/GIZGJdXZ3H45lkTVTC7XZfuXKloaHhySeftNlsgUAgHA4DAE3ToVAoEolQFBVdK8jOzs7Ozv7Wt74FAE/sfuJk+9mbt1fEAFKzQzmbfIIAp15K1gHncIRCQ+QoyJSFywLWN6LBCFFjZVUgqIFzloaq/yvJC1+e/zLjZlj4iWaMD82sGRgGGIWVbBpT6fn2s8bxXqr4brfWzHIC8Awu8MCzOMcCpZLpJwUD0QBs0U5v6qJA1c/tAZayQ4RyCj0DOtnC+aOgDI8TplRaBTwPeFI+TYfwgQMJTgvHRMBEoGJ6YfHdpoaGhg8++KChoUEQhMuXLw8ODlZUVDzzzDNqtfrxxx9///33Dxw48NFHH9E0vXz58u3bt1dUVEx+wWmTsH/+53/+5JNPJh4RRZEkyeTk5G9/+9v5+fmT//P+/v66urpAIPCTn/xEyg0ZHR1lGOZPf/rT2bNnV65cWVlZuWDBgumyFgNIgsianw5kl/vHB5QF671KtdBZra9/wwL90zVIDEQAFrDjv3RkLAve++NBLowNN6u7P9EE5O3JEjUjrTy08ScDbAiXzPDOcIqcb1hx6F9SbIURrZWjNHz+Gl9yflgQ8PajhisfGz2Nikt/sjAhLHOJ35DEzaglEgZgS7/l3vSzq2NX1cl/CGOk6B9SfPqepW9AK9siDwdY02+N3CN45TP9wXGSVAndh/XDM7YuHD+4ADGn+ER8DnR5efm8efOkWhQ4jhMEoVQq1Wq11HB2165d27ZtE0VRFEWlUqnVxl7HmLZvi1KpXLVq1fr166WnGIaRJKnRaKxWa2FhYcxuuNnZ2Y888sjmzZujcbu6urqzZ8/ecccdq1evLikpSU1NnS5TAUAE8IPixD87z6fyrA8HAJwU/XWkbBkVACBNTzqrdaPVSgpEqZGoFxRyropONGOkWqUAQTYz9HZmwz8OKnQ8qRAISlQbWEolCiKfWha882lu2V+N6pNZYzKjMsrkA4WAbPpvk+eqMuwmQMAwXGTHcXevkpf17cCGQRl6i9AAL70RAaDkTRK8ITGXZuOcaapUKpXqy0VZqs2l1+tvyrBpk7CioiKapsvLy6MRfZIkKYqKpudOjtlsNpvNE4/wPI/jeHZ29pIlS/Ly8qbLzs/BIkB0XdXP3KJbnASBlHMZdPaYoVLzeSuuzW/EMTDZGZOdkdMSCRbwUVCPHk/wrI0BYgyIscQacR2ECGQ8PyVzups3RVFut3toaCiaGnbLuFyusbGx9vZ2URT7+/ubmppUKpXT6YxWUkQgEDIT0wuLMxY27UybhB09etTtdk/Lfsbq6uqDBw/W1dVpNJpjx47V19dv377929/+9o38TwQCMYOIgMWRVIGJiUmImTYJy8nJKS8v37hx49QvtX79+uXLl0sBP5IkcRzXarVKZeI3uyIQtyfSouTkkAnKh5k2CXM6nVqtluOuXTyKRCIvv/zy5s2bJya2TY5Go5k8LwyBQMgMEU+pikQwbRKm1+tbWlpeffXVgoICnU4XzeGKRCL79u1bvHhx/BKGQCBmFUQcSRXYXI+F+Xy+2tpal8tVVFRksVhIkpQ2Q7Es29/fzzAJWGNCIBDTRUyFknVD/ASmTcJqamoGBwczMzN9Pp/P54se53k+EAhMXvEHgUDMZuKRpznvhaWnp8+fP//RRx+95ngoFHr22WevyflCIBBzhTjdq0RlPE1Jwvr6+trb23EcT01N3bFjh9lsTk5OvuYcnueffvrpzMzMqQyEQCASCC7EseAYT7vcGWBKEtbU1PThhx8WFRVhGFZaWmoyma4/hyCIadzbiEAgEkLsvLAETSSn5P0NDg62trYajUa1Wo1S5xGIrypSXtjkj4TsLoIpemFarba4uHjXrl2Tn3ZNqRwEAjHniOlkJSptbKquU8yK0pFI5MUXX5QqrCIQiDkHFl+Qa06uSIZCoZaWlnfffXeSc2iaPnTo0LJly6YyEAKBSCC4AHiscD4mJMYRm5KEhcPh1tbWd955Z5JzOI5rbm6OvwkbAoGYhcQTzp97EoZhmFR0cZJzCILAcTyeDkYIBGJ2Es8270QxJQmzWCybNm36j//4j0nOCQaDTzzxxJfmW0wjYsKCiRI4lmADYCptnKYFnsaCflmr/n8pYYaUsw3Vl4IB/nk7yq8IWBxemABzs+RhTPdKpVL93d/9XW5u7hQHurEFIgAnQiL3YJKQBbJWrL4emoeehBoAl/ba2g0xyovLQP9ay8cvJjiPeuXbw8nVQ4m1AcTp03ExrlD9nJxIxgNBEPPmzfuqVysk8RluljE5AgiyNQq7ERHAaXm7Ln4pgREFJCe4tBxrIBL+dkw/X8nUVpqmm5qaXnrppZMnT46Pj9/oNJ1ON0kzXgQCMdsR4stuTQRTUhaz2Wwymc6fP28wGGK2WUMgEHMUTBRxPpZEzcXC05s2bdq0adN0mYJAIGYtX9nsfAQC8ZXntqgXhkAgvsIkSqFigiQMgUDEABdm70QSSRgCgYhN7LnkXCx5iEAgbgsEwK9tr3jdKQnKhEPhfAQCMSlxzCIBYndpmyGQF4ZAIGKAzeKkCiRhCARiMjCIyxFL1I4qJGEIBCIGGIhYrOT7RFWLmS0SJooiy7I0TU8sfYFhmFKpJAgClRtDIBJJPOF8PDGO2GyRsOHh4SNHjvzmN79JTk6ONgpRqVSPPvpoWVmZxWJJrHkIxG0LFnexnYQwWySM4ziSJOfPn//AAw/odDrpIEEQOTk50afTjhVo59KwJY+hA7goQsdHOhfIURSIBM6xw52zYtRsDx3+f+cHGzXRPznuH1v8wNWxAd2Fn+cKstSuwUBUAb9gmye5KDzYoD7/YQJqflHAJ0Fk/v/y+IYpnACcFL3dVPNZkxzFC/1c+Z7Bz/Yw4xAxkPU7HEBh0BMurPdbm0JnH3ZAihIUcqzdK4HPnBfMvcdHUOLBX6SysydhQACMjXUOnphiFbNFwgBAqVRmZmYuX758pku8AoBUEa5om8+YxvZfVDNeomSnl/ETkRNkYObvibYibEgN60x0ccXAKWuh1FYAA0GZxjhLx8tW9nY02GsgG2SRMAoER2pEbWYd80IYBvChDGNeCwmitpijNEJknGT9eOrSYOaOwMhZtRuUM65ivKgeZLxF6pCBBICQBgccwMdBmNeNsoaLfqhMgmSZisGZgTZmMeY0xp4XOfSLWVTpGa1IzjowAC3wmcuD/hHq07NGAfAi2pc8PzxWpQgwM18GUi1EfNRIjz56RARRQXJp945hADwna+FADEBh5kcbVc6ykJi4kGO4iWwVjQPNmjCQKitXdr/LUMT6mhUzXr+ZwGgHVV+ihyQKcBzUOJAYMCLoSU+KIgkwOQM8pEIMDpPubpU9PyLfqHGACXGUPJTFkuuZNZ4qAABwHBcKhYLBYDAYDIfDHBcrhHir4AB2ZwTDIewmBcABYKRRpbXxttX0DI04EfcJ4+hFI0t/IVUE8Ia1ocWbrrZ/kjzUa5TBhig0EC0NxkAHJbAJE7AwkP2g7Wg2hIHEQcQJ4DmcGY5Zrn064EVlH7P4nGfBobHS42O6Bj8wItgoSFP3JcldibeP0Y5cVLH0rFu8EjERE2I+EmPbLPLCAoFATU1NS0sLx3EYhqWlpd1zzz133HGHWq2egdFEjZMDAI757ONCB3FSxSv1ienakLJjPHu568R/FQUuqBNUOW62YIewLpnpOmdwjavkCAapiVPbkyBNDWoCmgPr3ho5rsYhXwfaxBfRnj1g8SToJ6hs62yRMIqitFqt1Wq9//77TSaT3+9vaGj4xS9+MTQ0tHbt2vT09Ikn9/T0VFVVXbhwAQDOXazmb6VbDEaP4wCAUZ/dd0opCCzGhhLwwSWBNaSEk1L9wYUKW6EvyRFgWaLgycHBGpOvSitPUH+WkAThzIcCHE2ce85EgywV6CkMCnSgIoAAMJJsMlnSEmpIVSMJmwgmABbrSyZCYiZ1s0XC9Hp9SUmJWq1esWKFXq8PhUJKpfLgwYPvvvuu0+m8RsJUKpXD4SgoKACAS6cvheGmAwcCgLtDIYqgMfAYiCJglmwm5CY9bQm4ISJgo00GgcfC4woAYGmSpvHgqIL1kuJXr4vEDSBBsACdcX+Ap7Ghs2o/UAZgAkBxM/q1YASf8CPCAAAgAElEQVQIcOBmwKkGDQEYBkLCCijPdmLGwrDbW8I0Gk1+fn60AL9Op8vLy1u8ePE777zT19cnCAKOf3F77Ha73W5fu3YtANSfujxaPXqzw4kAHlB4+xQ4JaZAmAFcn8z21mjGuuRofkMCp05l9BaapHhDVtB/Sj16xDh6xIiDqJkXiUQIJkJ5r2rCjUoBZjypV0qqMBSwKpOAYawRGB9Irql86kmAYAJ2wRNua07karWOVIvZK/zAQfcFw8xKGCuAmymp8TUsFMFAGUcZnBV7M9RAYeBhU90MDqJ9jB2x8UBgQM34F1QJvM7C6ZI4hUawAu0CJQN4wpshSS4YJsScSYqTvFeiKHq9XpfLFQqFBEEQRRHDMLvdbrFYJrY34zjO5/NJX3lBEDQajdVqtdlsk4w6WySM53me5ymKiibiKxSK5ORkmqb9fn8kEtFoNJNf4SbBOMAu/X/m/K/71/zfkbCHDIyRV9/XumVpB6m/I5RR4cqc5yJIcf6dA2G3YuRjEwCmdDDFD/YbLWGOpYs3D9aPpofbVTPtiFEgpOaFcjf4rRkRJoKXPDxe/Y6NlzewoQQhY5N//Xd7fUNKR2GI+Csh4icv703quzDDVpAYEJi5MVzu5QUSI2khkKfyLjYAL+rq/Sk1fgzE3Au+EIUFCnVgmXEJS4JI9v0B54KgysQt/sHYxV9Yh0A9C3xCEUQxdrRm0o8Mx3Fnz549cOBAT08Px3Ecx/E8X1lZuXHjxoKCgqiD4nK5qqqqXnvtNZ7naZrOzs5ev379zp07FYobLq3MFgmrq6traGjYsGGDw+GQsvNZlnW5XBRF6fX6mYnowzAo3X9QkGCRfl8Yufxgzxnd5TPqK2nppJlnBkh27LNV0ciQ8vL/k9X0x1QQMaaV4ICUwQtjAe9u1w38Hw0JKRhABHBO9p/9MBAN+81d+xcJnw8tAsYAPuPviAKHNPWppzOA+PwlYwBKHEQILDKcKdYBI4ISByUmT2rrEKhdb6guvmHFQaQBpxNWwOZLiB3On1TjIpHIv//7vy9YsOB73/tecXExwzD79u374x//ODIy8p3vfCcrKwsAGIbZu3fvRx99tH79+q1bt2IYtmfPnnfeeUepVFZWVmq12i+98myRsMHBwZMnTzIMs3PnToPBEA6HOzs7T506tXLlyszMzBnaI8kDnpAFSBFwFnC2j4K+z45EXx4LFNtCRc+UQUtEwDjAZna+FocNDBCM/AsXGAYUBqbrXjsGoCJAJbc90gdyNnQUvgaMB2xqCU4YhpnN5jvuuGPx4sVGo1EQhMrKyo8//vjKlSu1tbWShNXX19fU1NA0vXXr1qysLAzDysrKWltb33zzzdWrV892CbNarRaLpbq6mmEYtVodiUQGBwezsrIeeugh1KESgUgkohQLm1IfSaVS+c1vfnPRokVGoxEAcBxPT083GAyDg4PDw8PSOQ0NDUNDQ3a7PScnR5paZmdnZ2VlHT16tK+vz2w2T4yaRZktEpaTk3PnnXeePn26ubkZAERR1Ol0X/va1zZs2DBzeyQRCERc8AAxk74nnTJQFLVly5aJRyKRCMdxarXaYDBIR3p6emiattvt0dCY2WxOTk72+/09PT25ubmzWsKSk5NRY10EYtYSc5u3SIEoiuFwOBAISEcoilIoFF8aBeJ5vrOz0+Px5ObmLl26VDrodrs5jpPcNAlJ4ARBGB4ejkS+PHdqtkgYAoGY27Ciz+f713/915dffhkAFArFxo0bN23alJqaev25DMO8/fbbKSkp69evz87Ojh4URZEkvxAlgiAoigKASCTC818euEYShkAgYiGIWDhWLAwXNWrN9u3by8rKAADHcafT+aWV/oaGhk6fPt3V1bVly5ZVq1ZJIgUAJEliGDZRqgRBkJ5SFDUxM3QiSMIQCEQMMA6wWLEwQo0pKaqsrEzKOb8RQ0ND586dO378+Nq1a1euXOlwOKJ/MhgMBEEEg8HoEZqmg8EghmFWq/VGqWFIwhAIxGRgImAcABfLC2Nil8/3er11dXWXLl3SarVbt261Wq1+v59lWavVCgAOh0OhULjdbil3HwD8fr/b7VYqlU6n80bJ7bOr2A4CgZidYLEewMfQL47jqqurDx48yHHcz372s6SkpFAoVFtbe+rUKemEoqIivV7f398fCoVEUQSAoaGh3t5ep9OZm5t7o7wwJGEIBCIGsatOA0xebIHjuNOnT7/++us8z69Zs6arq6upqeny5cunTp2qrq6Wzlm6dGlZWVkoFNq7d28wGAyFQpcuXWptbX300UejiRfXgyaSCAQiBiIuQqzUVmzSmWYkEnnxxRfPnj2r0Wjq6uqimwgxDFuyZIl0jl6vr6ys1Ol0hw4dunz5MsuyLMtu2LBhx44dN3LBAEkYAoGICcYBFivONfmfKYpat27dggULxP+ZxG8ymQoLC6X/x3G8sLBQp9NZLBZpK3hSUlJBQUFmZuYkV0YShkAgJkcEiN1WAQNxkloVSqXyySefjDmSWq3Oy8vLy8uL3zgkYQgEIgYYQOJaFMUAhfMRCMS0cHvXzkcgELMUASCOuk+Jqi2LJAyBQMREjBnORxI2p6Fj5iXPMEzCK6zPAgMAAJRNHFz2J9YGnSlknh9OrA3e6W8iHPMTjiaStw6GJbTQJQ/DsjZ9/jISewdmDzrwb/+/CZawrJ+4zG8HY583k4z+dDqbOmNxeGEAYswuRzMBCucjEIhpIFG/4UjCEAjEtIAmkggEYvbxecIqCucjEIi5STyxMBFEebuPfgaSMAQCERNx1q5IolgYAoGYwyAvDIFAxEPMWFhikiqQhCEQiJjEFwtLBEjCEAhEPMzSShVIwhAIxOSIAGIcThbywhAIxCxEBIgj7QtNJBEIxKwldlJFHJsoZwQkYQgEIgbxVG0V4yhOPRMgCUMgEDGJJ7UVQLzts/NFUaRpWhAEQRCkpxRFKRQKHEcpuAhEYsA+y/ZC4fxY8DzvdrvffPPN1tZWt9sdiUQYhtm0aVNlZWV+fn6irUMgblcwMT4vLBGJrbNHwkRR7OjoeOWVVxwOx6ZNm6xW68jIyMmTJz/99NOlS5fOkIQpgE9PD+Vt85uc9IEfpXpBMROjTI4W2MJNXp2dDbkpjYWNBIjOvxhdoJTNAAIEHXBlj4wJAs6GcYVWoH14wwfmsIyfDQr4JIjM/18e3zCFE4CTorebaj5r4mXcAKcCzpEezr/f5+5Wqoy8wGOjn6raG2/YRHq6EILA1mCe36sIi4BhILIYRomKbF61jmMuEUIYw0iAMKgrWdwKmDJR9SDim0gmgtkyQRsZGampqamtrV20aNGaNWtWr169YcOGbdu2LVy40GQyzdCgRmCNxYzRQRfd5VXBtBfqjQsNsEoTz7G49yo13q0s2uBJ2+hXAyebARiAjmAVeoEN4t4uBRfGyneNJKeHFTLeEBJEbTFHaYTIOOntUmhMXNmOcQvQhIw/7EoQNGksrhD9/dR4t9JeGCreNq4HdsYX2ngRRMB1ojKPVxTyGCVyY7jgx3xvKbgBnDCIuEHgxvDQXkoYnFlDYiHG8UgAs8UL6+npqaurs1gsZWVlFosFAPR6fUVFRXp6us1mm6FBCRAjY4SrU4Vh3hkaIiYiYAOnNcFeygUqAFjzvweSculuEOQsvc7zWNcn+rF2lRcUjkuhLc91mYppV6+KkbGYdbiJbBWNA82aMJAqK1d2v8tQxPqap78C/I0QAbx1imAf1durEwDLXuV3lgZ1wASBnNGvJq4AskAw/VWEnCdiGBb5hKebSGUpP/KAIflFv3I1j4kiRLCR/9AqSv1EVqJcodlbqWIWSVhra+vChQsFQQgGg6IoYhhGkmROTg6GXes8C4LAsizLsgDAsOwt37khUNMXiaTi6awyfrO4QO3qlf5XJEDERIwNY5yM9eM4wIdAA+0AABiIBCEKPMYEcF5GG8JA9gMJzQAAOIg4ATyHM8O4nMEVHyh8YQX0fmYDYMAxGAPEjH8vVRjhBMIJAJgYErlhQgxjVIHAcgRBAaYBjAPcKAZqFYIHE0Xxum+DPIhxhLoE7Hbe5u3xeAYGBhYtWvSb3/ymv7/f6/WaTKaKioodO3aYTKZrVKytre3AgQNHjhwBgKaLjRSoE2T1dKICIXeVd6RdPXBeG0zQ+2IE1nlfqOO0aeSsOpKgfiJ2COuSma5zBte4ik1QoCMzPSDwcPWC3gNKOV0L+jwOAKolHChAt4LhPLgwxIMCo5sIDjCRBUycJY2iZhGzRcIikUhnZ+dHH330jW98Y+nSpUqlsq2t7f3333e5XA888EBxcfHEk51O58aNGxcuXAgAv37u120D7QmyetrQApsyL5y7zn/pbWt/g1ZMxOfUCEzGnX5TOnP4B04vKBNiQxKEMx8KcDRx7jkTDYT831cCBDuEszb5h6+or+7XyemKAkDkPEUm84qFPGbA7D8Nsl14+BSJ60WRwygQQAliQjplCRCnFybezlVbRVFkGIam6fLy8gULFqjVaqvVWlVV9f777+fm5ubm5ioUXywX6vX6wsLCwsJCAPjTa++2Q0fiDJ8GDMA6l4QshZGuU/qRejUJgho4ORcEAcACdOraoNrKXz2pc/lUGuAiQNAyOmIkCBagM+4P8DQ2dFbtB8oATAAoTkZHTAm8TRnJfDDg6VEMHtCEgTAC4wNKBjUXOVEYwAQacLOI2zBREMk8HtOJwIHIY4JfMKxlCEuiZpEgghhHMbDEJFXMlhVJgiCMRmNOTk5BQYHBYKAoyul0rlixorOzs6enJxicka58CuC1GKu1c4SCN5cySuDlD0kqgM+92zdvqzu5MOSpVziXhFKXBQzAyGYABqIK+Pm7xwvv9epTGGYcz13pcy4LaGVcFSVAMAG74Al33jofpRZItZi9wu9cGlTI+K0gQbApIwv/tztrhY8LY/oSNmuF31YclucbItIYfY5QpApkugg4AIvxPTiuAsIp4hYBU4Fxe5hMSVAsHxM/32A02eN23+at1WodDofFYokm4lMUZbfbCYLw+Xx+v99sNk/7oCZgsh8OZCwKEAqx5GueYAfZH1IL8rrqZqCX7B5NW+j39Kky3w5QKqH1hLHuKgVDMhlAgphkCa/620FSKfhHFKWbxikVX/sn23i1SiYLAJQgZGzyr/9ur29I6SgMEX8lRPzk5b1JfRfk+1Zogct7xLvm7/qGmjV3/WOEVAjjvaqL71ixJlniTxEIHFOYH42QhQIABowYrlOwV3FcK5AmESjQf5PB9JCoSJgY1zbvxDBbJMzhcOTk5IyNjUlbiwCAZVnpqclkMhhmJMPQBUrvH5Lq/mAhQaQBpwGXWb8AwAWqP34rl/h8dxkGwABOy+gds4ANujUvr5qPTfiQMoAzMtoQBqJhv7lr/6Lo/RcBk9kGP1DnXkuuf80ajX8JgNGAy7M6jJnEpOfCuFYEBQYAmB4zPkoLPIZhgOGidCQxu6ghGguLuc379s7OLygoWL58+W9/+9uWlha1Wq3VaoeGho4ePTp//vzc3FydTjcTgwqA0wByRnyuhwfcn+DpPMYDlpCdCVFEwBgg5ExDux4BsAgQiVqHxQgMs8IXrgwOmBH73BTsf/wnMcQTzhdv66QKh8OxevXqtra2w4cPX758WalUjo2NkSS5e/fu0tJSkpwtdiIQtytxpLYmYkVytoTzVSpVcXHxt7/9bZZlW1paLl++PD4+ftdddz3wwAMZGRmJtg6BuJ0RxTgeAGJCZpKzyLvRarXl5eXl5eWJNgSBQFxD7KSKRMXCZosXhkAg5ji3d1IFAoGYxczeYjtIwhAIxKSIEM+KpHibb/NGIBCzmPg2GN3OeyQRCMQsRogjnJ+YmSYK5yMQiMmJc/8jCucjEIhZiBhXH8l4JGxoaOjUqVOXLl3CMIxhmCVLlqxYsSIzM3Mq1iEJQyAQMYhnm3fMzLBgMLh3797W1laz2Zyamjo+Pn7ixAmfz7d58+a0tLRbtg1JGAKBiMHU64XxPN/e3r5///6MjIwHH3ywqKjI5XL96Ec/On36tN1un4qEoVgYAoGYDEm/ROAnfwggTOKpsSz74Ycf+ny+4uLi4uJiDMNsNtuyZcu8Xu++ffvEKbQBRxKGQCCmgclD/hzH1dbWarXaiQ3JMjIyMAxrb2/3+/23rGJIwhAIREwkR2yyx+TBMkEQ+vr6lErlxMJZZrNZrVYHg8HBwUGOu8UqwXM/FqbCWGD84L7lC/DA00CrQIXfuqBP9ZeAA44DTgXyFUq9HgYYAFAktHBYBCIkkGTiPpYiiBGIKEBBTKFw2NWO8PAbt146nOd4hmFUKhWG33qJsKHGAJ0xPd0FrWlWtU4ZCHgmP00AgSHYAwcOtLS0AABJksXFxfPmzTMajQAgiqLP58NxnKKo6D9RqVQURXEc5/V6o7VOb5Y5L2EFpQXur7v1ev0tX8Hj8dTW1lZUVMxQYcV46OvrGxwcnLe0KFEGAEBbWxvHcTnFWQm04dKlSwabbSrB3SkSiUQuXLhQWlo61R7yF2/9n7pcrra2tqVLy6ZSJi9H752uHtJLVi4BJUQikZhnSpWW3W43AFAUpdPpcnJyJAkDAEEQMAyb2FBReiqKIs9PoeWxeNtTU1OzZMmSlpaWBNqwZ8+eb3zjGwk0QBTFX/7yl88++2xibfjOd76zZ8+eBBowMDCwbt26mpqaBNpw/PjxLVu2SOGhrwxer7esrGzHjh0HDx6MHqypqdm1a1d5eXldXR1N07d2ZRQLQyAQMw6GYSkpKRzHhUKh6EGfzxcKhZRKZWpq6i27nEjCEAjEjEOSZGlpaSgUGhsbix7s7+/neT4zM9NoNEZbl90sSMJAr9cvWbJEo9Ek0Ibk5ORrOpbLT1paWlZWVmJtKCwsTE5OTqABCoVi4cKFUwmtTh2TyVRaWkoQiWyGMu2QJLlhwwaSJDs7O/v7+wHA7/dfvnxZo9GsXr16Yoz/ZiGeffbZaTNzzqLRaAoKCpRKZQJtMJvNU9wsNnXsdrvD4UisDenp6TPRMzROMAyjKCovLy+BP2kYhkmB8Ft2TGYhOI5brdbW1lafzwcAUouMqqqqvLy8ysrKqaw8YOIU8mIRCAQifjo7O997770jR44AQCQSuffee++7776SkpKpXBNJGAKBkAmO44LBYDgcBgBRFKWOsVOZRQKSMAQCMaeZ86mtU2RgYKCuru7SpUubN2/Oz8+XLbvV4/FcvXq1sbGR4zhpa4VOpysvL09NTVUo5MuPD4VCfX199fX1wWBQEARBEHAcz87OLi8vT0iib29v75kzZ8Lh8MqVK/Py8mQLaQ8NDV24cKGnp0er1UYP2u32xYsXJycnT8zGnFEYhuno6GhubvZ6vRzHMQyTnJxcUlJSWFgojwFzkdtXwjiO6+3tra2t3b9//1tvvZWSkpKSkiLb97azs3P//v0dHR3S4pff7xcEYWBgYOvWrVPJkblZ3G53dXX1gQMHDAYDRVEMwwSDQWkjW1FRkcwqxvN8dXX1K6+8wvO81WrNzs6WU8JOnDjR2NhYUFAQPZiVlZWfn2+322WTsKamppqamubmZpZlGYbp7e21WCw0TSMJm4TbVMJEUfR4PL///e+vXLkifVxknlBfvHjxvffee/rppzdv3mw2m69cufKXv/zlhz/8YVJS0r333puUlCSPGSMjI1euXLFYLD/84Q/T0tJCodC5c+ceeughu93+ta99beHChfKYAQAcx42Pj+/bt6+5uTk/P1+2caMUFRWVl5c//PDD8g8NAKIoRiKRl156SalU7tixY926dQBw4MCBo0eP9vX1JcSkucLtK2HSgsiGDRsk+ZDZAJvNtnTp0vvvv1+aueTn5999990vvPBCVVVVSUmJbBKWmZm5c+fOaAkUtVrtcDjS0tLcbrff75fHBonR0dFXX321qKios7NzSjvm5iahUGj//v1jY2N33nnn8uXLpYPLly93Op0oWj05t6mESVkqRqMxHA5fvXpVfgOWL1+em5sbTaFUKBQ6nY6iqEAgwDC3XuTgZjEajQUFBRRFSatCbre7sbHR4/EsWLAgNTVVNjO8Xm9jY+OVK1f++q//uqWlpbW1VbahZwnhcPjo0aNGozE9PV2l+qxgicFgyMvLQxI2ObephAGAWq0GgER9PhwOx8Qk0kgkMj4+TtN0Tk7OVGsk3AwkSUpxt+bm5oaGhitXrgwNDW3evHnlypWy5bgKgtDa2nr8+PFly5YVFRUZDAZ5xr0Gj8fT3t7OcRzLsiRJZmRk5ObmylYzg2GY+vr60tLSoaGh999/3+PxAEBKSkpxcXFGRoY8NsxRbl8Jm1UMDw+3tLRYLJbFixfb7Xb5DXC5XFeuXKmrqyMIYs2aNWq1WrYYtsvlampqGhgY+OY3v5mQ1w4ABEGEQqGenh6GYaQ14sbGxnnz5t19993yrEjyPD8wMJCUlKRSqbq6ugKBAMdxJEmOjIysW7cOqdgkIAlLPBzHXb58+fjx4w8//PDixYuj9ZXkZNWqVatWrRoeHj5w4MA//MM/BIPBrVu3yrBtUxCEqqqqjo6O9evXZ2RkyJlQMhGtVpuSkpKcnLx7926tVtvc3Pxv//ZvL730kt/vf+yxx2TYeSYIgt/v/+STT3bu3Pnkk08uWLBgbGzsmWeeeeutt1wu11NPPSXbL8qc46uzCWvuUlVVVVVVpdPpfvCDHyTKDZFISkpauXJlZWXle++9V1NTI8OIvb29ly5dAoAtW7YkSr8AICMj4+GHH/7GN74hbY3Mzc1dv359cnLyH/7wB3lCkxiGEQSRnZ1dUVFRUlJCEITVar3nnnuUSuWZM2c8Hg+KiN0I5IUlmPPnzx8+fFiv1+/YsUPOFCQJURQFQYimXxEEYTQaCwsLjx8/Pjw8HA6HpYjhzNHQ0NDd3e12u1944QXptZ89e3ZwcPD3v//9uXPn1q1bt2jRoumqPjoJJElOrE5BUZTD4ZCSXbxer0ajmekMNWl9KSUlxWKxSFJOEITT6dTpdKOjoyMjI0ajETliXwqSsIQRiUTa2tr279+v1WrvuOOOBQsW0DTd0dHhcDisVqs8NjQ2NtbU1Dz00EMTg1+SrgGADJUS0tPTKysrvV5vNJv3woULHo8nJSUlNzfXarXK45rV1tbqdLrU1NRodr5UEVRyjmTQDoqiCgsLaZqemFAiCIIoijiOy5bqPBdBtyYxSMkce/fu7evr27ZtW3FxcTAY9Hg8x48fX716tWwS1tTU9MYbb5SWlhYXF6vVap7nvV5va2uryWSyWCwyxIDKysrKysomHrl8+XIoFLrzzjs3btwo29Ty1KlTOp1u5cqVUviPYZjBwUGPx5ORkaHVamWQcpVKtWLFisOHD4+NjUnOryAI/f39kUjEZrNZrVbkgt2I2zoWRtN0MBiU+hpEIpFQKETT09P0JSbd3d0ffPDBb37zm0WLFlEUVV9ff+HChXPnzh07dmxgYEAeGwCAJMlQKPT222/39fUFAgEpWf/w4cMVFRUyp8iLoii9HSzL8jwfiUSCwaBsOa79/f0nTpw4efKk3+8PBAK9vb01NTXj4+MPPPCAPFXktFrtjh07CIJoaWlpbm72+/0ul6uqqgoAVq5caTKZkITdiNu6UsVrr712+PDhnp6eqqqqpUuXOp3O++67b9euXTMdAJKG/ulPf+p2u00mE0VRUh8XQRCys7OfeeaZjRs3zrQBEi0tLXv37j158qTUHUuaPxYWFu7atSs3N3finueZZnR09M9//vOlS5dOnjzpdruLioocDsePf/zj0tJSGaZRx44d++STT1pbW0VRJEkyHA6npqauWLHi/vvvl00+OI47ffr04cOH6+vrpdZkdrv9rrvuuuuuu2SIBs5dbmsJ6+joGBoaomna7/frdDqFQuF0OrOysmTYXdzZ2dnQ0HD9zTeZTMXFxbKtS4ZCoeHh4YmNSAmCsNlsUo64nL/8NE339PS43W6Px8NxnFqtVigU8+fPl0dBPB7P0NDQ+Pg4y7I4jguCYDAYkpOTHQ6HnDfB5/MNDAyMjo4CgCiKer3e6XTabLavUvnWaee2ljAEAjHXQeqOQCDmMEjCEAjEHAZJGAKBmMMgCUMgEHMYJGEIBGIOgyQMgUDMYdAGowQjZaWzLCsIAoZhEzOACIJQKpXTmxPEcVwkEuF5XqFQKBQKKQNOOigdifMiAIDj+C3bJo0oCAJFUVEzJiJVBuc4Tsq5jccw6TYCAEmS0cKnt2AVz/NKpVKhUKBsrDkBkrAEMzAwsGfPngMHDgwNDZnN5uTkZBzHw+EwQRClpaWPPvpoZmbmFHuFTuTcuXMvvvhiU1PT1q1bt23btmjRokAgUFVV9corr2zfvv2hhx6KRyzOnDnDsmx2dnZubu5UzGhra7vnnnt27ty5aNGia04YGBj4z//8zwsXLthstq1bt+7cuTPmNV999dVDhw4JgrBixYqnn376ZlUsFApVV1e/+OKLLS0tjz766LZt2/Ly8m7qCoiEgH5nEozFYqmsrKyoqOA4rqCg4Fvf+tZ3v/vdJ5988t577z148ODLL7985cqVaRyusLDwwQcfJAgiEAhEN4QSBBGtyhDPRc6ePXvixInu7u4pmqFWq4PB4JfuS7VYLDt37iwsLJRqAcZzzXvuuae8vJyiKLfbLe2UuimUSuW8efMeeeQRmqZl7mCAmArIC0swarV63rx5+fn5Wq02IyOjoqLC4XCwLJuamvrBBx8cPnx45cqVpaWl07XnyWazLVq0yGg0RmdJSqUyLy/vkUceKSoqinOU4eHhQCAwlRZHkhlms/lGI6rV6oULF6anpweDwTivWVBQkJub29HRcWsmEQSRnJy8dOlSjUaD9lTPIZCEzUYoijKbzUVFRZcvXx4fHx8bGxsZGfH5fEajUaVSCYIQCAQCgYDD4UhJSVGpVD6fr7e3V3I9KIoyGo2pqTjsvPsAAAo/SURBVKlRkZIK+/j9foIgNBqNy+WKDsQwjNvtdrlcSUlJarWaZVlp0sowzMjIiNvtZllWUhmDwZCUlKRQKDo7O8fGxoLBYFdXV11dHQDk5eXpdDqO4+IxIxAI4DgumXGzm9sikcjo6Oj4+DjP81LcUCpEc83kl+O47u5uQRAikQhBECaTKT09PbpXnOO4gYEB6SJSKS6n02kwGFBNrjkKettmI6IochwXCoVIkqQoqrm5+eWXXz5z5szixYvz8vJ4nm9qaqqtrX344Ycfe+yxlJSU06dPv/rqq9KCgNFoXLBgwd/8zd9IPg5N0+3t7S+88EJLS4tWqy0oKLDb7dEiNmNjY8eOHfvd73534cKFp5566sknn5RaWPb19b3//vtHjx4NBoMajYZhmMWLF2/ZsiUzM/OFF144f/58OBzu7e09cuQIADz//POlpaVjY2NRMwDAZDJJZhiNRoqioma0t7erVCrJjHA4fFO3pb+//89//vPp06elzdg4jm/atOm+++7LzMyMniMIgtvtfvvtt7u7u69evapQKJYsWfL973/fZrORJMlx3MjIyOuvv37+/HmGYSiK0mq1X//619esWYNqcs1RkITNRqS+igcOHFiwYEFWVlZFRYXBYHj++ecvXbq0ZMmSLVu2aDSagwcPhkKhSCRy5MiR3/72t7t27VqzZo1Op6uqqvrjH//43HPP/eAHP0hNTW1sbHz99devXLny/PPPFxcXj42NHTx48MqVKwsWLAAAu92+adOm/Pz83bt3R0dnWfa5556LRCJbt2697777MAz7+OOPT506debMmRUrVvziF7/42c9+FggE7r77bqkokMViCYfDUTNWrFhhNpujZjzxxBN5eXlRM37+858vWbJEMqOlpeWmFgQ6OzsjkcjmzZu3bdsGACdPnjx06JDX6/3Rj34U9fUGBwcHBwe3bt362GOPYRj2ySefvPXWWy+//PLjjz+emZnZ2tq6d+/eEydOfP/73y8rK/N6vTU1NT/+8Y+ff/75DRs2JKr/G2IqIAmbLQQCgaNHj3q9XrVaTdN0JBLZuHHj9u3bS0pKVCqVxWJRq9VJSUkFBQWFhYUURW3fvj0SibS3t58/fx4ANm/ebLfbKYoqKirKy8vbs2fP7t27LRZLW1vb2bNn16xZU1xcnJ6enpSUND4+LlUoAwCCIKRW3tFpVCAQqK6urqmpuffee9evX5+SkgIAd999t5RqQJKkzWaT6ruaTKZor8mampqoGTabTaFQRM144IEHnE5n1Ix58+ZFzbjZVm/5+flSA2Np3FWrVh07dqy5uXlkZCTaKk2lUqWkpCxZskSaw5aVlc2bN++DDz7YtGlTSkpKS0vLhx9+uGbNmqKiorS0NKmokUKhqKqqysnJWbhw4TS+oQh5QBI2WyAIwmKxZGVlGQwGURRVKlVmZmZZWZlOp4uek5ycbLfbpS47UpfWqqqqtrY2j8dz6NAh6Zzx8fHBwUGfz+d2u0dHRwcGBtxu98KFC3U6HYZhGo0mNTV1omZdQygUunjxYiAQcDqd0faFaWlp69evn6SGand39yRmuFyuqBlSG4uoGTeVL5KUlOR2u2tra0+cOCFV9ero6FCpVC6Xy2azSTE7nU5ns9mSkpKkF2i32wsLC999993BwcHR0dHe3t6WlpbCwsKPP/5Y8rl8Ph9FUf39/W63O35LELMHJGGzBWkNbufOnZO00dbr9dd8571er8/ni0QiUmQdAARBUCqV9957r06ni64bms3mqGZJbYputBTIcdzw8DCO41LRQekgjuOT16H2+/03MsNkMgWDwagZUfslM24qiH716tUTJ040NjZSFCU5ki6XKzk5eeKqpUKhMBgMUedOoVAYjUapJ4Db7fb7/TRNj46ONjY2SoljgiCUlZVlZWUlpH0nYuogCZtL4Dh+zcxLWt0rLS391a9+FT0oLcapVKqBgQEpSCT1wpH+Kn7Olw4hZYdFmxhFkTLyJcXBMOymzJA08XozbjZ768033zxz5szq1at/8pOfSE7lU0891dzcPPHlXP/SotsepLun0+l27ty5efNmaeFCemmiKMpQqhcxE6DU1rmNw+EwGAwjIyMMw0hfXVEU+/v7f/azn/X09JhMpqSkJOmItPkGADiOm1hp+hqUSmVhYaHktkS9G5Zlz5w5c+LECenpxHZtkUiEZVmr1XojM1pbW/V6fdSMaCKr5O7dVAZpS0uLWq0uLi6W9Ivn+etFUCqlHT0eDAaHhoaknK+MjAy73U4QRE9PT3QxNBwOHzt27MCBA1PJ1EUkECRhc5vFixcvXrzY4/Hs3bvX6/UCQE9Pz6FDh4aHhwFArVZnZ2fPmzdv//79o6OjUkrBhQsXXC7XjSRMp9PdeeedWVlZbW1tUoQeAE6dOlVVVdXf3x89BwBomh4eHn7++eePHj3qcDiiZkh5Z1EzeJ6faIaknpIZw8PDUWGNB5PJFA6HR0ZGJIVqaGi4vtuT1+ttampqamoKhUIMw3R0dEgtdaUekfn5+WvXrj169OjVq1elPZUDAwNvvPFGMBiUoecLYiYgnn322UTbcFvj9XrPnDmzb9++xsZGAAgGg3q93mQyTZzX9PX1HT58+MiRI1KuKY7jycnJUlBJq9WSJBkMBpubm/v6+hobG+vr60dGRlasWFFaWqrRaKQ90vX19W63u62trb29vaurq6OjQ8rqxDBsbGxs3759J06cIAjCYDBYLJbU1FSe5/1+f2dnZ1dXV319fV1dnZTnJa0huN3unp6enp6e/v7+06dPL1myZN68eXq9PmpGU1PTp59+KplRUlIihfAkMzweT0dHh2RGV1eXIAhS9Oqajider/fQoUOHDx/u7u7mOE6r1aalpdE0La0MDA8Pt7e3d3Z2Sjqo0WisVmtdXd2xY8e6uro0Go3BYGhra6uqqqqpqaFpevfu3WVlZRqNRlrb7ejoGBsba29vb2hoaGho4Hl+zZo1Doejt7d37969x44dk0KBWq02OtlEzFqQhCUYr9dbXV3d1dWl1Wq1Wm0kEsnMzHQ6nRPD9n19fefPn/f5fFqtVmpsU1BQIEWjCYIwm80Oh6O9vX1gYGBkZITn+dzc3B07dkizLZ1Ol5ycHAgEurq6RkdHpYx2m82GYZhKpZLSI86dO6dQKHQ6ncFgkGZbWVlZPM/39PR0d3e7XC6DwbBq1arFixdLwqrVasfHxwcGBsLhcHp6+oYNG9LS0qJmDA8PS1M5yQwpuB41o6+vb2RkRDIjKSkJx3GlUmm327Ozs6+5LUePHh0bG6MoSq1W63S60tJSp9MpiuLo6GhfX18oFDIajYIg4DiuUqkyMjJaWloGBwdtNtvSpUspirp69Wp7eztBECtXrty6dWvUDKfTiWFYV1eXtEjKcdyWLVtKSkoUCkV3d/exY8coitLpdCaTSerkJPPnAXGzoA5GCARiDoNiYQgEYg6DJAyBQMxhkIQhEIg5DJIwBAIxh0EShkAg5jD/P+8+TEbfihimAAAAAElFTkSuQmCC;" vertex="1" parent="1">
          <mxGeometry x="626.83" y="211.5" width="471.69" height="398.5" as="geometry" />
        </mxCell>
        <mxCell id="KeYMbjUNge5Vjj2mVOIy-5" value="&lt;font style=&quot;font-weight: normal ; font-size: 32px&quot;&gt;1: Day Snow 2: Night Snow; 3. Day Clear;&lt;br&gt;&amp;nbsp;4: Night Clear; 5: Day Rain ; 6: Night Rain&lt;/font&gt;" style="text;html=1;strokeColor=none;fillColor=none;align=center;verticalAlign=middle;whiteSpace=wrap;rounded=0;fontFamily=Times New Roman;fontSize=28;fontStyle=1" vertex="1" parent="1">
          <mxGeometry x="190" y="630" width="870" height="90" as="geometry" />
        </mxCell>
      </root>
    </mxGraphModel>
  </diagram>
</mxfile>
